<!-- SKILLS -->
<svg width="50" height="50" viewBox="0 0 50 50" fill="none" xmlns="http://www.w3.org/2000/svg">
    
        <g id="js">
       <g clip-path="url(#clip0_1_73)">
        <path d="M0 0H50V50H0V0Z" fill="#F5DE19"/>
        <path d="M33.5875 39.0625C34.0135 39.9279 34.6754 40.6552 35.4968 41.1607C36.3183 41.6662 37.2658 41.9293 38.2303 41.9197C40.1767 41.9197 41.4214 40.9464 41.4214 39.5982C41.4214 37.9911 40.1428 37.4161 38 36.4786L36.825 35.975C33.4321 34.5304 31.1821 32.7214 31.1821 28.8964C31.1821 25.3732 33.8607 22.6893 38.0625 22.6893C39.4226 22.5911 40.7816 22.8955 41.9699 23.5646C43.1583 24.2337 44.1233 25.2378 44.7446 26.4518L41.0714 28.8C40.8321 28.1981 40.4156 27.6831 39.8769 27.3234C39.3383 26.9636 38.703 26.7761 38.0553 26.7857C37.7727 26.7574 37.4874 26.7883 37.2174 26.8764C36.9474 26.9645 36.6988 27.1079 36.4873 27.2974C36.2758 27.4869 36.106 27.7184 35.9889 27.9771C35.8718 28.2358 35.8099 28.5161 35.8071 28.8C35.8071 30.2089 36.6803 30.7804 38.6964 31.6572L39.8714 32.1607C43.8642 33.8732 46.1214 35.6179 46.1214 39.5411C46.1214 43.7714 42.7982 46.0893 38.3357 46.0893C36.5969 46.2001 34.8633 45.8053 33.3439 44.9527C31.8246 44.1 30.5844 42.8258 29.7732 41.2839L33.5875 39.0625ZM16.9892 39.4697C17.7267 40.7786 18.3982 41.8857 20.0125 41.8857C21.5553 41.8857 22.5303 41.2822 22.5303 38.9339V22.9572H27.2285V38.9964C27.2285 43.8607 24.3714 46.075 20.2125 46.075C18.7424 46.1554 17.2824 45.789 16.0244 45.0241C14.7664 44.2592 13.7693 43.1315 13.1642 41.7893L16.9892 39.4697Z" fill="black"/>
        </g>
        <defs>
        <clipPath id="clip0_1_73">
        <rect width="50" height="50" fill="white"/>
        </clipPath>
        </defs>
    </g>
    
    <g id="react">
<path d="M43.5766 16.206C43.0125 16.0008 42.4437 15.8107 41.8706 15.6359C41.9669 15.2188 42.0555 14.8068 42.1342 14.402C43.4256 7.7546 42.5814 2.39935 39.6976 0.636139C36.9327 -1.05419 32.4109 0.708362 27.8443 4.92254C27.3942 5.33861 26.9541 5.76667 26.5244 6.20631C26.2368 5.91396 25.9441 5.62729 25.6464 5.34644C20.8603 0.840515 16.0629 -1.05858 13.1823 0.709679C10.4199 2.40527 9.6019 7.43959 10.7646 13.7395C10.8803 14.3634 11.0109 14.9841 11.1563 15.601C10.4772 15.8056 9.82198 16.0234 9.19488 16.2552C3.5835 18.3297 0 21.5806 0 24.9527C0 28.4354 3.84705 31.9287 9.69155 34.0468C10.1654 34.2179 10.6431 34.3763 11.1244 34.5221C10.9681 35.1865 10.8293 35.8555 10.7083 36.5281C9.59983 42.7186 10.4654 47.634 13.2204 49.3188C16.0658 51.0588 20.8416 49.2705 25.4918 44.9602C25.8688 44.6098 26.2376 44.2494 26.5977 43.8795C27.063 44.3555 27.5408 44.8177 28.0304 45.2656C32.535 49.3755 36.9836 51.035 39.7359 49.3456C42.5787 47.6006 43.5026 42.3202 42.3031 35.8959C42.2086 35.3926 42.1026 34.8918 41.9853 34.3939C42.3207 34.2885 42.6499 34.1801 42.9708 34.0673C49.0467 31.9328 53 28.4819 53 24.9527C53 21.5683 49.3008 18.2954 43.5766 16.206ZM42.2588 31.7886C41.969 31.8903 41.6717 31.9884 41.3686 32.0839C40.6978 29.8322 39.7926 27.4381 38.6848 24.9643C39.7419 22.5496 40.6123 20.186 41.2642 17.949C41.8064 18.1154 42.3325 18.2908 42.8397 18.4759C47.7443 20.2663 50.7359 22.9131 50.7359 24.9527C50.7359 27.1251 47.505 29.9453 42.2588 31.7886ZM40.0821 36.3621C40.6125 39.2028 40.6881 41.7712 40.3367 43.7792C40.0212 45.5834 39.3865 46.7862 38.6014 47.268C36.9313 48.2932 33.3594 46.9607 29.5071 43.4457C29.0517 43.0294 28.6073 42.5997 28.1745 42.1571C29.668 40.4253 31.1605 38.4121 32.6172 36.176C35.1794 35.935 37.6 35.5407 39.7951 35.0026C39.9009 35.4534 39.9966 35.9066 40.0821 36.3621ZM18.0689 47.0909C16.437 47.7018 15.1373 47.7194 14.3516 47.2391C12.6798 46.2167 11.9848 42.2699 12.9328 36.9759C13.0455 36.3504 13.1745 35.7282 13.3198 35.1102C15.4907 35.6195 17.8937 35.9857 20.4619 36.2065C21.9285 38.3945 23.4641 40.4055 25.0117 42.1665C24.6828 42.504 24.3461 42.8328 24.002 43.1526C21.9455 45.0585 19.8849 46.4108 18.0689 47.0909ZM10.424 31.7752C7.83965 30.8385 5.70537 29.6213 4.24248 28.2929C2.92784 27.0994 2.2643 25.9142 2.2643 24.9527C2.2643 22.9063 5.14141 20.2962 9.94019 18.5222C10.5226 18.3071 11.1321 18.104 11.7646 17.9135C12.4279 20.2009 13.2978 22.5926 14.3477 25.0111C13.2842 27.4653 12.4018 29.8952 11.732 32.2097C11.2927 32.0762 10.8566 31.9314 10.424 31.7752ZM12.9867 13.2782C11.9906 7.88083 12.6521 3.80934 14.3168 2.78746C16.0898 1.69907 20.0106 3.25087 24.1432 7.1417C24.4126 7.39599 24.6777 7.65543 24.9384 7.9199C23.3985 9.67323 21.877 11.6694 20.4234 13.8444C17.9308 14.0894 15.5447 14.4828 13.351 15.0098C13.2159 14.436 13.0944 13.8587 12.9867 13.2785V13.2782ZM35.8485 19.2642C35.3303 18.3152 34.793 17.3781 34.2368 16.4536C35.9278 16.6804 37.548 16.9814 39.0695 17.3493C38.6128 18.9017 38.0434 20.5247 37.3733 22.1887C36.8834 21.2032 36.3751 20.2281 35.8485 19.2642ZM26.5255 9.63569C27.5697 10.8354 28.6157 12.1747 29.6444 13.6279C27.5575 13.5234 25.4672 13.523 23.3802 13.6266C24.41 12.1868 25.4648 10.8492 26.5255 9.63569ZM17.1426 19.2806C16.6226 20.2369 16.1237 21.2058 15.6464 22.1867C14.9872 20.5286 14.423 18.8982 13.9624 17.3238C15.4746 16.9651 17.0871 16.6718 18.7674 16.4492C18.205 17.3794 17.6632 18.3233 17.1426 19.2804V19.2806ZM18.8156 33.6269C17.0797 33.4214 15.4429 33.1433 13.9311 32.7943C14.399 31.1917 14.9756 29.5266 15.6491 27.833C16.1283 28.8146 16.6293 29.7842 17.1515 30.7408C17.6885 31.7243 18.2446 32.6876 18.8156 33.6269ZM26.588 40.4387C25.5147 39.2111 24.4444 37.8529 23.3991 36.3922C24.414 36.4344 25.4485 36.4559 26.5 36.4559C27.5803 36.4559 28.6482 36.4302 29.6993 36.3806C28.6672 37.8676 27.6252 39.2278 26.588 40.4387ZM37.3946 27.7465C38.1031 29.4588 38.7001 31.1151 39.1742 32.6902C37.6377 33.0621 35.9785 33.3615 34.2303 33.5839C34.7905 32.6422 35.333 31.6889 35.8574 30.7244C36.3906 29.744 36.9031 28.7511 37.3946 27.7465ZM33.8962 29.5249C33.0934 31.0037 32.2454 32.4544 31.3536 33.8747C29.7383 33.996 28.1194 34.0563 26.5 34.0554C24.8506 34.0554 23.2463 34.001 21.7014 33.8947C20.7864 32.4777 19.9223 31.0244 19.1108 29.5381H19.1111C18.3035 28.0596 17.5491 26.5491 16.8497 25.01C17.5473 23.4704 18.2994 21.9593 19.1042 20.4797L19.104 20.4799C19.9085 18.9999 20.7658 17.5529 21.6739 16.1419C23.25 16.0155 24.8663 15.9496 26.4998 15.9496H26.5C28.1409 15.9496 29.7593 16.0161 31.335 16.1434C32.234 17.5523 33.0857 18.9944 33.8887 20.4669C34.6962 21.9433 35.4583 23.4471 36.1735 24.9759C35.4656 26.5204 34.706 28.0377 33.8962 29.5249ZM38.5668 2.7159C40.3415 3.80122 41.0317 8.17784 39.9167 13.9173C39.8454 14.2834 39.7655 14.6564 39.6786 15.0346C37.4795 14.4964 35.0918 14.0962 32.5919 13.8475C31.1356 11.6485 29.6266 9.6493 28.1117 7.91859C28.5087 7.5128 28.9152 7.11754 29.3307 6.73316C33.2436 3.12267 36.9006 1.69709 38.5668 2.7159ZM26.5 19.9344C29.1138 19.9344 31.2327 22.1812 31.2327 24.9527C31.2327 27.7241 29.1138 29.971 26.5 29.971C23.8862 29.971 21.7673 27.7241 21.7673 24.9527C21.7673 22.1812 23.8862 19.9344 26.5 19.9344Z" fill="#00D8FF"/>
    </g>
    <g id="redux">
<path d="M34.6447 34.9196C36.4898 34.7184 37.8896 33.0429 37.826 31.0321C37.7625 29.0215 36.1717 27.4128 34.2629 27.4128H34.1357C32.1631 27.4799 30.6361 29.2225 30.6998 31.3001C30.7635 32.3056 31.1451 33.1768 31.7178 33.78C29.5545 38.2708 26.2459 41.5549 21.283 44.3029C17.9107 46.1795 14.4113 46.8498 10.9119 46.3808C8.04863 45.9785 5.82168 44.6382 4.42168 42.4262C2.38574 39.1421 2.19492 35.5897 3.91289 32.0375C5.12187 29.4905 7.03047 27.6138 8.23945 26.6755C7.98496 25.8042 7.60312 24.3297 7.4123 23.2574C-1.81367 30.2949 -0.859182 39.8123 1.94043 44.3029C4.04004 47.6542 8.30312 49.7319 13.0115 49.7319C14.284 49.7319 15.5564 49.5978 16.8291 49.2629C24.9734 47.5872 31.1453 42.4932 34.6447 34.9196ZM45.8432 26.6086C41.0074 20.6434 33.8812 17.3593 25.7369 17.3593H24.7189C24.1463 16.1529 22.9373 15.3485 21.6012 15.3485H21.4738C19.5016 15.4155 17.9746 17.1581 18.0381 19.236C18.1018 21.2466 19.6924 22.8552 21.6012 22.8552H21.7283C23.1281 22.7882 24.3371 21.8498 24.8461 20.5763H25.9914C30.8271 20.5763 35.4082 22.0508 39.5441 24.9329C42.7254 27.1448 45.016 30.0269 46.2885 33.512C47.3701 36.327 47.3064 39.075 46.1611 41.421C44.3797 44.9731 41.3892 46.9169 37.4443 46.9169C34.8992 46.9169 32.4814 46.1125 31.2088 45.5093C30.509 46.1795 29.2363 47.2518 28.3455 47.9223C31.0816 49.2627 33.8812 50 36.5535 50C42.6617 50 47.1793 46.4476 48.8973 42.8954C50.7424 39.0079 50.615 32.3056 45.8432 26.6086ZM13.5205 36.0587C13.5842 38.0696 15.1748 39.678 17.0836 39.678H17.2109C19.1834 39.6111 20.7103 37.8684 20.6467 35.7907C20.5832 33.7798 18.9924 32.1714 17.0836 32.1714H16.9564C16.8291 32.1714 16.6381 32.1714 16.5111 32.2383C13.9023 27.6807 12.8207 22.7211 13.2025 17.3591C13.4568 13.3376 14.7295 9.85233 16.9564 6.97022C18.8016 4.49032 22.3646 3.2839 24.7826 3.21704C31.5269 3.0829 34.39 11.93 34.581 15.4824C35.4082 15.6834 36.808 16.1527 37.7625 16.4878C36.9988 5.63008 30.6361 0 24.5281 0C18.8016 0 13.5205 4.35659 11.4207 10.7909C8.49394 19.3699 10.4027 27.6138 13.9658 34.1152C13.6478 34.5843 13.4568 35.3216 13.5205 36.0589V36.0587Z" fill="#764ABC"/>

    </g>

    <g id="css">
       <g clip-path="url(#clip0_1_79)">
        <path d="M5.55637 45.083L1.31116 0.336914H47.9745L43.7236 45.0759L24.6145 50.0528L5.55637 45.083Z" fill="#1572B6"/>
        <path d="M24.6428 46.2497L40.0851 42.228L43.7179 3.99646H24.6428V46.2497Z" fill="#33A9DC"/>
        <path d="M24.6428 20.2072H32.3734L32.9064 14.5875H24.6428V9.09924H39.2913L39.1514 10.5712L37.7168 25.6955H24.6428V20.2072Z" fill="white"/>
        <path d="M24.6787 34.4598L24.6523 34.4669L18.1465 32.8156L17.7306 28.4388H11.8656L12.684 37.0557L24.6504 40.1771L24.6787 40.17V34.4598Z" fill="#EBEBEB"/>
        <path d="M31.8765 25.4628L31.1733 32.8118L24.6581 34.4631V40.1734L36.6339 37.0555L36.7227 36.1286L37.7377 25.4628H31.8765Z" fill="white"/>
        <path d="M24.6636 9.09924V14.5875H10.552L10.4348 13.3535L10.1683 10.5712L10.0284 9.09924H24.6636ZM24.6429 20.2072V25.6955H18.2183L18.1011 24.4615L17.8365 21.6791L17.6967 20.2072H24.6429Z" fill="#EBEBEB"/>
        </g>
        <defs>
        <clipPath id="clip0_1_79">
        <rect width="50" height="50" fill="white"/>
        </clipPath>
        </defs>
    </g>
    <g id="html">
        <g clip-path="url(#clip0_1_88)">
        <path d="M2.59278 48.0048L-2.30768 -0.37854H51.5385L46.6315 47.9971L24.5827 53.3786L2.59278 48.0048Z" fill="#E44F26"/>
        <path d="M25 49.1614L41.7969 44.8329L45.7484 3.68396H25V49.1614Z" fill="#F1662A"/>
        <path d="M25 21.5447H16.5913L16.0115 15.4962H25V9.58911H9.06659L9.21873 11.1753L10.7792 27.4518H25V21.5447ZM25 36.8848L24.9712 36.8924L17.8947 35.117L17.4424 30.4063H11.0629L11.9531 39.6787L24.9712 43.0384L25 43.0307V36.8848Z" fill="#EBEBEB"/>
        <path d="M24.9773 21.5447V27.4518H32.8021L32.0661 35.1132L24.9773 36.8905V43.0364L38.0057 39.6787L38.1002 38.6811L39.5928 23.1309L39.7491 21.5447H24.9773ZM24.9773 9.58911V15.4962H40.3268L40.4543 14.1699L40.7442 11.1753L40.8963 9.58911H24.9773Z" fill="white"/>
        </g>
        <defs>
        <clipPath id="clip0_1_88">
        <rect width="50" height="53" fill="white"/>
        </clipPath>
        </defs>
    </g>

    <g id="sass">
        <g clip-path="url(#clip0_1_95)">
            <path fill-rule="evenodd" clip-rule="evenodd" d="M3.5 22.6089C3.5 22.9384 3.6132 23.1559 3.67664 23.3673C4.09008 24.7422 4.97875 25.922 6.03312 26.9983C7.53484 28.532 9.37398 29.7667 11.258 30.9278C12.892 31.9347 14.5595 32.919 16.2001 33.9184C16.4817 34.09 16.748 34.2873 17.0538 34.4978C16.7907 34.6197 16.572 34.727 16.3445 34.8259C14.1794 35.7672 12.0963 36.8223 10.1762 38.1006C9.01906 38.8712 7.90016 39.6901 7.10992 40.7603C5.83844 42.4815 5.38836 44.3153 6.33609 46.2733C6.61281 46.8451 7.035 47.3392 7.63055 47.7044C7.82359 47.8225 8.04016 47.9397 8.26602 47.9856C8.84461 48.1023 9.43414 48.1787 10.0198 48.2711L11.6785 48.2701C13.5127 48.13 15.1823 47.5914 16.6912 46.6989C19.0493 45.3039 20.638 43.4336 21.321 41.0331C21.8176 39.2884 21.8378 37.5419 21.2527 35.8051C21.1964 35.6443 21.1318 35.4857 21.0591 35.3298C20.988 35.1737 20.9043 35.0219 20.8059 34.8273L24.5662 32.9739L24.6225 33.0151C24.5541 33.2069 24.4814 33.3981 24.4196 33.5917C23.9728 34.9905 23.6759 36.4136 23.7825 37.8653C23.8962 39.4122 24.3999 40.8601 25.4565 42.1525C26.3107 43.1978 28.3462 43.2367 29.254 42.1876C29.5761 41.815 29.8884 41.4255 30.123 41.0097C30.736 39.9245 31.3037 38.8201 31.8894 37.7233L31.9916 37.5226C31.9495 38.042 31.9003 38.4981 31.8779 38.9547C31.8429 39.6676 31.8916 40.3764 32.1759 41.0547C32.4193 41.635 32.8333 42.0686 33.6087 42.145C34.1392 42.197 34.562 41.9889 34.9519 41.725C35.5558 41.3157 36.0564 40.8055 36.4235 40.2255C37.4631 38.589 38.5306 36.9625 39.4729 35.2848C40.4923 33.4703 41.3837 31.6028 42.3303 29.7573L42.4867 29.4301C42.7104 30.1834 42.8662 30.9212 43.1534 31.6197C43.4869 32.4301 43.8998 33.2214 44.3494 33.9906C44.5621 34.3539 44.5375 34.5897 44.2427 34.8944C43.009 36.1694 41.7966 37.4598 40.583 38.7489C40.3145 39.0334 40.0471 39.3231 39.8234 39.6339C39.6877 39.8301 39.5985 40.0474 39.5609 40.2733C39.5233 40.4812 39.581 40.6935 39.722 40.8658C39.863 41.038 40.0764 41.1568 40.3173 41.1972C40.8035 41.2867 41.302 41.3171 41.7982 41.2876C43.4919 41.1808 45.0297 40.6712 46.3892 39.8078C48.1507 38.6894 48.7162 37.1631 48.2896 35.3542C48.1742 34.8634 47.9702 34.3862 47.7717 33.9133C47.6826 33.7 47.6766 33.5505 47.839 33.3517C49.2472 31.6281 50.4503 29.7995 51.5692 27.9287C51.6135 27.8551 51.6589 27.7815 51.7366 27.7028C52.0991 29.32 52.6449 30.8786 53.6227 32.2928C53.124 32.7048 52.6302 33.0784 52.1834 33.49C51.1995 34.3965 50.3464 35.3809 49.9012 36.5814C49.7098 37.0989 49.5627 37.6248 49.648 38.1775C49.7804 39.0358 50.6007 39.5936 51.5856 39.3981C53.6933 38.98 55.5127 38.1287 56.8422 36.6208C57.7369 35.6055 57.8184 34.473 57.4437 33.2865C57.3409 32.964 57.219 32.6467 57.0877 32.2769C57.6078 32.1386 58.1148 31.9726 58.6392 31.87C61.3621 31.3375 64.0555 31.4303 66.6794 32.2731C68.2112 32.7653 69.4487 33.5889 70.1827 34.8845C71.079 36.4684 70.5835 37.9712 68.8417 38.9725C68.6793 39.0658 68.4934 39.1394 68.3588 39.2561C68.3158 39.2989 68.2836 39.3489 68.2643 39.403C68.245 39.4571 68.239 39.514 68.2467 39.5701C68.2582 39.6278 68.4359 39.7 68.5382 39.699C69.1108 39.6953 69.5751 39.438 70.0208 39.1736C71.1375 38.5112 71.9523 37.6201 72.1279 36.4469L72.1623 36.3587L72.1202 35.5947C72.1033 35.5506 72.1328 35.507 72.129 35.4737C71.8916 33.7651 70.8269 32.44 69.2781 31.4012C67.4844 30.1989 65.3663 29.7039 63.1263 29.6256C61.3096 29.5586 59.4952 29.798 57.7861 30.3301C57.2955 30.4825 56.8094 30.663 56.3161 30.8331C56.2499 30.7305 56.1788 30.632 56.1203 30.5303C55.6139 29.6415 55.0003 28.7922 54.8647 27.7731C54.7684 27.0494 54.6503 26.3265 54.851 25.6108C55.0441 24.9222 55.2956 24.2453 55.5324 23.5661C55.6544 23.2164 55.5685 23.0205 55.1791 22.863C55.0431 22.8058 54.8984 22.7651 54.7493 22.742C53.7923 22.623 52.8484 22.6909 51.9214 22.922C51.5933 23.004 51.3548 23.1615 51.2821 23.4728C51.2405 23.6514 51.1558 23.8225 51.0967 23.9987C50.8545 24.7314 50.6827 25.4781 50.2912 26.1761C49.3101 27.9269 48.1901 29.6115 47.0438 31.284C46.9197 31.4645 46.789 31.6417 46.6326 31.8606C46.2301 31.1387 45.8008 30.4909 45.6706 29.7315C45.5235 28.8728 45.4076 28.0155 45.657 27.1633C45.8423 26.5276 46.0846 25.9037 46.3077 25.2765C46.4133 24.9784 46.3646 24.8219 46.0496 24.6648C45.8905 24.5856 45.7105 24.5153 45.5312 24.4923C44.5499 24.3642 43.5472 24.4345 42.6032 24.6976C42.3062 24.7801 42.1504 24.9447 42.0596 25.2072C41.7927 25.9815 41.5652 26.7747 41.1906 27.5111C39.6736 30.4923 38.1128 33.4581 36.5537 36.4234C36.2283 37.0426 35.8471 37.6403 35.4802 38.2431C35.3872 38.3959 35.2516 38.5305 35.1356 38.6739C35.0427 38.5797 35.0066 38.515 35.0071 38.4503C35.0098 38.0692 34.9568 37.6769 35.0416 37.3084C35.3018 36.1941 35.5895 35.0846 35.9045 33.9808C36.1616 33.0686 36.4607 32.1648 36.7456 31.2587C36.8413 30.9555 36.843 30.6719 36.5887 30.4169C36.1616 29.9898 35.2691 29.8961 34.7397 30.2251L34.5056 30.3386L34.551 30.0151C34.6626 29.3219 34.685 28.6309 34.463 27.948C34.1863 27.0967 33.4775 26.6069 32.4472 26.634C31.967 26.6467 31.4628 26.717 31.0182 26.867C29.1484 27.4951 27.7107 28.6075 26.4868 29.9458C26.3733 30.07 26.2327 30.1741 26.0728 30.2523C24.4907 31.0042 22.9037 31.7467 21.3172 32.492L19.5513 33.3212C19.0777 32.934 18.6473 32.5323 18.159 32.1915C16.6677 31.149 15.1523 30.1323 13.6505 29.1015C12.3195 28.188 11.0299 27.2364 10.0434 26.0265C9.30945 25.1265 8.83641 24.1417 8.79102 23.0289C8.73359 21.6109 9.20281 20.3153 10.045 19.1092C11.1223 17.5661 12.5918 16.3276 14.2073 15.2059C15.9163 14.02 17.7647 13.0131 19.6804 12.0939C22.3606 10.8081 25.1174 9.66999 28.0733 8.91858C31.1041 8.14795 34.1791 7.70686 37.351 8.01436C38.5979 8.1353 39.8087 8.37999 40.9205 8.90264C41.7719 9.30249 42.4703 9.82608 42.7952 10.6445C43.1156 11.4498 43.1058 12.2659 42.8838 13.0839C42.4326 14.7405 41.3744 16.1059 40.0427 17.3261C37.8585 19.3262 35.1941 20.688 32.1945 21.5875C30.4698 22.1053 28.6754 22.4334 26.8543 22.5639C25.3619 22.6712 23.9006 22.5578 22.4875 22.113C21.5518 21.8181 20.737 21.3672 20.0818 20.7128C19.9648 20.5956 19.8149 20.4686 19.5967 20.5783C19.3829 20.6861 19.3452 20.8605 19.4168 21.0372C19.5366 21.3306 19.647 21.6362 19.8335 21.8987C20.3022 22.5573 20.9858 23.035 21.7383 23.4447C23.1837 24.2326 24.7991 24.4975 26.4742 24.5589C29.0161 24.6531 31.4962 24.3278 33.9412 23.7433C37.432 22.9089 40.4671 21.4351 42.9012 19.1101C44.928 17.1742 46.3755 14.9894 46.6856 12.3512C46.8371 11.0636 46.6758 9.80217 45.9725 8.62749C45.2096 7.35483 43.9966 6.40842 42.5463 5.75639C40.4343 4.80717 38.1549 4.25452 35.8023 4.25452H33.4452C30.596 4.25452 27.8414 4.95436 25.1639 5.7892C23.1372 6.42155 21.1498 7.1678 19.2205 7.99374C15.0188 9.79327 11.1059 11.9631 7.89195 14.9467C6.2907 16.4331 4.935 18.0733 4.15516 20.0045C3.92019 20.5812 3.71743 21.1672 3.54758 21.7605M18.772 38.6415C18.5899 40.7317 17.4847 42.4262 15.6784 43.7987C14.6623 44.5703 13.4969 45.1197 12.1395 45.3128C11.6473 45.3826 11.1437 45.3995 10.6663 45.2247C9.98539 44.9753 9.83281 44.4573 9.81969 43.9056C9.79945 43.0262 10.1587 42.2312 10.6515 41.4747C11.2946 40.4884 12.2374 39.7365 13.2442 39.0344C14.8302 37.9276 16.5506 36.9911 18.3127 36.107L18.4455 36.0601C18.7179 36.9226 18.8475 37.7744 18.772 38.6415ZM32.5303 29.5576C32.4018 30.2251 32.241 30.8931 32.0135 31.54C31.2271 33.7792 30.217 35.949 29.1249 38.0898C28.9231 38.4859 28.6295 38.8473 28.3741 39.2228C28.3306 39.2805 28.2785 39.3331 28.2193 39.3794C27.9032 39.647 27.6035 39.633 27.4438 39.2828C27.2579 38.8759 27.1436 38.4405 27.0452 38.0097C26.979 37.7205 26.9948 37.4167 26.9741 37.1205C26.9954 35.0139 27.7452 33.0995 29.0172 31.3173C29.5416 30.5823 30.1126 29.882 30.9848 29.417C31.2563 29.2726 31.5499 29.1612 31.8571 29.0861C32.322 28.974 32.6074 29.1583 32.5303 29.5576ZM41.9169 39.8083L45.2905 36.4319C45.4311 37.6858 42.9445 40.1889 41.9169 39.8083ZM52.692 37.5362C52.4535 37.6534 52.1937 37.7378 51.9493 37.8461C51.7256 37.9455 51.6518 37.8451 51.6452 37.6801C51.6421 37.5659 51.6592 37.452 51.6961 37.3422C52.1516 35.965 52.99 34.7894 54.2374 33.8331L54.3249 33.7947C54.9183 35.2173 54.2325 36.7797 52.692 37.5362Z" fill="#CB6699"/>
            </g>
            <defs>
            <clipPath id="clip0_1_95">
            <rect width="68" height="52" fill="white"/>
            </clipPath>
            </defs>
        </g>
    <g id="ts">
        <g clip-path="url(#clip0_1_100)">
        <path d="M8.85547 18.3594H47.7891V47.1367H8.85547V18.3594Z" fill="white"/>
        <path d="M0.714294 25.7142V50.7142H50.7143V0.714233H0.714294V25.7142ZM41.0063 23.7142C42.2038 23.9921 43.2923 24.6185 44.1343 25.5142C44.5978 25.9969 45.0007 26.5342 45.3343 27.1142C45.3343 27.1782 43.1743 28.6382 41.8583 29.4542C41.8103 29.4862 41.6183 29.2782 41.4063 28.9622C41.1661 28.5477 40.8247 28.2008 40.4141 27.9539C40.0035 27.707 39.5371 27.5681 39.0583 27.5502C37.5423 27.4462 36.5663 28.2422 36.5743 29.5502C36.5621 29.8759 36.6367 30.1989 36.7903 30.4862C37.1223 31.1782 37.7423 31.5902 39.6863 32.4302C43.2663 33.9702 44.7983 34.9862 45.7503 36.4302C46.8143 38.0302 47.0503 40.6142 46.3303 42.5262C45.5303 44.6062 43.5703 46.0182 40.7983 46.4862C39.5322 46.6313 38.253 46.6179 36.9903 46.4462C35.055 46.1272 33.2722 45.198 31.9023 43.7942C31.4423 43.2862 30.5463 41.9622 30.6023 41.8662C30.748 41.7574 30.9018 41.6598 31.0623 41.5742L32.9143 40.5502L34.3503 39.7182L34.6503 40.1622C35.1567 40.8863 35.801 41.5034 36.5463 41.9782C38.1463 42.8182 40.3303 42.7022 41.4103 41.7302C41.7729 41.3741 41.9991 40.902 42.0496 40.3962C42.1 39.8904 41.9714 39.383 41.6863 38.9622C41.2863 38.4062 40.4863 37.9382 38.2503 36.9622C35.6703 35.8502 34.5583 35.1622 33.5423 34.0662C32.9082 33.3428 32.44 32.4896 32.1703 31.5662C31.9693 30.5112 31.9396 29.4307 32.0823 28.3662C32.6143 25.8742 34.4823 24.1342 37.2103 23.6182C38.4737 23.4622 39.7534 23.4972 41.0063 23.7222V23.7142ZM29.2703 25.8102V27.8582H22.7783V46.3502H18.1743V27.8542H11.6663V25.8542C11.6459 25.1645 11.6619 24.4742 11.7143 23.7862C11.7463 23.7502 15.7143 23.7502 20.5143 23.7502H29.2463L29.2703 25.8102Z" fill="#007ACC"/>
        </g>
        <defs>
        <clipPath id="clip0_1_100">
        <rect width="50" height="50" fill="white"/>
        </clipPath>
        </defs>
    </g>

    <g id="router">
        <g clip-path="url(#clip0_1_105)">
        <path d="M42.5563 14.6197C40.9896 14.1264 40.1809 14.2927 38.5383 14.1127C35.9988 13.8355 34.9869 12.8413 34.5576 10.2829C34.3174 8.85461 34.601 6.76332 33.9879 5.46867C32.8152 2.99969 30.0713 1.89238 27.3148 2.52445C24.9872 3.05899 23.0506 5.38875 22.9432 7.78039C22.8207 10.5111 24.374 12.8413 27.0411 13.6456C28.3087 14.028 29.6549 14.2205 30.9783 14.3181C33.4056 14.4955 33.5921 15.8469 34.2483 16.9594C34.6625 17.6606 35.0634 18.3516 35.0634 20.4429C35.0634 22.5341 34.6599 23.2246 34.2487 23.9259C33.5921 25.0358 32.7822 25.7628 30.3549 25.9424C29.0314 26.0404 27.6822 26.2329 26.4181 26.6157C23.7506 27.4223 22.1972 29.7495 22.3197 32.4805C22.4271 34.8722 24.3637 37.202 26.6913 37.7365C29.4478 38.3707 32.1918 37.2612 33.3644 34.7923C33.9801 33.4976 34.3174 32.0307 34.5576 30.6028C34.9895 28.044 36.0014 27.0497 38.5383 26.7722C40.1809 26.5925 41.8812 26.7722 43.4208 25.8964C45.0472 24.7062 46.5008 22.9187 46.5008 20.4429C46.5008 17.9661 44.9346 15.37 42.5563 14.6197Z" fill="#F44250"/>
        <path d="M16.5 26.2462C13.2988 26.2462 10.6872 23.6259 10.6872 20.4131C10.6872 17.2004 13.2984 14.5806 16.4996 14.5806C19.7007 14.5806 22.3124 17.2008 22.3124 20.4131C22.3124 23.6229 19.6986 26.2462 16.4996 26.2462H16.5ZM5.79217 38.0999C2.5953 38.0922 -0.0077477 35.4617 -1.33263e-05 32.2463C0.00772105 29.0365 2.62924 26.424 5.83299 26.4344C9.03159 26.4421 11.6351 29.0726 11.6252 32.2876C11.6174 35.4947 8.99549 38.1077 5.79217 38.0999ZM48.9809 38.0999C45.7746 38.1176 43.1432 35.5154 43.1247 32.3108C43.1071 29.0933 45.7003 26.4524 48.8937 26.4344C52.1 26.4163 54.7319 29.0185 54.7499 32.2231C54.7675 35.438 52.1744 38.0819 48.9809 38.0999Z" fill="#121212"/>
        </g>
        <defs>
        <clipPath id="clip0_1_105">
        <rect width="55" height="48" fill="white"/>
        </clipPath>
        </defs>
    </g>

    <g id="git">
        <g clip-path="url(#clip0_1_129)">
        <path d="M48.7254 22.8039L27.1957 1.27498C25.9566 0.0351319 23.9457 0.0351319 22.7047 1.27498L18.2344 5.74607L23.9055 11.4172C25.2238 10.9722 26.7348 11.2707 27.7852 12.3211C28.841 13.3781 29.1371 14.9019 28.6813 16.2246L34.1469 21.6906C35.4691 21.2347 36.9953 21.5293 38.0508 22.5871C39.5274 24.0625 39.5274 26.4543 38.0508 27.9304C37.6999 28.2815 37.2833 28.56 36.8247 28.75C36.3662 28.94 35.8747 29.0378 35.3783 29.0378C34.882 29.0378 34.3905 28.94 33.9319 28.75C33.4734 28.56 33.0568 28.2815 32.7059 27.9304C32.1788 27.4028 31.8195 26.7312 31.6732 25.9999C31.5269 25.2686 31.6001 24.5104 31.8836 23.8207L26.7867 18.7238L26.7859 32.1383C27.1558 32.3203 27.4934 32.5615 27.7856 32.8523C29.2613 34.3277 29.2613 36.7187 27.7856 38.1972C26.3094 39.6726 23.9168 39.6726 22.4422 38.1972C20.9664 36.7191 20.9664 34.3281 22.4422 32.8523C22.7961 32.4986 23.2166 32.2185 23.6793 32.0281V18.4894C23.216 18.2999 22.7954 18.0195 22.4422 17.6648C21.3242 16.5476 21.0551 14.907 21.6285 13.5336L16.0375 7.94255L1.27501 22.7043C0.679426 23.3 0.344849 24.108 0.344849 24.9504C0.344849 25.7928 0.679426 26.6007 1.27501 27.1965L22.8051 48.7254C24.0449 49.9652 26.0551 49.9652 27.2969 48.7254L48.7258 27.2965C49.3212 26.7005 49.6557 25.8925 49.6556 25.0501C49.6555 24.2076 49.321 23.3997 48.7254 22.8039Z" fill="#F34F29"/>
        </g>
        <defs>
        <clipPath id="clip0_1_129">
        <rect width="50" height="50" fill="white"/>
        </clipPath>
        </defs>
    </g>

    <g id="vite">
        <path d="M48.7367 7.62504L26.2985 47.7493C25.8348 48.5778 24.6446 48.5825 24.1746 47.7586L1.29104 7.62973C0.778152 6.73051 1.54573 5.64262 2.56487 5.82426L25.0274 9.83871C25.1707 9.8648 25.3176 9.8648 25.461 9.83871L47.4532 5.83051C48.468 5.64574 49.2403 6.72465 48.7367 7.62504Z" fill="url(#paint0_linear_1_133)"/>
        <path d="M35.7266 0.558628L19.1227 3.81175C18.9901 3.83765 18.87 3.90683 18.781 4.00843C18.6921 4.11003 18.6394 4.23829 18.6313 4.37308L17.609 21.6262C17.6035 21.7208 17.6201 21.8154 17.6575 21.9025C17.6949 21.9896 17.7521 22.0668 17.8244 22.1279C17.8968 22.1891 17.9825 22.2326 18.0746 22.2549C18.1667 22.2773 18.2627 22.2779 18.3551 22.2567L22.9785 21.1883C23.0781 21.1654 23.1818 21.1679 23.2802 21.1956C23.3785 21.2232 23.4684 21.2751 23.5415 21.3464C23.6146 21.4178 23.6686 21.5064 23.6985 21.6041C23.7285 21.7018 23.7334 21.8054 23.7129 21.9055L22.3391 28.6317C22.3181 28.7352 22.3243 28.8424 22.3572 28.9428C22.39 29.0432 22.4484 29.1333 22.5266 29.2044C22.6047 29.2755 22.7 29.325 22.803 29.3482C22.9061 29.3714 23.0134 29.3675 23.1145 29.3368L25.9692 28.4684C26.4117 28.334 26.8375 28.7231 26.7445 29.1762L24.561 39.7414C24.425 40.4024 25.3039 40.7625 25.6703 40.1961L25.9145 39.818L39.4457 12.8141C39.6731 12.361 39.2813 11.8453 38.7856 11.9414L34.0258 12.8602C33.9234 12.8801 33.8176 12.8733 33.7185 12.8405C33.6194 12.8078 33.5305 12.7501 33.4602 12.673C33.3898 12.5959 33.3405 12.502 33.3169 12.4004C33.2933 12.2988 33.2962 12.1928 33.3254 12.0926L36.4309 1.32621C36.4601 1.22568 36.4629 1.11932 36.439 1.01739C36.4152 0.915462 36.3655 0.821397 36.2947 0.744263C36.2239 0.66713 36.1345 0.609529 36.035 0.577014C35.9354 0.5445 35.8292 0.538167 35.7266 0.558628Z" fill="url(#paint1_linear_1_133)"/>
        <defs>
        <linearGradient id="paint0_linear_1_133" x1="0.731745" y1="4.39051" x2="28.659" y2="42.3179" gradientUnits="userSpaceOnUse">
        <stop stop-color="#41D1FF"/>
        <stop offset="1" stop-color="#BD34FE"/>
        </linearGradient>
        <linearGradient id="paint1_linear_1_133" x1="23.7383" y1="1.44143" x2="28.7902" y2="36.097" gradientUnits="userSpaceOnUse">
        <stop stop-color="#FFEA83"/>
        <stop offset="0.083" stop-color="#FFDD35"/>
        <stop offset="1" stop-color="#FFA800"/>
        </linearGradient>
        </defs>
    </g>

    <g id="shadcn">
        <g clip-path="url(#clip0_1_159)">
        <path d="M44.6593 23.7379L23.7379 44.6593C22.4478 45.9494 22.4478 47.9967 23.7379 49.2867C24.3479 49.8964 25.1751 50.2389 26.0376 50.2389C26.9 50.2389 27.7272 49.8964 28.3372 49.2867L49.2587 28.3653C50.5488 27.0752 50.5488 25.0279 49.2587 23.7379C47.9686 22.4478 45.9214 22.4478 44.6313 23.7379H44.6593ZM45.1081 0.713031C43.818 -0.577033 41.7707 -0.577033 40.4807 0.713031L0.713031 40.4807C-0.577033 41.7707 -0.577033 43.818 0.713031 45.1081C1.32307 45.7177 2.15024 46.0602 3.01271 46.0602C3.87518 46.0602 4.70235 45.7177 5.31239 45.1081L45.08 5.34044C46.3701 4.05037 46.3701 2.0031 45.08 0.713031H45.1081Z" fill="white"/>
        </g>
        <defs>
        <clipPath id="clip0_1_159">
        <rect width="50" height="50" fill="white"/>
        </clipPath>
        </defs>
    </g>

    <g id="formik">
        <g clip-path="url(#clip0_1_163)">
        <path d="M47.2526 25.0244L40.0833 20.869L40.0859 12.2065L47.2552 16.3592L47.2526 25.0244ZM47.25 34.4481L40.0833 30.2928V22.0187L47.2526 26.1715L47.25 34.4481ZM47.3177 43.9769L40.0625 39.7769L40.0651 31.5003L47.3203 35.7029L47.3177 43.9769ZM28.6927 26.8986L39.1042 20.8664V12.595L28.6953 18.6272L28.6927 26.8986ZM22.2474 39.979L39.0625 30.2376V21.961L22.2474 31.705V39.979ZM10.9375 56.1044L39.1224 39.7743V31.5003L10.9401 47.8278L10.9375 56.1044ZM18.724 61L11.5104 56.8184L39.5938 40.5407L46.8073 44.7224L18.724 61ZM2.7474 34.1673L9.91667 38.32L9.91406 47.14L2.74479 42.9873L2.7474 34.1673ZM2.75 24.7435L9.91667 28.8963V37.1729L2.74479 33.0175L2.75 24.7435ZM2.68229 15.262L9.9375 19.4673L9.9349 27.7439L2.67969 23.5386L2.68229 15.262ZM21.3047 32.2878L10.8958 38.32V46.594L21.3047 40.5618V32.2878ZM27.7526 19.2074L10.9349 28.9487V37.2254L27.75 27.4814L27.7526 19.2074ZM39.1016 3.05838L10.8776 19.4121V27.6861L39.1016 11.3324V3.05838ZM31.599 -2L38.8125 2.18163L10.4062 18.6456L3.19271 14.464L31.599 -2Z" fill="#0D99FF"/>
        </g>
        <defs>
        <clipPath id="clip0_1_163">
        <rect width="50" height="63" fill="white"/>
        </clipPath>
        </defs>
    </g>
    <g id="styled">
        <g clip-path="url(#clip0_1_167)">
        <path d="M0 45.8477V34.0906L13.5922 23.1266C16.618 20.686 19.5703 19.9172 22.7184 21.6606C23.9465 22.3403 24.3836 24.5899 23.5953 26.3231L0 45.8477Z" fill="url(#paint0_linear_1_167)"/>
        <path d="M12.8418 23.934C15.3797 20.8484 18.7941 18.0789 22.8055 15.6547C25.4629 14.0492 27.5996 17.3449 25.3031 20.6492C22.9242 23.7832 19.6859 26.4805 17.0469 28.3305C15.275 29.5723 11.6863 25.3395 12.8418 23.934Z" fill="url(#paint1_linear_1_167)"/>
        <path d="M12.8418 23.934C15.3797 20.8484 18.7941 18.0789 22.8055 15.6547C25.4629 14.0492 27.5996 17.3449 25.3031 20.6492C22.9242 23.7832 19.6859 26.4805 17.0469 28.3305C15.275 29.5723 11.6863 25.3395 12.8418 23.934Z" fill="url(#paint2_radial_1_167)"/>
        <path d="M0 45.8477V49.759H11.4949L32.559 32.6442C34.6801 30.6129 34.4395 27.2379 33.3875 25.3918C31.182 21.5172 26.6609 25.0125 23.5953 26.3231L0 45.8477Z" fill="url(#paint3_linear_1_167)"/>
        <path d="M22.9426 26.5899C24.9789 24.3574 33.9801 16.5219 35.6426 18.2102C37.1543 19.7461 36.325 23.1313 32.7207 27.1086C29.8656 30.2574 26.2688 32.3777 24.3985 30.8957C22.8461 29.6676 21.7547 27.8922 22.9426 26.5899Z" fill="url(#paint4_linear_1_167)"/>
        <path d="M22.9426 26.5899C24.9789 24.3574 33.9801 16.5219 35.6426 18.2102C37.1543 19.7461 36.325 23.1313 32.7207 27.1086C29.8656 30.2574 26.2688 32.3777 24.3985 30.8957C22.8461 29.6676 21.7547 27.8922 22.9426 26.5899Z" fill="url(#paint5_radial_1_167)"/>
        <path d="M11.4949 49.7589H29.1574C33.8754 45.1972 39.7957 39.7722 37.332 35.5246C35.8805 33.025 34.1992 32.5687 32.559 32.6437L11.4949 49.7589Z" fill="url(#paint6_linear_1_167)"/>
        <path d="M39.3703 28.8539C38.8594 25.7859 28.0848 34.9395 27.4352 36.1492C26.807 37.3188 28.416 41.7984 30.9652 40.6539C34.2289 39.1117 40.2164 33.9328 39.3703 28.8539Z" fill="url(#paint7_linear_1_167)"/>
        <path d="M39.3703 28.8539C38.8594 25.7859 28.0848 34.9395 27.4352 36.1492C26.807 37.3188 28.416 41.7984 30.9652 40.6539C34.2289 39.1117 40.2164 33.9328 39.3703 28.8539Z" fill="url(#paint8_radial_1_167)"/>
        <path d="M40.0601 22.3281C36.5418 24.9758 38.8226 29.291 34.7523 31.6492C40.0691 32.7488 43.3461 25.323 42.4832 22.5992L40.0601 22.3281Z" fill="url(#paint9_linear_1_167)"/>
        <path d="M40.0601 22.3281C36.5418 24.9758 38.8226 29.291 34.7523 31.6492C40.0691 32.7488 43.3461 25.323 42.4832 22.5992L40.0601 22.3281Z" fill="url(#paint10_radial_1_167)"/>
        <path d="M47.0129 8.01055L42.4895 22.8934C41.6316 23.2379 40.634 23.0008 40.0684 22.3043L43.6508 6.95508L47.0129 8.01055Z" fill="url(#paint11_linear_1_167)"/>
        <path d="M50 0.240967V9.5769C46.8898 10.8167 39.0195 7.71558 39.9359 4.78979L41.3597 0.240967H50Z" fill="url(#paint12_linear_1_167)"/>
        </g>
        <defs>
        <linearGradient id="paint0_linear_1_167" x1="5.87906" y1="28.4922" x2="11.734" y2="35.8248" gradientUnits="userSpaceOnUse">
        <stop offset="0.085" stop-color="#CC7F12"/>
        <stop offset="0.127" stop-color="#FFC22F"/>
        <stop offset="0.5" stop-color="#FFD468"/>
        <stop offset="1" stop-color="#FFD255"/>
        </linearGradient>
        <linearGradient id="paint1_linear_1_167" x1="16.2838" y1="19.2149" x2="21.4831" y2="25.4101" gradientUnits="userSpaceOnUse">
        <stop stop-color="#BF4F95"/>
        <stop offset="0.284" stop-color="#D26AAA"/>
        <stop offset="0.588" stop-color="#DC81BB"/>
        <stop offset="0.711" stop-color="#D76CAD"/>
        <stop offset="0.825" stop-color="#D26CAB"/>
        <stop offset="0.957" stop-color="#CA629D"/>
        <stop offset="1" stop-color="#C96499"/>
        </linearGradient>
        <radialGradient id="paint2_radial_1_167" cx="0" cy="0" r="1" gradientUnits="userSpaceOnUse" gradientTransform="translate(19.7812 21.7492) rotate(44.195) scale(4.88173 9.24606)">
        <stop stop-color="#B94481" stop-opacity="0"/>
        <stop offset="0.694" stop-color="#B94481" stop-opacity="0.186"/>
        <stop offset="1" stop-color="#B94481"/>
        </radialGradient>
        <linearGradient id="paint3_linear_1_167" x1="13.7221" y1="33.2531" x2="21.5092" y2="42.621" gradientUnits="userSpaceOnUse">
        <stop offset="0.027" stop-color="#CC7F12"/>
        <stop offset="0.157" stop-color="#FFC22F"/>
        <stop offset="0.5" stop-color="#FFD468"/>
        <stop offset="1" stop-color="#FFD255"/>
        </linearGradient>
        <linearGradient id="paint4_linear_1_167" x1="27.6572" y1="22.6695" x2="31.6694" y2="27.3597" gradientUnits="userSpaceOnUse">
        <stop stop-color="#BF4F95"/>
        <stop offset="0.284" stop-color="#D26AAA"/>
        <stop offset="0.588" stop-color="#DC81BA"/>
        <stop offset="0.711" stop-color="#D76CAD"/>
        <stop offset="0.825" stop-color="#D26CAB"/>
        <stop offset="0.957" stop-color="#CA629D"/>
        <stop offset="1" stop-color="#C96499"/>
        </linearGradient>
        <radialGradient id="paint5_radial_1_167" cx="0" cy="0" r="1" gradientUnits="userSpaceOnUse" gradientTransform="translate(29.3991 24.6763) rotate(42.07) scale(5.28801 9.31632)">
        <stop stop-color="#B94481" stop-opacity="0"/>
        <stop offset="0.694" stop-color="#B94481" stop-opacity="0.186"/>
        <stop offset="1" stop-color="#B94481"/>
        </radialGradient>
        <linearGradient id="paint6_linear_1_167" x1="21.9116" y1="40.12" x2="29.7148" y2="49.8108" gradientUnits="userSpaceOnUse">
        <stop offset="0.027" stop-color="#CC7F12"/>
        <stop offset="0.157" stop-color="#FFC22F"/>
        <stop offset="0.5" stop-color="#FFD468"/>
        <stop offset="1" stop-color="#FFD255"/>
        </linearGradient>
        <linearGradient id="paint7_linear_1_167" x1="30.9932" y1="31.8423" x2="35.1072" y2="36.7846" gradientUnits="userSpaceOnUse">
        <stop stop-color="#BF4F95"/>
        <stop offset="0.284" stop-color="#D26AAA"/>
        <stop offset="0.588" stop-color="#DC81BB"/>
        <stop offset="0.711" stop-color="#D76CAD"/>
        <stop offset="0.825" stop-color="#D26CAB"/>
        <stop offset="0.957" stop-color="#CA629D"/>
        <stop offset="1" stop-color="#C96499"/>
        </linearGradient>
        <radialGradient id="paint8_radial_1_167" cx="0" cy="0" r="1" gradientUnits="userSpaceOnUse" gradientTransform="translate(33.3658 34.827) rotate(-40.472) scale(9.60687 3.617)">
        <stop stop-color="#B94481" stop-opacity="0"/>
        <stop offset="0.644" stop-color="#B94481" stop-opacity="0.186"/>
        <stop offset="1" stop-color="#B94481"/>
        </radialGradient>
        <linearGradient id="paint9_linear_1_167" x1="40.9526" y1="24.6446" x2="36.861" y2="30.8248" gradientUnits="userSpaceOnUse">
        <stop stop-color="#DC83B9"/>
        <stop offset="0.159" stop-color="#DE77B5"/>
        <stop offset="0.56" stop-color="#DD74B3"/>
        <stop offset="0.797" stop-color="#D65FA3"/>
        <stop offset="1" stop-color="#C95195" stop-opacity="0.992"/>
        </linearGradient>
        <radialGradient id="paint10_radial_1_167" cx="0" cy="0" r="1" gradientUnits="userSpaceOnUse" gradientTransform="translate(39.4866 27.4315) rotate(20.482) scale(2.61021 5.68656)">
        <stop stop-color="#B94481" stop-opacity="0"/>
        <stop offset="0.644" stop-color="#B94481" stop-opacity="0.186"/>
        <stop offset="1" stop-color="#B94481"/>
        </radialGradient>
        <linearGradient id="paint11_linear_1_167" x1="40.0668" y1="15.0032" x2="47.3311" y2="16.8473" gradientUnits="userSpaceOnUse">
        <stop offset="0.195" stop-color="#974377"/>
        <stop offset="0.247" stop-color="#CC76AC"/>
        <stop offset="0.33" stop-color="#F5A3D4"/>
        <stop offset="0.39" stop-color="#FCA6DA"/>
        <stop offset="0.476" stop-color="#E980C1"/>
        <stop offset="0.62" stop-color="#A34D81"/>
        </linearGradient>
        <linearGradient id="paint12_linear_1_167" x1="39.861" y1="5.04869" x2="50.5526" y2="8.09102" gradientUnits="userSpaceOnUse">
        <stop offset="0.021" stop-color="#A65486"/>
        <stop offset="0.095" stop-color="#DB77B4"/>
        <stop offset="0.146" stop-color="#F188C8"/>
        <stop offset="0.255" stop-color="#FFADDF"/>
        <stop offset="0.372" stop-color="#FFADDF"/>
        <stop offset="0.576" stop-color="#EE84C5"/>
        <stop offset="0.747" stop-color="#DA6FB0"/>
        <stop offset="1" stop-color="#A63D7B"/>
        </linearGradient>
        <clipPath id="clip0_1_167">
        <rect width="50" height="50" fill="white"/>
        </clipPath>
        </defs>
    </g>

    <g id="material">
        <g clip-path="url(#clip0_1_208)">
        <path d="M0.078125 26.7969V5.23438L18.75 16.0156V23.2031L6.28906 16.0156V30.3906L0.078125 26.7969Z" fill="#1FA6CA"/>
        <path d="M18.75 16.0156L37.4609 5.23438V26.8359L25 33.9844L18.75 30.3906L31.25 23.2031V16.0156L18.75 23.2031V16.0156Z" fill="#1C7FB6"/>
        <path d="M18.75 30.3906V37.5781L31.25 44.7656V37.5781L18.75 30.3906Z" fill="#1FA6CA"/>
        <path d="M31.25 44.7656L49.9219 33.9844V19.6094L43.6719 23.2031V30.3906L31.25 37.5781V44.7656ZM43.7109 16.0156V8.82813L49.9609 5.23438V12.4219L43.7109 16.0156Z" fill="#1C7FB6"/>
        </g>
        <defs>
        <clipPath id="clip0_1_208">
        <rect width="50" height="50" fill="white"/>
        </clipPath>
        </defs>
    </g>

    <g id="bun">
        <g clip-path="url(#clip0_1_138)">
        <path d="M53.0594 25.0178C53.0594 36.3473 41.3221 45.5311 26.8419 45.5311C12.3618 45.5311 0.62439 36.2671 0.62439 25.0178C0.62439 17.9996 5.14187 11.7835 12.0391 8.09387C18.9363 4.40429 23.232 0.574341 26.8419 0.574341C30.4519 0.574341 33.5375 3.66236 41.6447 8.01367C48.542 11.7032 53.0594 17.9194 53.0594 25.0178Z" fill="#FBF0DF"/>
        <path d="M38.2365 30.8487C40.6535 30.8487 42.6128 29.6953 42.6128 28.2727C42.6128 26.85 40.6535 25.6967 38.2365 25.6967C35.8196 25.6967 33.8602 26.85 33.8602 28.2727C33.8602 29.6953 35.8196 30.8487 38.2365 30.8487Z" fill="#FEBBD0"/>
        <path d="M15.5683 30.8487C17.9853 30.8487 19.9446 29.6953 19.9446 28.2727C19.9446 26.85 17.9853 25.6967 15.5683 25.6967C13.1514 25.6967 11.192 26.85 11.192 28.2727C11.192 29.6953 13.1514 30.8487 15.5683 30.8487Z" fill="#FEBBD0"/>
        <path fill-rule="evenodd" clip-rule="evenodd" d="M17.6255 27.2464C18.4189 27.2462 19.1946 27.0124 19.8555 26.5744C20.5165 26.1365 21.0333 25.5137 21.3413 24.7841C21.6494 24.0544 21.7349 23.2504 21.5873 22.4724C21.4396 21.6945 21.0654 20.9774 20.5113 20.4107C19.9573 19.844 19.248 19.4529 18.4724 19.2864C17.6967 19.1199 16.8891 19.1854 16.1506 19.4747C15.412 19.764 14.7754 20.2642 14.3203 20.9127C13.8652 21.5612 13.6119 22.3293 13.592 23.1208C13.5917 24.1978 14.0134 25.2322 14.7671 26.003C15.5207 26.7739 16.5466 27.2201 17.6255 27.2464ZM36.1794 27.2464C36.9728 27.2462 37.7485 27.0124 38.4095 26.5744C39.0704 26.1365 39.5872 25.5137 39.8953 24.7841C40.2033 24.0544 40.2888 23.2504 40.1412 22.4724C39.9936 21.6945 39.6193 20.9774 39.0653 20.4107C38.5112 19.844 37.802 19.4529 37.0263 19.2864C36.2507 19.1199 35.443 19.1854 34.7045 19.4747C33.966 19.764 33.3293 20.2642 32.8742 20.9127C32.4191 21.5612 32.1658 22.3293 32.146 23.1208C32.1325 23.6578 32.2269 24.192 32.4236 24.692C32.6202 25.192 32.9152 25.6477 33.2911 26.0322C33.667 26.4166 34.1162 26.7222 34.6123 26.9307C35.1083 27.1392 35.6412 27.2466 36.1794 27.2464Z" fill="black"/>
        <path fill-rule="evenodd" clip-rule="evenodd" d="M16.3347 23.3824C16.6427 23.3864 16.9449 23.299 17.2029 23.1311C17.4609 22.9633 17.6631 22.7227 17.7837 22.4399C17.9043 22.1571 17.938 21.8449 17.8804 21.543C17.8227 21.2411 17.6765 20.9631 17.4601 20.7444C17.2438 20.5256 16.9671 20.3761 16.6653 20.3146C16.3636 20.2532 16.0503 20.2827 15.7654 20.3993C15.4805 20.516 15.2367 20.7146 15.0652 20.9698C14.8936 21.2251 14.802 21.5255 14.802 21.8328C14.7993 22.0354 14.837 22.2364 14.9128 22.4243C14.9887 22.6122 15.1011 22.7832 15.2437 22.9274C15.3863 23.0715 15.5562 23.186 15.7435 23.2641C15.9308 23.3422 16.1317 23.3825 16.3347 23.3824ZM34.8887 23.3824C35.1061 23.4073 35.3263 23.386 35.5349 23.32C35.7435 23.2539 35.9357 23.1447 36.0991 22.9993C36.2624 22.8539 36.393 22.6758 36.4825 22.4765C36.572 22.2772 36.6182 22.0613 36.6182 21.8429C36.6182 21.6245 36.572 21.4086 36.4825 21.2093C36.393 21.01 36.2624 20.8318 36.0991 20.6865C35.9357 20.5411 35.7435 20.4318 35.5349 20.3658C35.3263 20.2998 35.1061 20.2785 34.8887 20.3033C34.5099 20.3466 34.1603 20.5274 33.9065 20.8113C33.6527 21.0953 33.5125 21.4624 33.5125 21.8429C33.5125 22.2233 33.6527 22.5905 33.9065 22.8744C34.1603 23.1583 34.5099 23.3392 34.8887 23.3824Z" fill="white"/>
        <path d="M32.1257 30.3859C31.7887 31.764 31.0183 32.9982 29.9275 33.9078C29.1076 34.7019 28.0401 35.1919 26.9024 35.2964C25.7668 35.1842 24.7017 34.6952 23.8773 33.9078C22.7917 32.9972 22.0281 31.7625 21.6992 30.3859C21.6859 30.3054 21.6917 30.2229 21.7161 30.1451C21.7405 30.0672 21.7828 29.9961 21.8396 29.9374C21.8964 29.8787 21.9662 29.8342 22.0434 29.8072C22.1206 29.7803 22.203 29.7717 22.2841 29.7822H31.5207C31.6025 29.7725 31.6854 29.7814 31.7633 29.8083C31.8411 29.8352 31.9118 29.8794 31.97 29.9375C32.0283 29.9956 32.0726 30.0662 32.0995 30.1439C32.1265 30.2215 32.1354 30.3043 32.1257 30.3859Z" fill="#B71422" stroke="black" stroke-width="0.375"/>
        <path fill-rule="evenodd" clip-rule="evenodd" d="M24.6841 2.37187C24.6908 4.13264 24.3179 5.87425 23.5906 7.47851C22.8633 9.08277 21.7988 10.5121 20.4691 11.6696C20.2674 11.8507 20.4691 12.213 20.6909 12.1124C23.2119 11.1263 26.6201 8.20813 25.1883 2.29137C25.1277 1.9895 24.6841 2.07 24.6841 2.37187ZM26.3983 2.37187C27.3086 3.86604 27.8828 5.53967 28.0813 7.27705C28.2798 9.01443 28.0978 10.7741 27.5478 12.4344C27.5478 12.696 27.7898 12.9174 27.9713 12.696C29.6452 10.6835 31.0771 6.43713 26.7815 2.00963C26.5798 1.78825 26.237 2.09012 26.3983 2.35175V2.37187ZM28.415 2.25112C29.8478 3.27074 31.0447 4.58524 31.9249 6.10588C32.8051 7.62652 33.3482 9.31791 33.5174 11.0659C33.5174 11.3476 33.9409 11.408 34.0014 11.0659C34.6871 8.44962 34.3039 4.002 28.6369 1.68762C28.3949 1.64737 28.2133 2.04987 28.4554 2.231L28.415 2.25112ZM14.6206 10.0194C16.3272 9.51609 17.9081 8.65901 19.2599 7.50418C20.6118 6.34935 21.7042 4.92278 22.4657 3.31775C22.6068 3.05612 23.0303 3.15675 22.9698 3.45862C21.6791 9.49613 17.3432 10.6835 14.6407 10.5225C14.3584 10.5024 14.3584 10.0999 14.6206 10.0194Z" fill="#CCBEA7"/>
        </g>
        <defs>
        <clipPath id="clip0_1_138">
        <rect width="54" height="46" fill="white"/>
        </clipPath>
        </defs>
        </g>

    <g id="docker">
        <path fill-rule="evenodd" clip-rule="evenodd" d="M46.125 17.2338H53.1875V24.4353H56.75C58.375 24.4353 60.0625 24.1222 61.625 23.6212C62.375 23.3707 63.25 22.995 64 22.5566C63 21.2416 62.5 19.6134 62.375 17.9852C62.1875 15.7935 62.625 12.9128 64.125 11.222L64.875 10.3453L65.75 11.0342C68 12.8502 69.8125 15.2925 70.1875 18.1731C72.875 17.359 76 17.5469 78.375 18.9246L79.3125 19.4882L78.8125 20.4901C76.8125 24.3727 72.625 25.6251 68.5625 25.3746C62.4375 40.5918 49.1875 47.7933 33.0625 47.7933C24.75 47.7933 17.125 44.6622 12.75 37.2728L12.6875 37.1476L12.0625 35.8325C10.5625 32.5762 10.125 29.0067 10.4375 25.4373L10.5625 24.3727H16.5625V17.2338H23.625V10.2201H37.6875V3.1438H46.125V17.2338Z" fill="#3A4D54"/>
        <path d="M69 19.9266C69.5 16.2319 66.75 13.3513 65 11.9736C63.0625 14.228 62.75 20.2397 65.8125 22.7446C64.0625 24.2476 60.5 25.6879 56.75 25.6879H11.625C11.25 29.5704 11.9375 33.1399 13.5 36.2084L14 37.1477C14.3125 37.7113 14.6875 38.2123 15.0625 38.7759C16.9375 38.9011 18.625 38.9637 20.1875 38.9011C23.25 38.8385 25.75 38.4628 27.6875 37.8365C28 37.7113 28.25 37.8992 28.375 38.1497C28.5 38.4628 28.3125 38.7133 28.0625 38.8385C27.8125 38.9011 27.5625 39.0264 27.25 39.089C25.75 39.5273 24.125 39.7778 22.0625 39.9031H21.6875C20.875 39.9657 20 39.9657 19.0625 39.9657C18.0625 39.9657 17.125 39.9657 16 39.9031C19.75 44.1614 25.625 46.6663 33 46.6663C48.625 46.6663 61.875 39.7152 67.6875 24.1849C71.875 24.6233 75.875 23.5587 77.6875 19.9893C74.875 18.2985 71.125 18.8621 69 19.9266Z" fill="#00AADA"/>
        <path d="M68.9999 19.9266C69.4999 16.2319 66.7499 13.3513 64.9999 11.9736C63.0624 14.228 62.7499 20.2397 65.8124 22.7446C64.0624 24.2476 60.4999 25.6879 56.7499 25.6879H14.2499C14.0624 31.637 16.2499 36.1458 20.1874 38.8385C23.2499 38.7759 25.7499 38.4001 27.6874 37.7739C27.9999 37.6487 28.2499 37.8365 28.3749 38.087C28.4999 38.4001 28.3124 38.6506 28.0624 38.7759C27.8124 38.8385 27.5624 38.9637 27.2499 39.0264C25.7499 39.4647 23.9999 39.7778 21.9374 39.9031L21.8749 39.8405C27.1874 42.5958 34.8749 42.5332 43.7499 39.1516C53.6249 35.3317 62.8749 28.0675 69.3124 19.8014C69.1874 19.864 69.0624 19.864 68.9999 19.9266Z" fill="#28B8EB"/>
        <path d="M11.6876 30.3844C11.9376 32.4509 12.5626 34.3922 13.5001 36.2082L14.0001 37.1476C14.3126 37.7112 14.6876 38.2122 15.0626 38.7758C16.9376 38.901 18.6251 38.9636 20.1876 38.901C23.2501 38.8384 25.7501 38.4626 27.6876 37.8364C28.0001 37.7112 28.2501 37.899 28.3751 38.1495C28.5001 38.4626 28.3126 38.7131 28.0626 38.8384C27.8126 38.901 27.5626 39.0262 27.2501 39.0889C25.7501 39.5272 24.0001 39.8403 21.9376 39.9656H21.6876C20.8751 40.0282 20.0001 40.0282 19.1251 40.0282C18.1251 40.0282 17.1251 40.0282 16.0626 39.9656C19.8126 44.2239 25.7501 46.7288 33.1251 46.7288C46.5001 46.7288 58.1251 41.6564 64.8751 30.447H11.6876V30.3844Z" fill="#028BB8"/>
        <path d="M14.6875 30.3844C15.5 34.0165 17.375 36.8971 20.1875 38.8384C23.25 38.7758 25.75 38.4 27.6875 37.7738C28 37.6486 28.25 37.8364 28.375 38.0869C28.5 38.4 28.3125 38.6505 28.0625 38.7758C27.8125 38.8384 27.5625 38.9636 27.25 39.0262C25.75 39.4646 24 39.7777 21.875 39.903C27.1875 42.6583 34.875 42.5957 43.6875 39.2141C49 37.1476 54.1875 34.0791 58.8125 30.3844H14.6875Z" fill="#019BC6"/>
        <path fill-rule="evenodd" clip-rule="evenodd" d="M17.7499 18.4237H23.8749V24.5607H17.7499V18.4237ZM18.2499 18.9247H18.7499V23.9971H18.2499V18.9247ZM19.1249 18.9247H19.6249V23.9971H19.1249V18.9247ZM20.0624 18.9247H20.5624V23.9971H20.0624V18.9247ZM20.9999 18.9247H21.4999V23.9971H20.9999V18.9247ZM21.9374 18.9247H22.4374V23.9971H21.9374V18.9247ZM22.8749 18.9247H23.3749V23.9971H22.8749V18.9247ZM24.7499 11.41H30.8749V17.547H24.7499V11.41ZM25.3124 11.911H25.8124V16.9834H25.3124V11.911ZM26.1874 11.911H26.6874V16.9834H26.1874V11.911ZM27.1249 11.911H27.6249V16.9834H27.1249V11.911ZM28.0624 11.911H28.5624V16.9834H28.0624V11.911ZM28.9374 11.911H29.4374V16.9834H28.9374V11.911ZM29.8749 11.911H30.3749V16.9834H29.8749V11.911Z" fill="#00ACD3"/>
        <path fill-rule="evenodd" clip-rule="evenodd" d="M24.7501 18.4238H30.8751V24.5608H24.7501V18.4238ZM25.3126 18.9248H25.8126V23.9972H25.3126V18.9248ZM26.1876 18.9248H26.6876V23.9972H26.1876V18.9248ZM27.1251 18.9248H27.6251V23.9972H27.1251V18.9248ZM28.0626 18.9248H28.5626V23.9972H28.0626V18.9248ZM28.9376 18.9248H29.4376V23.9972H28.9376V18.9248ZM29.8751 18.9248H30.3751V23.9972H29.8751V18.9248Z" fill="#23C2EE"/>
        <path fill-rule="evenodd" clip-rule="evenodd" d="M31.8124 18.4238H37.9374V24.5608H31.8124V18.4238ZM32.3124 18.9248H32.8124V23.9972H32.3124V18.9248ZM33.2499 18.9248H33.7499V23.9972H33.2499V18.9248ZM34.1874 18.9248H34.6874V23.9972H34.1874V18.9248ZM35.0624 18.9248H35.5624V23.9972H35.0624V18.9248ZM35.9999 18.9248H36.4999V23.9972H35.9999V18.9248ZM36.9374 18.9248H37.4374V23.9972H36.9374V18.9248Z" fill="#00ACD3"/>
        <path fill-rule="evenodd" clip-rule="evenodd" d="M31.8124 11.41H37.9374V17.547H31.8124V11.41ZM32.3124 11.911H32.8124V16.9834H32.3124V11.911ZM33.2499 11.911H33.7499V16.9834H33.2499V11.911ZM34.1874 11.911H34.6874V16.9834H34.1874V11.911ZM35.0624 11.911H35.5624V16.9834H35.0624V11.911ZM35.9999 11.911H36.4999V16.9834H35.9999V11.911ZM36.9374 11.911H37.4374V16.9834H36.9374V11.911ZM38.8749 18.4237H44.9999V24.5607H38.8749V18.4237ZM39.3749 18.9247H39.8749V23.9971H39.3749V18.9247ZM40.3124 18.9247H40.8124V23.9971H40.3124V18.9247ZM41.1874 18.9247H41.6874V23.9971H41.1874V18.9247ZM42.1249 18.9247H42.6249V23.9971H42.1249V18.9247ZM43.0624 18.9247H43.5624V23.9971H43.0624V18.9247ZM43.9999 18.9247H44.4999V23.9971H43.9999V18.9247Z" fill="#23C2EE"/>
        <path fill-rule="evenodd" clip-rule="evenodd" d="M38.8751 11.41H45.0001V17.547H38.8751V11.41ZM39.3751 11.911H39.8751V16.9834H39.3751V11.911ZM40.3126 11.911H40.8126V16.9834H40.3126V11.911ZM41.1876 11.911H41.6876V16.9834H41.1876V11.911ZM42.1251 11.911H42.6251V16.9834H42.1251V11.911ZM43.0626 11.911H43.5626V16.9834H43.0626V11.911ZM44.0001 11.911H44.5001V16.9834H44.0001V11.911Z" fill="#00ACD3"/>
        <path fill-rule="evenodd" clip-rule="evenodd" d="M38.8751 4.33386H45.0001V10.4708H38.8751V4.33386ZM39.3751 4.83484H39.8751V9.90722H39.3751V4.83484ZM40.3126 4.83484H40.8126V9.90722H40.3126V4.83484ZM41.1876 4.83484H41.6876V9.90722H41.1876V4.83484ZM42.1251 4.83484H42.6251V9.90722H42.1251V4.83484ZM43.0626 4.83484H43.5626V9.90722H43.0626V4.83484ZM44.0001 4.83484H44.5001V9.90722H44.0001V4.83484Z" fill="#23C2EE"/>
        <path fill-rule="evenodd" clip-rule="evenodd" d="M45.9375 18.4238H52.0625V24.5608H45.9375V18.4238ZM46.4375 18.9248H46.9375V23.9972H46.4375V18.9248ZM47.3125 18.9248H47.8125V23.9972H47.3125V18.9248ZM48.25 18.9248H48.75V23.9972H48.25V18.9248ZM49.1875 18.9248H49.6875V23.9972H49.1875V18.9248ZM50.125 18.9248H50.625V23.9972H50.125V18.9248ZM51.0625 18.9248H51.5625V23.9972H51.0625V18.9248Z" fill="#00ACD3"/>
        <path fill-rule="evenodd" clip-rule="evenodd" d="M30.5001 34.4548C31.4376 34.4548 32.1876 35.2063 32.1876 36.1456C32.1876 37.085 31.4376 37.8364 30.5001 37.8364C29.5626 37.8364 28.8126 37.085 28.8126 36.1456C28.8126 35.2063 29.5626 34.4548 30.5001 34.4548Z" fill="#D4EEF1"/>
        <path fill-rule="evenodd" clip-rule="evenodd" d="M30.5001 34.9559C30.6251 34.9559 30.8126 34.9559 30.9376 35.0186C30.8126 35.0812 30.6876 35.269 30.6876 35.4569C30.6876 35.7074 30.9376 35.9579 31.1876 35.9579C31.3751 35.9579 31.5626 35.8326 31.6251 35.7074C31.6876 35.8326 31.6876 36.0205 31.6876 36.1458C31.6876 36.8346 31.1251 37.3356 30.5001 37.3356C29.8126 37.3356 29.3126 36.772 29.3126 36.1458C29.3126 35.5195 29.8126 34.9559 30.5001 34.9559ZM0.687561 31.0107H79.0626C77.3751 30.5724 73.6876 30.0088 74.2501 27.7544C71.1251 31.3239 63.6876 30.2593 61.7501 28.5059C59.6251 31.5743 47.3751 30.3845 46.5626 28.0049C43.9376 31.136 35.7501 31.136 33.1251 28.0049C32.2501 30.3845 20.0001 31.5743 17.9376 28.5059C16.0626 30.2593 8.56256 31.3239 5.43756 27.7544C6.12506 29.9462 2.37506 30.5724 0.687561 31.0107Z" fill="#3A4D54"/>
        <path d="M34.9999 46.6663C30.8124 44.6624 28.5624 41.9696 27.2499 39.0264C25.6874 39.4647 23.8124 39.7778 21.6874 39.9031C20.8749 39.9657 19.9999 39.9657 19.1249 39.9657C18.0624 39.9657 16.9999 39.9657 15.8749 39.9031C19.6249 43.6604 24.3749 46.6036 33.0624 46.6663H34.9999Z" fill="#BFDBE0"/>
        <path d="M28.8126 41.7191C28.2501 40.905 27.6876 39.9657 27.2501 39.0264C25.6876 39.4647 23.8126 39.7778 21.6876 39.9031C23.1251 40.6545 25.2501 41.406 28.8126 41.7191Z" fill="#D4EEF1"/>

    </g>
    <g id="zod">
        <g clip-path="url(#clip0_1_150)">
        <path d="M13.0659 3.04138H42.3444L50.9237 12.0779L26.6488 39.5081L4.07275 12.0779L13.0659 3.04138Z" fill="#18253F"/>
        <path d="M32.5332 33.0292H21.0575L15.8746 26.6277L30.5622 26.6273L30.5626 25.7191H38.9583L32.5332 33.0292Z" fill="#274D82"/>
        <path d="M48.4601 9.50073L16.796 27.9441L12.6654 22.7309L37.1789 8.4521L36.7286 7.66509L43.2579 3.86201L48.4601 9.50073ZM31.4952 3.05051L7.71928 16.8992L4.02161 12.2424L19.9405 2.97009L31.4952 3.05051Z" fill="#274D82"/>
        <g filter="url(#filter0_d_1_150)">
        <path d="M43.4887 0.327271H11.9518L0.429688 11.8919L26.5891 43.6725L28.6761 41.3099L54.5703 12.0007L43.4887 0.327271ZM42.3367 3.05007L50.8961 12.0668L26.6617 39.4981L4.08203 12.0668L13.0657 3.05007H42.3367Z" fill="black"/>
        </g>
        <path d="M43.4887 0.327271H11.9518L0.429688 11.8919L26.5891 43.6725L28.6761 41.3099L54.5703 12.0007L43.4887 0.327271ZM42.3367 3.05007L50.8961 12.0668L26.6617 39.4981L4.08203 12.0668L13.0657 3.05007H42.3367Z" fill="black"/>
        </g>
        <defs>
        <filter id="filter0_d_1_150" x="-2.57031" y="-2.67273" width="62.1406" height="51.3452" filterUnits="userSpaceOnUse" color-interpolation-filters="sRGB">
        <feFlood flood-opacity="0" result="BackgroundImageFix"/>
        <feColorMatrix in="SourceAlpha" type="matrix" values="0 0 0 0 0 0 0 0 0 0 0 0 0 0 0 0 0 0 127 0" result="hardAlpha"/>
        <feOffset dx="1" dy="1"/>
        <feGaussianBlur stdDeviation="2"/>
        <feColorMatrix type="matrix" values="0 0 0 0 0 0 0 0 0 0 0 0 0 0 0 0 0 0 0.36 0"/>
        <feBlend mode="normal" in2="BackgroundImageFix" result="effect1_dropShadow_1_150"/>
        <feBlend mode="normal" in="SourceGraphic" in2="effect1_dropShadow_1_150" result="shape"/>
        </filter>
        <clipPath id="clip0_1_150">
        <rect width="55" height="44" fill="white"/>
        </clipPath>
        </defs>
    </g>
   
    <g id="nodejs">
        <g clip-path="url(#clip0_114358_5026)">
        <path d="M44.4919 54.8413C44.1873 54.8413 43.9029 54.7604 43.6387 54.6187L40.9367 53.0195C40.5303 52.7967 40.7335 52.7158 40.8555 52.6753C41.404 52.4931 41.5056 52.4525 42.0744 52.1288C42.1354 52.0882 42.2168 52.1085 42.2776 52.1489L44.3499 53.3838C44.4311 53.4243 44.5327 53.4243 44.5935 53.3838L52.6997 48.7074C52.7809 48.6669 52.8217 48.5858 52.8217 48.4848V39.1523C52.8217 39.0509 52.7809 38.9701 52.6997 38.9295L44.5935 34.2734C44.5123 34.2328 44.4107 34.2328 44.3499 34.2734L36.2437 38.9295C36.1625 38.97 36.1217 39.0712 36.1217 39.1521V48.4846C36.1217 48.5657 36.1625 48.6668 36.2437 48.7074L38.4582 49.9827C39.6569 50.59 40.4085 49.8815 40.4085 49.173V39.9619C40.4085 39.8405 40.5101 39.7189 40.6523 39.7189H41.6884C41.8104 39.7189 41.9322 39.8202 41.9322 39.9619V49.173C41.9322 50.7722 41.0585 51.7035 39.5349 51.7035C39.0676 51.7035 38.702 51.7035 37.6658 51.1973L35.5327 49.9827C35.0045 49.6792 34.6794 49.1122 34.6794 48.5049V39.1724C34.6794 38.5652 35.0045 37.9982 35.5327 37.6946L43.6387 33.0182C44.1467 32.7348 44.8375 32.7348 45.3453 33.0182L53.4513 37.6946C53.9795 37.9982 54.3047 38.5652 54.3047 39.1724V48.5049C54.3047 49.1122 53.9795 49.6792 53.4513 49.9827L45.3453 54.6591C45.0811 54.7807 44.7763 54.8413 44.4919 54.8413ZM46.991 48.424C43.4358 48.424 42.7044 46.8045 42.7044 45.4279C42.7044 45.3063 42.806 45.185 42.9482 45.185H44.0046C44.1265 45.185 44.2281 45.2659 44.2281 45.3874C44.3907 46.4603 44.8579 46.9866 47.0114 46.9866C48.7179 46.9866 49.4495 46.602 49.4495 45.691C49.4495 45.1646 49.2461 44.7802 46.5848 44.5169C44.3703 44.2941 42.9888 43.8084 42.9888 42.0472C42.9888 40.4073 44.3704 39.4355 46.6864 39.4355C49.2867 39.4355 50.5667 40.3264 50.7293 42.2696C50.7293 42.3304 50.709 42.3912 50.6683 42.4519C50.6276 42.4924 50.5667 42.5329 50.5057 42.5329H49.4493C49.3477 42.5329 49.2461 42.4519 49.2259 42.3507C48.9821 41.2374 48.3522 40.8729 46.6864 40.8729C44.8173 40.8729 44.5937 41.5208 44.5937 42.0065C44.5937 42.5937 44.8579 42.7758 47.377 43.0997C49.8759 43.4237 51.0543 43.8893 51.0543 45.6302C51.034 47.4118 49.5713 48.424 46.991 48.424Z" fill="#539E43"/>
        <path d="M19.3408 18.3413C19.3408 17.977 19.1376 17.6326 18.8126 17.4505L10.1986 12.511C10.0562 12.4299 9.89377 12.3894 9.73135 12.3691H9.64996C9.48754 12.3691 9.32494 12.4299 9.18274 12.511L0.56875 17.4505C0.243555 17.6326 0.0405273 17.9768 0.0405273 18.3413L0.060918 31.6214C0.060918 31.8035 0.16252 31.9857 0.324941 32.0668C0.487539 32.168 0.690566 32.168 0.832949 32.0668L5.95258 29.1516C6.2776 28.9695 6.4808 28.6253 6.4808 28.2609V22.0459C6.4808 21.6816 6.68383 21.3374 7.00902 21.1553L9.18274 19.9001C9.34533 19.7988 9.52815 19.7582 9.71096 19.7582C9.89377 19.7582 10.0766 19.7988 10.219 19.9001L12.3927 21.1553C12.7179 21.3374 12.9209 21.6814 12.9209 22.0459V28.2609C12.9209 28.6253 13.1241 28.9695 13.4491 29.1516L18.5688 32.0668C18.6478 32.1164 18.7394 32.1427 18.8329 32.1427C18.9263 32.1427 19.0179 32.1164 19.097 32.0668C19.2596 31.9857 19.3612 31.8035 19.3612 31.6214L19.3408 18.3413ZM60.7448 0.060824C60.5824 -0.0202747 60.3792 -0.0202747 60.2368 0.060824C60.0744 0.162066 59.9728 0.323913 59.9728 0.506079V13.6649C59.9728 13.7863 59.912 13.9077 59.79 13.9888C59.6681 14.0494 59.5462 14.0494 59.4244 13.9888L57.2709 12.7539C57.113 12.6644 56.9344 12.6173 56.7528 12.6173C56.5711 12.6173 56.3925 12.6644 56.2346 12.7539L47.6207 17.7137C47.2956 17.8959 47.0924 18.2401 47.0924 18.6044V28.5037C47.0924 28.868 47.2956 29.2124 47.6207 29.3946L56.2346 34.3544C56.3925 34.4439 56.5711 34.491 56.7528 34.491C56.9344 34.491 57.113 34.4439 57.2709 34.3544L65.8849 29.3946C66.2099 29.2124 66.4131 28.8682 66.4131 28.5037V3.82622C66.4131 3.44157 66.2099 3.09756 65.8849 2.91522L60.7448 0.060824ZM59.9526 25.2445C59.9526 25.3458 59.912 25.4267 59.8306 25.4671L56.8849 27.1676C56.8437 27.1876 56.7985 27.1981 56.7528 27.1981C56.707 27.1981 56.6618 27.1876 56.6207 27.1676L53.6749 25.4671C53.5935 25.4267 53.5529 25.3254 53.5529 25.2445V21.8435C53.5529 21.7422 53.5935 21.6613 53.6749 21.6208L56.6207 19.9202C56.6618 19.9002 56.707 19.8897 56.7528 19.8897C56.7985 19.8897 56.8437 19.9002 56.8849 19.9202L59.8306 21.6208C59.912 21.6611 59.9526 21.7625 59.9526 21.8435V25.2445ZM89.4107 21.7625C89.7359 21.5804 89.9187 21.2362 89.9187 20.8717V18.4627C89.9187 18.0984 89.7155 17.7542 89.4107 17.572L80.8577 12.6325C80.6998 12.543 80.5213 12.4959 80.3396 12.4959C80.1579 12.4959 79.9794 12.543 79.8215 12.6325L71.2075 17.5922C70.8823 17.7743 70.6793 18.1185 70.6793 18.4828V28.3823C70.6793 28.7467 70.8825 29.0908 71.2075 29.273L79.7605 34.1316C80.0857 34.3137 80.4717 34.3137 80.7765 34.1316L85.957 31.2572C86.1196 31.1761 86.2212 30.9939 86.2212 30.8118C86.2212 30.6296 86.1196 30.4474 85.957 30.3663L77.3024 25.4065C77.1398 25.3053 77.0382 25.1434 77.0382 24.9613V21.8639C77.0382 21.6818 77.1398 21.4996 77.3024 21.4185L80.0043 19.8799C80.0834 19.8303 80.175 19.804 80.2684 19.804C80.3619 19.804 80.4534 19.8303 80.5325 19.8799L83.2346 21.4185C83.3972 21.5198 83.4987 21.6816 83.4987 21.8639V24.2932C83.4987 24.4754 83.6003 24.6576 83.7629 24.7385C83.842 24.7881 83.9335 24.8144 84.027 24.8144C84.1204 24.8144 84.212 24.7881 84.2911 24.7385L89.4107 21.7625Z" fill="#333333"/>
        <path d="M80.2075 21.2967C80.2377 21.2769 80.273 21.2664 80.3091 21.2664C80.3453 21.2664 80.3806 21.2769 80.4107 21.2967L82.0564 22.2482C82.1172 22.2888 82.1578 22.3494 82.1578 22.4304V24.3335C82.1578 24.4144 82.1174 24.4752 82.0564 24.5156L80.4107 25.4671C80.3806 25.4869 80.3453 25.4975 80.3091 25.4975C80.273 25.4975 80.2377 25.4869 80.2075 25.4671L78.5621 24.5156C78.5011 24.4752 78.4604 24.4144 78.4604 24.3335V22.4305C78.4604 22.3494 78.5009 22.2887 78.5621 22.2484L80.2075 21.2967Z" fill="#539E43"/>
        <path d="M33.7448 12.6729C33.5869 12.5834 33.4084 12.5364 33.2267 12.5364C33.0451 12.5364 32.8666 12.5834 32.7087 12.6729L24.1557 17.5919C23.8305 17.7741 23.6477 18.1183 23.6477 18.4826V28.3416C23.6477 28.706 23.8509 29.0501 24.1557 29.2323L32.7087 34.1517C32.8666 34.2411 33.0451 34.2882 33.2267 34.2882C33.4084 34.2882 33.5869 34.2411 33.7448 34.1517L42.2979 29.2323C42.6229 29.0501 42.8059 28.706 42.8059 28.3416V18.4828C42.8059 18.1185 42.6025 17.7743 42.2979 17.5921L33.7448 12.6729Z" fill="url(#paint0_linear_114358_5026)"/>
        <mask id="mask0_114358_5026" style="mask-type:luminance" maskUnits="userSpaceOnUse" x="23" y="12" width="20" height="23">
        <path d="M33.7448 12.6729C33.5869 12.5834 33.4084 12.5364 33.2267 12.5364C33.0451 12.5364 32.8666 12.5834 32.7087 12.6729L24.1557 17.5919C23.8305 17.7741 23.6477 18.1183 23.6477 18.4826V28.3416C23.6477 28.706 23.8509 29.0501 24.1557 29.2323L32.7087 34.1517C32.8666 34.2411 33.0451 34.2882 33.2267 34.2882C33.4084 34.2882 33.5869 34.2411 33.7448 34.1517L42.2979 29.2323C42.6229 29.0501 42.8059 28.706 42.8059 28.3416V18.4828C42.8059 18.1185 42.6025 17.7743 42.2979 17.5921L33.7448 12.6729Z" fill="white"/>
        </mask>
        <g mask="url(#mask0_114358_5026)">
        <path d="M42.3179 17.5922L33.7243 12.673C33.6399 12.6305 33.5514 12.5966 33.4601 12.5718L23.8303 29.0101C23.9101 29.1071 24.0065 29.1894 24.1149 29.2531L32.7085 34.1724C32.9523 34.3141 33.2367 34.3546 33.5008 34.2735L42.5415 17.7949C42.4805 17.7139 42.3992 17.6528 42.3179 17.5922Z" fill="url(#paint1_linear_114358_5026)"/>
        </g>
        <mask id="mask1_114358_5026" style="mask-type:luminance" maskUnits="userSpaceOnUse" x="23" y="12" width="20" height="23">
        <path d="M33.7448 12.6729C33.5869 12.5834 33.4084 12.5364 33.2267 12.5364C33.0451 12.5364 32.8666 12.5834 32.7087 12.6729L24.1557 17.5919C23.8305 17.7741 23.6477 18.1183 23.6477 18.4826V28.3416C23.6477 28.706 23.8509 29.0501 24.1557 29.2323L32.7087 34.1517C32.8666 34.2411 33.0451 34.2882 33.2267 34.2882C33.4084 34.2882 33.5869 34.2411 33.7448 34.1517L42.2979 29.2323C42.6229 29.0501 42.8059 28.706 42.8059 28.3416V18.4828C42.8059 18.1185 42.6025 17.7743 42.2979 17.5921L33.7448 12.6729Z" fill="white"/>
        </mask>
        <g mask="url(#mask1_114358_5026)">
        <path fill-rule="evenodd" clip-rule="evenodd" d="M42.3385 29.2325C42.5823 29.0908 42.7651 28.8478 42.8465 28.5848L33.4195 12.5514C33.1757 12.5109 32.9115 12.5311 32.6883 12.6728L24.1555 17.572L33.3585 34.2935C33.4924 34.2718 33.6224 34.231 33.7446 34.1722L42.3385 29.2325Z" fill="url(#paint2_linear_114358_5026)"/>
        <path fill-rule="evenodd" clip-rule="evenodd" d="M42.3385 29.2325L33.7652 34.1519C33.6441 34.2133 33.5137 34.2543 33.3792 34.2732L33.5417 34.577L43.0496 29.091V28.9694L42.8058 28.5645C42.7652 28.8479 42.5824 29.0908 42.3385 29.2325Z" fill="url(#paint3_linear_114358_5026)"/>
        <path fill-rule="evenodd" clip-rule="evenodd" d="M42.3385 29.2325L33.7652 34.1519C33.6441 34.2133 33.5137 34.2543 33.3792 34.2732L33.5417 34.577L43.0496 29.091V28.9694L42.8058 28.5645C42.7652 28.8479 42.5824 29.0908 42.3385 29.2325Z" fill="url(#paint4_linear_114358_5026)"/>
        </g>
        </g>
        <defs>
        <linearGradient id="paint0_linear_114358_5026" x1="1330.01" y1="392.911" x2="397.251" y2="1863.76" gradientUnits="userSpaceOnUse">
        <stop stop-color="#41873F"/>
        <stop offset="0.3288" stop-color="#418B3D"/>
        <stop offset="0.6352" stop-color="#419637"/>
        <stop offset="0.9319" stop-color="#3FA92D"/>
        <stop offset="1" stop-color="#3FAE2A"/>
        </linearGradient>
        <linearGradient id="paint1_linear_114358_5026" x1="833.595" y1="1212.12" x2="3177.69" y2="-65.9658" gradientUnits="userSpaceOnUse">
        <stop offset="0.1376" stop-color="#41873F"/>
        <stop offset="0.4032" stop-color="#54A044"/>
        <stop offset="0.7136" stop-color="#66B848"/>
        <stop offset="0.9081" stop-color="#6CC04A"/>
        </linearGradient>
        <linearGradient id="paint2_linear_114358_5026" x1="-57.8793" y1="1100.5" x2="1921.27" y2="1100.5" gradientUnits="userSpaceOnUse">
        <stop offset="0.09192" stop-color="#6CC04A"/>
        <stop offset="0.2864" stop-color="#66B848"/>
        <stop offset="0.5968" stop-color="#54A044"/>
        <stop offset="0.8624" stop-color="#41873F"/>
        </linearGradient>
        <linearGradient id="paint3_linear_114358_5026" x1="-971.001" y1="330.844" x2="1008.13" y2="330.844" gradientUnits="userSpaceOnUse">
        <stop offset="0.09192" stop-color="#6CC04A"/>
        <stop offset="0.2864" stop-color="#66B848"/>
        <stop offset="0.5968" stop-color="#54A044"/>
        <stop offset="0.8624" stop-color="#41873F"/>
        </linearGradient>
        <linearGradient id="paint4_linear_114358_5026" x1="1296.46" y1="-1240.49" x2="798.491" y2="1378.14" gradientUnits="userSpaceOnUse">
        <stop stop-color="#41873F"/>
        <stop offset="0.3288" stop-color="#418B3D"/>
        <stop offset="0.6352" stop-color="#419637"/>
        <stop offset="0.9319" stop-color="#3FA92D"/>
        <stop offset="1" stop-color="#3FAE2A"/>
        </linearGradient>
        <clipPath id="clip0_114358_5026">
        <rect width="90" height="55" fill="white"/>
        </clipPath>
        </defs>
    </g> 


    <!-- MINI -->

    <g id="minjs">
      <path d="M0 0H20V20H0V0Z" fill="#F5DE19"/>
        <path d="M13.435 15.6251C13.6054 15.9712 13.8702 16.2622 14.1988 16.4644C14.5274 16.6666 14.9064 16.7718 15.2922 16.768C16.0707 16.768 16.5686 16.3787 16.5686 15.8394C16.5686 15.1965 16.0572 14.9665 15.2 14.5915L14.73 14.3901C13.3729 13.8122 12.4729 13.0887 12.4729 11.5587C12.4729 10.1494 13.5443 9.07582 15.225 9.07582C15.7691 9.03653 16.3127 9.1583 16.788 9.42594C17.2634 9.69358 17.6494 10.0952 17.8979 10.5808L16.4286 11.5201C16.3329 11.2793 16.1663 11.0733 15.9508 10.9294C15.7354 10.7856 15.4812 10.7106 15.2222 10.7144C15.1091 10.7031 14.995 10.7154 14.887 10.7507C14.779 10.7859 14.6796 10.8432 14.595 10.919C14.5104 10.9948 14.4425 11.0874 14.3956 11.1909C14.3488 11.2944 14.324 11.4065 14.3229 11.5201C14.3229 12.0837 14.6722 12.3122 15.4786 12.663L15.9486 12.8644C17.5457 13.5494 18.4486 14.2472 18.4486 15.8165C18.4486 17.5087 17.1193 18.4358 15.3343 18.4358C14.6388 18.4801 13.9454 18.3222 13.3376 17.9812C12.7299 17.6401 12.2338 17.1304 11.9093 16.5137L13.435 15.6251ZM6.79575 15.788C7.09075 16.3115 7.35932 16.7544 8.00503 16.7544C8.62218 16.7544 9.01218 16.513 9.01218 15.5737V9.18296H10.8915V15.5987C10.8915 17.5444 9.7486 18.4301 8.08503 18.4301C7.497 18.4622 6.913 18.3157 6.40981 18.0097C5.90662 17.7038 5.50779 17.2527 5.26575 16.7158L6.79575 15.788Z" fill="black"/>
    </g>
    <g id="minreact">
        <path d="M16.444 6.15828C16.2311 6.08031 16.0165 6.00807 15.8002 5.94164C15.8366 5.78315 15.87 5.62657 15.8997 5.47275C16.387 2.94675 16.0684 0.911751 14.9802 0.241733C13.9369 -0.400591 12.2305 0.269177 10.5073 1.87057C10.3374 2.02867 10.1714 2.19133 10.0092 2.3584C9.90067 2.24731 9.79021 2.13837 9.67789 2.03165C7.8718 0.319396 6.06148 -0.402259 4.97445 0.269678C3.93203 0.914004 3.62336 2.82704 4.06211 5.22099C4.10576 5.45809 4.15505 5.69396 4.20992 5.92838C3.95367 6.00613 3.70641 6.08888 3.46977 6.17697C1.35227 6.96527 0 8.20062 0 9.48202C0 10.8055 1.45172 12.1329 3.65719 12.9378C3.83599 13.0028 4.01628 13.063 4.19789 13.1184C4.13891 13.3709 4.08654 13.6251 4.04086 13.8807C3.62258 16.2331 3.94922 18.1009 4.98883 18.7412C6.06258 19.4023 7.86477 18.7228 9.61953 17.0849C9.76182 16.9517 9.90098 16.8148 10.0369 16.6742C10.2125 16.8551 10.3927 17.0307 10.5775 17.2009C12.2773 18.7627 13.9561 19.3933 14.9947 18.7513C16.0674 18.0882 16.4161 16.0817 15.9634 13.6404C15.9278 13.4492 15.8878 13.2589 15.8435 13.0697C15.9701 13.0296 16.0943 12.9884 16.2154 12.9456C18.5082 12.1345 20 10.8231 20 9.48202C20 8.19595 18.6041 6.95226 16.444 6.15828V6.15828ZM15.9467 12.0797C15.8373 12.1183 15.7252 12.1556 15.6108 12.1919C15.3577 11.3362 15.0161 10.4265 14.598 9.48644C14.997 8.56883 15.3254 7.67066 15.5714 6.82063C15.776 6.88386 15.9745 6.95051 16.1659 7.02083C18.0167 7.70119 19.1456 8.70697 19.1456 9.48202C19.1456 10.3075 17.9264 11.3792 15.9467 12.0797V12.0797ZM15.1253 13.8176C15.3255 14.8971 15.354 15.8731 15.2214 16.6361C15.1023 17.3217 14.8628 17.7788 14.5666 17.9619C13.9363 18.3514 12.5884 17.8451 11.1348 16.5094C10.9629 16.3512 10.7952 16.1879 10.6319 16.0197C11.1955 15.3616 11.7587 14.5966 12.3084 13.7469C13.2752 13.6553 14.1887 13.5055 15.017 13.301C15.0569 13.4723 15.093 13.6445 15.1253 13.8176V13.8176ZM6.81844 17.8945C6.20266 18.1267 5.71219 18.1334 5.4157 17.9508C4.78484 17.5624 4.52258 16.0626 4.88031 14.0509C4.92284 13.8131 4.97153 13.5767 5.02633 13.3419C5.84555 13.5354 6.75234 13.6746 7.72148 13.7585C8.27492 14.5899 8.85437 15.3541 9.43836 16.0233C9.31425 16.1515 9.18721 16.2765 9.05734 16.398C8.28133 17.1222 7.50375 17.6361 6.81844 17.8945V17.8945ZM3.93359 12.0746C2.95836 11.7186 2.15297 11.2561 1.60094 10.7513C1.10484 10.2978 0.854453 9.84739 0.854453 9.48202C0.854453 8.70439 1.94016 7.71254 3.75102 7.03843C3.97078 6.95668 4.20078 6.87952 4.43945 6.80711C4.68977 7.67634 5.01805 8.58518 5.41422 9.50421C5.01289 10.4368 4.67992 11.3602 4.42719 12.2397C4.26141 12.189 4.09683 12.1339 3.93359 12.0746V12.0746ZM4.90062 5.04573C4.52477 2.99471 4.77437 1.44755 5.40258 1.05924C6.07164 0.645646 7.55117 1.23533 9.11062 2.71384C9.21231 2.81047 9.31236 2.90906 9.4107 3.00956C8.82961 3.67583 8.25547 4.43435 7.70695 5.26087C6.76633 5.35396 5.86594 5.50345 5.03812 5.70374C4.98712 5.4857 4.94127 5.26632 4.90062 5.04581V5.04573ZM13.5277 7.32039C13.3322 6.95976 13.1294 6.60368 12.9195 6.25238C13.5577 6.33855 14.1691 6.45292 14.7432 6.59273C14.5709 7.18266 14.356 7.79938 14.1031 8.43169C13.9183 8.0572 13.7264 7.6867 13.5277 7.32039V7.32039ZM10.0096 3.66156C10.4037 4.11745 10.7984 4.62638 11.1866 5.17861C10.3991 5.1389 9.61025 5.13874 8.82273 5.17811C9.21133 4.63097 9.60938 4.1227 10.0096 3.66156ZM6.46891 7.32664C6.27268 7.69 6.08443 8.0582 5.9043 8.43094C5.65555 7.80088 5.44266 7.18133 5.26883 6.58305C5.83945 6.44674 6.44797 6.3353 7.08203 6.25071C6.8698 6.60415 6.66537 6.96287 6.46891 7.32656V7.32664ZM7.10023 12.7782C6.44516 12.7001 5.8275 12.5945 5.25703 12.4618C5.43359 11.8529 5.65117 11.2201 5.90531 10.5766C6.08616 10.9496 6.2752 11.318 6.47227 11.6815C6.67492 12.0552 6.88477 12.4213 7.10023 12.7782ZM10.0332 15.3667C9.6282 14.9002 9.2243 14.3841 8.82984 13.829C9.21281 13.8451 9.6032 13.8532 10 13.8532C10.4077 13.8532 10.8106 13.8435 11.2073 13.8246C10.8178 14.3897 10.4246 14.9066 10.0332 15.3667ZM14.1112 10.5437C14.3785 11.1943 14.6038 11.8237 14.7827 12.4223C14.2029 12.5636 13.5768 12.6774 12.9171 12.7619C13.1285 12.404 13.3332 12.0418 13.5311 11.6753C13.7323 11.3027 13.9257 10.9254 14.1112 10.5437V10.5437ZM12.791 11.2195C12.4881 11.7814 12.1681 12.3327 11.8316 12.8724C11.222 12.9185 10.6111 12.9414 10 12.9411C9.37758 12.9411 8.77219 12.9204 8.18922 12.88C7.84392 12.3415 7.51783 11.7893 7.21164 11.2245H7.21172C6.90697 10.6626 6.62231 10.0887 6.35836 9.50379C6.62164 8.91876 6.90543 8.34452 7.20914 7.78228L7.20906 7.78236C7.51266 7.21997 7.83614 6.6701 8.17883 6.13392C8.77359 6.08588 9.38352 6.06085 9.99992 6.06085H10C10.6192 6.06085 11.2299 6.08613 11.8245 6.13451C12.1638 6.66988 12.4852 7.21786 12.7882 7.77744C13.0929 8.33844 13.3805 8.90989 13.6504 9.49086C13.3832 10.0778 13.0966 10.6543 12.791 11.2195V11.2195ZM14.5535 1.03204C15.2232 1.44446 15.4837 3.10758 15.0629 5.28856C15.036 5.4277 15.0059 5.56943 14.973 5.71316C14.1432 5.50862 13.2422 5.35655 12.2988 5.26203C11.7493 4.42643 11.1798 3.66674 10.6082 3.00906C10.758 2.85486 10.9114 2.70466 11.0682 2.5586C12.5448 1.18662 13.9248 0.644895 14.5535 1.03204V1.03204ZM10 7.57506C10.9863 7.57506 11.7859 8.42885 11.7859 9.48202C11.7859 10.5352 10.9863 11.389 10 11.389C9.01367 11.389 8.21406 10.5352 8.21406 9.48202C8.21406 8.42885 9.01367 7.57506 10 7.57506V7.57506Z" fill="#00D8FF"/>

    </g>
    <g id="minredux">
        <path d="M13.8579 13.9678C14.5959 13.8874 15.1559 13.2172 15.1304 12.4128C15.105 11.6086 14.4687 10.9651 13.7052 10.9651H13.6543C12.8652 10.992 12.2545 11.689 12.2799 12.5201C12.3054 12.9222 12.458 13.2707 12.6871 13.512C11.8218 15.3083 10.4984 16.622 8.5132 17.7211C7.1643 18.4718 5.76453 18.7399 4.36476 18.5523C3.21945 18.3914 2.32867 17.8553 1.76867 16.9705C0.954296 15.6568 0.877968 14.2359 1.56516 12.815C2.04875 11.7962 2.81219 11.0455 3.29578 10.6702C3.19398 10.3217 3.04125 9.73189 2.96492 9.30298C-0.72547 12.118 -0.343673 15.9249 0.776171 17.7211C1.61601 19.0617 3.32125 19.8928 5.20461 19.8928C5.71359 19.8928 6.22258 19.8391 6.73164 19.7051C9.98937 19.0349 12.4581 16.9973 13.8579 13.9678V13.9678ZM18.3373 10.6434C16.403 8.25736 13.5525 6.94372 10.2948 6.94372H9.88758C9.65851 6.46115 9.17492 6.13939 8.64047 6.13939H8.58953C7.80062 6.16622 7.18984 6.86324 7.21523 7.6944C7.2407 8.49865 7.87695 9.1421 8.64047 9.1421H8.69133C9.25125 9.11527 9.73484 8.73993 9.93844 8.23054H10.3966C12.3309 8.23054 14.1633 8.82033 15.8177 9.97317C17.0902 10.8579 18.0064 12.0107 18.5154 13.4048C18.948 14.5308 18.9226 15.63 18.4645 16.5684C17.7519 17.9893 16.5557 18.7668 14.9777 18.7668C13.9597 18.7668 12.9926 18.445 12.4835 18.2037C12.2036 18.4718 11.6945 18.9007 11.3382 19.1689C12.4327 19.7051 13.5525 20 14.6214 20C17.0647 20 18.8717 18.579 19.5589 17.1582C20.297 15.6032 20.246 12.9222 18.3373 10.6434V10.6434ZM5.4082 14.4235C5.43367 15.2278 6.06992 15.8712 6.83344 15.8712H6.88437C7.67336 15.8444 8.28414 15.1473 8.25867 14.3163C8.23328 13.5119 7.59695 12.8686 6.83344 12.8686H6.78258C6.73164 12.8686 6.65523 12.8686 6.60445 12.8953C5.56094 11.0723 5.12828 9.08844 5.28101 6.94364C5.38273 5.33506 5.8918 3.94093 6.78258 2.78809C7.52062 1.79613 8.94586 1.31356 9.91304 1.28682C12.6108 1.23316 13.756 4.77201 13.8324 6.19296C14.1633 6.27336 14.7232 6.46107 15.105 6.59513C14.7995 2.25203 12.2545 0 9.81125 0C7.52062 0 5.4082 1.74264 4.56828 4.31635C3.39758 7.74797 4.16109 11.0455 5.58633 13.6461C5.45914 13.8337 5.38273 14.1286 5.4082 14.4236V14.4235Z" fill="#764ABC"/>
    </g>


<!-- CONTACTS -->

    <g id="location">
        <path fill-rule="evenodd" clip-rule="evenodd" d="M14.0054 21C17.7333 21 20.7554 17.9778 20.7554 14.25C20.7554 10.5221 17.7333 7.5 14.0054 7.5C10.2775 7.5 7.25537 10.5221 7.25537 14.25C7.25537 17.9778 10.2775 21 14.0054 21ZM14.0054 18.0054C11.9313 18.0054 10.25 16.3241 10.25 14.25C10.25 12.176 11.9313 10.4946 14.0054 10.4946C16.0794 10.4946 17.7608 12.176 17.7608 14.25C17.7608 16.3241 16.0794 18.0054 14.0054 18.0054Z" fill="#6190E8"/>
        <path fill-rule="evenodd" clip-rule="evenodd" d="M27.908 17.3674C29.8474 8.67693 23.0078 0 14 0C4.99475 0 -1.8454 8.68884 0.0922551 17.3684C1.58786 24.4178 7.63582 31.2644 11.2454 34.835C12.7913 36.3641 15.2087 36.3641 16.7546 34.835C20.3644 31.2643 26.4128 24.4171 27.908 17.3674ZM14 3C21.0686 3 26.5052 9.87941 24.98 16.714C24.2474 19.9979 22.6039 22.9469 20.6752 25.6732C18.6596 28.5223 16.3744 30.9913 14.6449 32.7022C14.2679 33.0751 13.7321 33.0751 13.3552 32.7022C11.6257 30.9914 9.3407 28.5226 7.32515 25.6736C5.3963 22.9472 3.75331 19.9988 3.02018 16.7147C1.49659 9.88992 6.9352 3 14 3Z" fill="#6190E8"/>
    </g>
    <g id="email">
        <path fill-rule="evenodd" clip-rule="evenodd" d="M31.0909 0C33.8022 0 36 2.26657 36 5.0625V21.9375C36 24.7335 33.8022 27 31.0909 27H4.90909C2.19788 27 0 24.7335 0 21.9375V5.0625C0 2.26657 2.19788 0 4.90909 0H31.0909ZM29.8684 3.375H6.13175L16.9861 12.2119C17.5806 12.6961 18.4194 12.6961 19.0141 12.2119L29.8684 3.375ZM3.27273 5.34735V21.9375C3.27273 22.8695 4.00536 23.625 4.90909 23.625H31.0909C31.9947 23.625 32.7273 22.8695 32.7273 21.9375V5.34738L21.0418 14.861C19.2584 16.3131 16.7416 16.3131 14.9582 14.861L3.27273 5.34735Z" fill="#6190E8"/>
    </g>
    <g id="phone">
        <path fill-rule="evenodd" clip-rule="evenodd" d="M0 18.3278C0 26.2087 2.82638 32.0548 4.40613 34.7098C5.31399 36.2357 7.02946 36.8627 8.6181 36.5959L12.7828 35.8968C15.2196 35.4878 16.8526 33.149 16.4107 30.7007L15.7309 26.9348C15.4423 25.3363 13.933 24.2671 12.3419 24.5344L10.2513 24.8853C9.7298 23.9882 8.85403 21.9497 8.85403 18.3278C8.85403 14.706 9.7298 12.6674 10.2513 11.7704L12.3419 12.1213C13.933 12.3884 15.4423 11.3194 15.7309 9.72083L16.4107 5.95494C16.8526 3.50674 15.2196 1.16791 12.7828 0.758834L8.6181 0.0596766C7.02944 -0.207015 5.31399 0.419902 4.40613 1.94574C2.82638 4.60086 0 10.447 0 18.3278ZM6.93767 33.1818C5.52632 30.8097 2.95134 25.4944 2.95134 18.3278C2.95134 11.1612 5.52632 5.84599 6.93767 3.4739C7.14395 3.12721 7.58368 2.89977 8.13291 2.99196L12.2976 3.69112C13.1099 3.82748 13.6542 4.6071 13.5069 5.42317L12.8271 9.18904L10.5835 8.8124C9.66665 8.65846 8.54061 8.94756 7.89545 9.95497C7.09023 11.2123 5.90269 13.8398 5.90269 18.3278C5.90269 22.8159 7.09023 25.4433 7.89545 26.7007C8.54061 27.7081 9.66665 27.9972 10.5835 27.8432L12.8271 27.4667L13.5069 31.2326C13.6542 32.0486 13.1099 32.8282 12.2976 32.9645L8.13291 33.6637C7.58368 33.756 7.14395 33.5285 6.93767 33.1818Z" fill="#6190E8"/>
        <path d="M33.2891 3.33228C32.2691 3.33228 31.4979 4.27284 31.6698 5.28912C32.1539 8.152 32.9659 13.6502 32.9659 18.3277C32.9659 23.0053 32.1539 28.5035 31.6698 31.3665C31.4979 32.3827 32.2691 33.3232 33.2891 33.3232C34.0595 33.3232 34.721 32.7767 34.8555 32.0099C35.3133 29.4021 36.2624 23.3852 36.2624 18.3277C36.2624 13.2704 35.3133 7.25355 34.8555 4.64561C34.721 3.87879 34.0595 3.33228 33.2891 3.33228Z" fill="#6190E8"/>
        <path d="M25.3783 8.91575C25.1207 7.82107 25.9354 6.66479 27.0487 6.66479C27.6447 6.66479 28.1817 7.00731 28.3676 7.57974C28.8511 9.06917 29.6694 12.4576 29.6694 18.3279C29.6694 24.1983 28.8511 27.5868 28.3676 29.0762C28.1817 29.6487 27.6447 29.9911 27.0487 29.9911C25.9354 29.9911 25.1207 28.8349 25.3783 27.7402C25.8385 25.7855 26.3729 22.5968 26.3729 18.3279C26.3729 14.0591 25.8385 10.8704 25.3783 8.91575Z" fill="#6190E8"/>
        <path d="M20.7558 9.99707C19.5499 9.99707 18.6925 11.3162 19.0116 12.4917C19.4041 13.9371 19.7794 15.9427 19.7794 18.3278C19.7794 20.713 19.4041 22.7187 19.0116 24.1641C18.6925 25.3396 19.5499 26.6587 20.7558 26.6587C21.186 26.6587 21.5948 26.4786 21.7965 26.0945C22.2825 25.17 23.0759 22.952 23.0759 18.3278C23.0759 13.7038 22.2825 11.4859 21.7965 10.5613C21.5948 10.1772 21.186 9.99707 20.7558 9.99707Z" fill="#6190E8"/>
    </g>

<!-- SOCIALS -->

    <g id="github">
        <path d="M5.07665 4.03258C5.19149 2.00115 5.67675 1.11777 7.06834 0.408391C8.56567 -0.355127 10.9273 0.000191365 13.7061 1.40735C14.9031 2.01373 15.0249 2.02608 17.1226 1.75714C19.9108 1.39954 23.5002 1.40081 26.0736 1.76042C28.0197 2.03237 28.1475 2.01878 29.3474 1.41114C33.2918 -0.586295 36.406 -0.455603 37.5336 1.75462C38.0965 2.85785 38.201 5.72052 37.7646 8.08158C37.5226 9.39054 37.5482 9.55397 38.1312 10.4129C42.2326 16.4569 39.2774 26.2537 32.2493 29.9098C31.7115 30.1896 31.2584 30.3628 30.889 30.5038C29.7548 30.9369 29.4105 31.0684 29.8274 33.0618C30.0281 34.0206 30.2699 36.4045 30.365 38.3596C30.5368 41.8936 30.5342 41.9183 29.9144 42.6393C29.0707 43.62 27.8547 43.6365 27.0307 42.6785C26.4933 42.0537 26.4409 41.7587 26.4409 39.3482C26.4409 35.786 26.0504 33.4183 25.1278 31.3895C24.0307 28.975 24.844 28.0748 27.353 27.5352C30.8403 26.785 33.564 24.6329 35.0821 21.428C36.5255 18.3815 36.743 14.1715 34.1335 11.6111C33.3914 10.7292 33.3397 9.93044 33.8696 7.52179C34.0676 6.62155 34.2337 5.46014 34.2386 4.94063C34.2461 4.1202 34.1714 3.99632 33.6675 3.99632C33.3486 3.99632 32.1302 4.46017 30.9604 5.02701L29.0932 5.932C28.9234 6.01426 28.7334 6.04589 28.5461 6.0244C23.7982 5.47943 19.2868 5.47101 14.5157 6.02653C14.3276 6.04842 14.1368 6.01679 13.9665 5.93411L12.1003 5.02853C10.9303 4.46067 9.71197 3.99632 9.39318 3.99632C8.65608 3.99632 8.64499 4.5405 9.31686 7.7736C9.72727 9.74816 10.0035 10.1881 8.817 11.767C7.03862 14.1336 6.5944 17.0723 7.54806 20.16C8.75001 24.0509 11.6933 26.6795 15.8313 27.5565C18.3258 28.0852 18.9777 28.775 18.0252 31.6354C17.2754 33.8863 16.8013 34.4665 15.7117 34.4665C14.2455 34.4665 13.3271 33.1965 13.8326 31.8675C14.0552 31.2818 13.989 31.2193 12.6155 30.7183C8.42289 29.1898 5.21616 25.7637 3.75005 21.246C2.61685 17.7545 3.11546 13.2099 4.93338 10.463C5.55235 9.52778 5.56193 9.44846 5.27308 7.65802C5.10965 6.64446 5.02126 5.01317 5.07665 4.03258Z" fill="#6190E8"/>
        <path d="M3.61323 29.5744C3.00907 28.6682 1.78464 28.4233 0.878389 29.0275C-0.0278412 29.6316 -0.272739 30.856 0.331421 31.7622C0.777456 32.4314 1.31105 32.981 1.76419 33.434C1.84773 33.5176 1.9289 33.5982 2.00816 33.6769C2.38773 34.054 2.72288 34.3869 3.05948 34.7821C3.80397 35.6559 4.5467 36.8329 4.96881 38.9434C5.15683 39.8835 5.83258 40.3899 6.20701 40.6112C6.61307 40.851 7.05674 40.9924 7.42184 41.0845C8.1687 41.2728 9.07534 41.3707 9.93578 41.4276C10.8803 41.4904 11.9038 41.5107 12.819 41.5162C12.8197 42.6046 13.7024 43.4869 14.7911 43.4869C15.8803 43.4869 16.7633 42.604 16.7633 41.5148V39.5427C16.7633 38.4535 15.8803 37.5706 14.7911 37.5706C14.6052 37.5706 14.4041 37.5712 14.191 37.572C13.0337 37.5756 11.5251 37.5801 10.1965 37.4921C9.55579 37.4497 9.02912 37.3896 8.64289 37.316C8.04814 34.9813 7.0873 33.4279 6.06202 32.2243C5.60878 31.6924 5.13946 31.227 4.75771 30.8484C4.68624 30.7776 4.61785 30.7097 4.55318 30.645C4.11271 30.2047 3.82458 29.8915 3.61323 29.5744Z" fill="#6190E8"/>
    </g>

    <g id="insta">
        <path fill-rule="evenodd" clip-rule="evenodd" d="M19.8628 30.8466C25.9291 30.8466 30.8468 25.9289 30.8468 19.8626C30.8468 13.7964 25.9291 8.87866 19.8628 8.87866C13.7965 8.87866 8.87885 13.7964 8.87885 19.8626C8.87885 25.9289 13.7965 30.8466 19.8628 30.8466ZM19.8628 27.1853C23.9069 27.1853 27.1855 23.9068 27.1855 19.8626C27.1855 15.8185 23.9069 12.54 19.8628 12.54C15.8186 12.54 12.5402 15.8185 12.5402 19.8626C12.5402 23.9068 15.8186 27.1853 19.8628 27.1853Z" fill="#6190E8"/>
        <path d="M30.8468 7.0481C29.8357 7.0481 29.0161 7.86772 29.0161 8.87876C29.0161 9.8898 29.8357 10.7094 30.8468 10.7094C31.8579 10.7094 32.6774 9.8898 32.6774 8.87876C32.6774 7.86772 31.8579 7.0481 30.8468 7.0481Z" fill="#6190E8"/>
        <path fill-rule="evenodd" clip-rule="evenodd" d="M0.922706 5.72271C-0.274475 8.07231 -0.274475 11.1481 -0.274475 17.2997V22.4256C-0.274475 28.5771 -0.274475 31.653 0.922706 34.0025C1.97578 36.0693 3.65611 37.7497 5.72289 38.8027C8.07249 39.9999 11.1483 39.9999 17.2999 39.9999H22.4258C28.5773 39.9999 31.6532 39.9999 34.0027 38.8027C36.0695 37.7497 37.7499 36.0693 38.8029 34.0025C40.0001 31.653 40.0001 28.5771 40.0001 22.4256V17.2997C40.0001 11.1481 40.0001 8.07231 38.8029 5.72271C37.7499 3.65592 36.0695 1.97559 34.0027 0.922523C31.6532 -0.274658 28.5773 -0.274658 22.4258 -0.274658H17.2999C11.1483 -0.274658 8.07249 -0.274658 5.72289 0.922523C3.65611 1.97559 1.97578 3.65592 0.922706 5.72271ZM22.4258 3.38667H17.2999C14.1637 3.38667 12.0317 3.38952 10.3838 3.52415C8.7786 3.6553 7.95773 3.89301 7.38509 4.18478C6.00725 4.88684 4.88703 6.00706 4.18497 7.38491C3.8932 7.95754 3.65548 8.77841 3.52433 10.3836C3.38971 12.0315 3.38685 14.1635 3.38685 17.2997V22.4256C3.38685 25.5619 3.38971 27.6937 3.52433 29.3416C3.65548 30.9469 3.8932 31.7678 4.18497 32.3404C4.88703 33.7182 6.00725 34.8384 7.38509 35.5404C7.95773 35.8322 8.7786 36.0701 10.3838 36.2011C12.0317 36.3357 14.1637 36.3386 17.2999 36.3386H22.4258C25.562 36.3386 27.6939 36.3357 29.3418 36.2011C30.9471 36.0701 31.768 35.8322 32.3406 35.5404C33.7184 34.8384 34.8386 33.7182 35.5406 32.3404C35.8324 31.7678 36.0702 30.9469 36.2013 29.3416C36.3359 27.6937 36.3388 25.5619 36.3388 22.4256V17.2997C36.3388 14.1635 36.3359 12.0315 36.2013 10.3836C36.0702 8.77841 35.8324 7.95754 35.5406 7.38491C34.8386 6.00706 33.7184 4.88684 32.3406 4.18478C31.768 3.89301 30.9471 3.6553 29.3418 3.52415C27.6939 3.38952 25.562 3.38667 22.4258 3.38667Z" fill="#6190E8"/>
    </g>

    <g id="linkedin">
        <path d="M9.99998 12.7273C11.5062 12.7273 12.7273 11.5062 12.7273 9.99998C12.7273 8.49374 11.5062 7.27271 9.99998 7.27271C8.49374 7.27271 7.27271 8.49374 7.27271 9.99998C7.27271 11.5062 8.49374 12.7273 9.99998 12.7273Z" fill="#6190E8"/>
        <path d="M7.27271 16.3636C7.27271 15.3594 8.08674 14.5454 9.09089 14.5454H10.9091C11.9132 14.5454 12.7273 15.3594 12.7273 16.3636V30.909C12.7273 31.9132 11.9132 32.7272 10.9091 32.7272H9.09089C8.08674 32.7272 7.27271 31.9132 7.27271 30.909V16.3636Z" fill="#6190E8"/>
        <path d="M18.1818 32.7272H20C21.0042 32.7272 21.8182 31.9132 21.8182 30.909V22.7272C21.8182 20 27.2727 18.1818 27.2727 21.8181V30.9098C27.2727 31.914 28.0867 32.7272 29.0909 32.7272H30.9091C31.9133 32.7272 32.7273 31.9132 32.7273 30.909V20C32.7273 16.3636 30 14.5454 26.3636 14.5454C22.7273 14.5454 21.8182 17.2727 21.8182 17.2727V16.3636C21.8182 15.3594 21.0042 14.5454 20 14.5454H18.1818C17.1776 14.5454 16.3636 15.3594 16.3636 16.3636V30.909C16.3636 31.9132 17.1776 32.7272 18.1818 32.7272Z" fill="#6190E8"/>
        <path fill-rule="evenodd" clip-rule="evenodd" d="M34.5455 0C37.558 0 40 2.44209 40 5.45455V34.5455C40 37.558 37.558 40 34.5455 40H5.45455C2.44209 40 0 37.558 0 34.5455V5.45455C0 2.44209 2.44209 0 5.45455 0H34.5455ZM34.5455 3.63636C35.5496 3.63636 36.3636 4.4504 36.3636 5.45455V34.5455C36.3636 35.5496 35.5496 36.3636 34.5455 36.3636H5.45455C4.4504 36.3636 3.63636 35.5496 3.63636 34.5455V5.45455C3.63636 4.4504 4.4504 3.63636 5.45455 3.63636H34.5455Z" fill="#6190E8"/>
    </g>
    
    <g id="telegram">
        <path fill-rule="evenodd" clip-rule="evenodd" d="M39.9231 4.35498C40.4987 1.54881 37.7424 -0.783168 35.0704 0.249238L2.31631 12.9042C-0.667687 14.0571 -0.800647 18.2298 2.10388 19.5703L9.2368 22.8625L12.63 34.7387C12.8063 35.3556 13.2958 35.8333 13.9169 35.9942C14.5379 36.155 15.1978 35.9754 15.6514 35.5216L20.8783 30.2947L28.2002 35.7862C30.3256 37.3801 33.3868 36.2191 33.9206 33.6166L39.9231 4.35498ZM3.62146 16.2822L36.3755 3.62728L30.3731 32.8891L21.7949 26.4553C21.0741 25.9146 20.0653 25.9863 19.4281 26.6235L17.1894 28.8622L17.8621 25.1628L31.0423 11.9826C31.6838 11.3412 31.7516 10.3241 31.2009 9.60318C30.6503 8.88226 29.6513 8.68006 28.8637 9.13013L10.6613 19.5314L3.62146 16.2822ZM12.8807 22.4341L13.9787 26.2771L14.4003 23.9585C14.4661 23.5962 14.641 23.2625 14.9014 23.0021L18.921 18.9827L12.8807 22.4341Z" fill="#6190E8"/>
    </g>

     <g id="logo">
            <g clip-path="url(#clip0_170_171)">
            <path d="M19.3359 0.375977L20.8184 0.535156L22.0752 0.694336L23.3965 0.949219L25.6846 1.45898L27.7793 2.03223L28.6816 2.35059L29.2939 2.60547L29.6162 2.79688L29.7451 2.95605H29.584L29.165 2.76465L28.166 2.41406L27.1992 2.16016L26.2646 1.93652L24.0088 1.52246L22.6875 1.33203L21.4307 1.2041L19.8516 1.1084H18.1113L16.7578 1.2041L15.501 1.36328L14.4053 1.58691L13.2451 1.87305L12.0205 2.28711L11.4404 2.54199L10.7637 2.89258L9.99023 3.37012L9.37793 3.81543L9.02344 4.10254L8.57227 4.48438L7.92773 5.12109L7.57324 5.56738L7.2832 5.94922L7.02539 6.36328L6.70312 6.93652L6.44531 7.50977L6.1875 8.27441L5.96191 9.13379L5.86523 9.70703L5.80078 10.3438V11.7139L5.89746 12.5098L6.05859 13.2744L6.44531 14.6748L6.76758 15.6309L7.12207 16.5225L7.66992 17.6367L8.05664 18.3379L8.60449 19.2295L8.89453 19.707L9.41016 20.4717L9.79688 21.0127L10.2158 21.5225L10.5059 21.8721L10.9248 22.3818L11.2793 22.8281L11.6338 23.2422L11.8594 23.5283L12.2461 23.9746L12.6006 24.3252L12.5361 23.6875L12.5039 22.9238L12.4717 4.58008L12.5039 4.35742L12.5361 4.3252H21.7852L23.4287 4.38867L24.7178 4.5166L25.6846 4.67578L26.5225 4.86621L27.1348 5.05762L27.7471 5.28027L28.4883 5.59863L29.2295 5.98145L29.9707 6.39551L30.6475 6.84082L31.0342 7.12793L31.4531 7.47754L31.7109 7.70117L31.9688 7.9873L32.0332 8.14648L32.001 8.37012L31.6465 9.3252L31.4854 9.99414L31.3887 10.6943L31.3564 11.1406V12L31.4209 12.8604L31.5498 13.6885L31.7432 14.3564L32.0654 15.1846L32.3232 15.6943L32.71 16.3311L33.0322 16.7773L33.29 17.0957L33.6768 17.541L34.2568 18.1143L34.4824 18.3057V18.3691L34.6113 18.4336L34.8691 18.6875L35.127 18.9111L35.5137 19.2295L35.7715 19.4521L35.8359 19.5801L35.7393 20.79L35.6104 21.7129L35.3848 22.8916L35.127 23.9111L34.8047 24.9297L34.5146 25.6309L34.0635 26.5537L33.6123 27.3506L33.3545 27.8594L34.1602 27.3184L34.4824 27.0312L34.8047 26.7773L35.1592 26.458L35.6104 26.1084L35.9648 25.79L36.3193 25.5029L36.5771 25.2803L36.8027 25.0254L37.0605 24.8027L37.1895 24.834L37.4473 25.0254L37.9307 25.376L38.7041 25.8213L39.542 26.2676L40.4443 26.7129L41.2178 27.0635L42.0234 27.4141L42.5068 27.6045L43.5703 27.8916L44.6982 28.1143L45.4395 28.1777H45.8262L46.2773 28.1143L46.9219 27.8916L47.4053 27.6367L47.6953 27.4141L47.8887 27.2549L48.2109 26.8086L48.4365 26.2041L48.5332 25.7256V25.248L48.4043 24.707L48.2109 24.1973L47.9209 23.6875L47.6953 23.4648V23.4014L47.5664 23.3379L47.2764 23.083L46.7285 22.7002L46.1807 22.3818L45.2139 21.9043L44.7627 21.7129L44.376 21.5225L43.5703 21.1719L42.1846 20.5664L41.3467 20.2168L40.2832 19.7705L39.2197 19.293L38.2852 18.8154L37.5762 18.4014L37.0283 18.0508L36.416 17.6367L35.8682 17.1914L35.2236 16.5547L34.9336 16.2041L34.4824 15.6309L34.1279 15.0254L33.8701 14.5156L33.5156 13.4648L33.3545 12.6689L33.3223 12.3828V11.0762L33.4189 10.376L33.6123 9.61133L33.8379 9.00684L34.0957 8.49707L34.3535 8.01953L34.5791 7.70117L34.8691 7.31836L35.2236 6.9043L35.5137 6.61816L35.8682 6.33203L36.3193 5.98145L36.9316 5.56738L37.6084 5.18555L38.3496 4.83496L39.123 4.54785L39.7998 4.35742L41.0889 4.10254L41.9268 4.00684L42.9258 3.94336H45.0527L46.4385 4.07031L47.5986 4.29297L48.4688 4.5166L49.2744 4.80273L50.0479 5.15332L50.8213 5.53516L51.4014 5.88574L51.917 6.2041L53.0771 7.03223L53.4961 7.38281L53.8184 7.6377L54.2373 8.05078L54.3662 8.27441L54.334 8.46484L54.0762 8.68848L53.5283 9.07031L52.9482 9.48438L52.626 9.70703L52.0137 10.1533L51.2725 10.6631L50.8857 10.917L50.5312 11.2041L50.3379 11.3633L50.1445 11.4268L49.8545 11.3633L49.1133 11.1084L48.2754 10.79L46.5996 10.249L45.1172 9.86621L43.957 9.64355L43.4736 9.58008L43.0225 9.54785H42.3135L41.7012 9.64355L41.2178 9.83496L40.8633 10.0254L40.4766 10.376L40.2832 10.6631L40.0254 11.1406L39.9609 11.3955V11.9365L40.0898 12.3506L40.4121 12.9238L40.7021 13.2744L40.9922 13.5605L41.4434 13.9111L41.7656 14.1338L42.3779 14.4844L43.248 14.8984L44.0859 15.248L45.2461 15.7578L46.1484 16.1719L46.8252 16.459L47.7275 16.873L48.6943 17.2871L49.21 17.541L49.9512 17.9238L50.5957 18.2734L51.3369 18.752L51.8203 19.1016L52.4004 19.5479L52.8193 19.8984L53.3027 20.3438L53.6572 20.7266L54.0762 21.2988L54.3662 21.7451L54.6562 22.2549L55.1396 23.1465L55.5264 23.9424L55.8809 24.8027L56.2676 25.9492L56.5576 26.9365L56.751 27.8916L56.9443 29.165L57.041 30.3115V31.2676L56.9766 32.127L56.7832 33.2734L56.5576 34.2285L56.2354 35.1846L55.9131 35.917L55.623 36.458L54.9785 37.4131L54.6562 37.8271L54.3662 38.1465L54.1406 38.4004L53.6572 38.8789H53.5928V38.9424L53.335 39.165L52.916 39.5156L52.3359 39.9297L51.5303 40.4385L50.7246 40.8848L49.9512 41.2354L49.0488 41.585L47.9209 41.9355L46.5029 42.2861L45.5361 42.4775L44.1826 42.668L43.2158 42.7637L42.668 42.7959H40.7988L39.3809 42.7002L37.834 42.5088L36.3193 42.2861L35.2236 42.0635L33.5801 41.7129L31.9688 41.2666L31.1631 41.0117L29.9385 40.5986L29.0039 40.248L27.3926 39.6113L26.4258 39.1973L25.3301 38.6875L24.5566 38.3057L23.8154 37.8916L23.1709 37.5732L22.4297 37.1592L21.8818 36.8398L21.1406 36.3945L19.0137 34.9932L18.4658 34.6113L17.8857 34.1973L17.5312 33.9102L17.0801 33.5605L16.6934 33.2734L16.5 33.1777L15.7588 33.21L13.6963 33.2412H12.7295L12.5684 33.1777L12.5039 32.8594V31.0127L12.5684 29.8975L12.4717 29.5791L12.2461 29.293L11.6982 28.751L11.4727 28.4961L11.0859 28.083L10.8604 27.8281L10.5381 27.4775L10.248 27.127L9.8291 26.6494L9.41016 26.1084L9.05566 25.6621L8.7334 25.248L8.31445 24.6748L7.70215 23.7832L7.2832 23.1465L6.99316 22.6689L6.54199 21.8721L6.05859 20.9805L5.76855 20.4395L5.51074 19.9297L5.12402 19.0703L4.86621 18.4336L4.51172 17.4775L4.15723 16.3311L3.86719 15.1846L3.67383 14.0703L3.5127 12.7012L3.48047 12.2549V11.1084L3.60938 9.86621L3.73828 9.10254L3.99609 8.14648L4.25391 7.38281L4.64062 6.52246L4.96289 5.91797L5.31738 5.34473L5.7041 4.83496L5.99414 4.48438L6.44531 4.00684L6.92871 3.56055L7.2832 3.27441L7.70215 2.95605L8.21777 2.60547L8.79785 2.25488L9.66797 1.80957L10.3125 1.52246L11.1826 1.2041L12.3428 0.885742L13.1807 0.694336L14.373 0.503906L15.5654 0.375977L16.6289 0.3125H18.1113L19.3359 0.375977ZM54.7207 26.2676L54.6562 26.3945L54.4629 27.127L54.2373 27.7959L53.9795 28.3691L53.5928 29.0693L53.2705 29.5479L52.9482 29.9619L52.4648 30.4707L51.8203 31.0439L51.4658 31.3311L51.0469 31.6494L50.5635 31.9678L49.8223 32.3496L49.0811 32.668L48.2109 32.9551L47.2441 33.21L46.4062 33.3691L45.5039 33.4961L44.2793 33.5918H42.6035L42.0557 33.5605L40.8311 33.4326L40.0898 33.3057L39.0908 33.082L38.3174 32.8594L37.4473 32.541L36.7705 32.2549L36.0293 31.8721L35.3525 31.4902L34.6113 31.0127L34.0312 30.5664L33.6768 30.2803L33.4189 30.0254L33.1289 29.707L32.9033 29.4199L32.5811 29.1016H32.4199L32.1299 29.293L31.7432 29.6426L31.3242 30.0254L30.9697 30.3115L30.3574 30.7578L29.8096 31.1084L29.0684 31.5225L28.5527 31.7764L27.7471 32.127L26.7803 32.4453L25.8135 32.7002L25.0078 32.8281L24.5889 32.9229L24.1699 33.0508V33.1143L24.6211 33.4326L25.3623 33.7832L25.9102 34.0693L26.4258 34.3242L27.0059 34.5791L27.4893 34.8018L28.0693 35.0566L28.7461 35.3438L29.6807 35.7256L30.5508 36.1074L31.4531 36.458L32.6133 36.8721L33.5156 37.127L34.4824 37.4131L35.4492 37.668L36.6738 37.9551L38.124 38.2412L39.7676 38.5283L40.96 38.6875L42.4102 38.8145L43.377 38.8467H43.957L44.666 38.8145L45.8262 38.6875L46.8574 38.5283L48.0176 38.2734L48.9844 37.9863L50.1123 37.5732L50.7246 37.2861L51.4658 36.8721L51.9492 36.5537L52.4971 36.1396L52.9482 35.7256L53.1738 35.4707L53.4961 35.1211L53.7861 34.7705L54.2695 34.0381L54.624 33.2734L54.8496 32.668L55.1074 31.8086L55.2686 30.917L55.3652 29.8975V28.7197L55.333 28.21L55.2686 27.7324L55.1719 27.1904L55.0107 26.6172L54.8174 26.2676H54.7207ZM18.5303 9.3252V28.21L18.5625 28.2422H20.1094L21.5918 28.21L22.0752 28.1777L22.8164 28.083L23.6865 27.8916L24.46 27.6367L25.1367 27.3184L25.8135 26.9365L26.2969 26.5859L26.6514 26.2988L26.877 26.0439L27.167 25.7256L27.5537 25.2168L27.9404 24.5791L28.2305 23.9424L28.4883 23.2734L28.7139 22.4775L28.9395 21.3945L29.0361 20.5029L29.1006 19.0703V18.6562L29.0684 17.7646L29.0039 16.7451L28.875 15.79L28.7461 15.1211L28.4883 14.2617L28.1338 13.4648L27.6826 12.6055L27.2959 12L26.877 11.4902L26.3613 11.0127L25.9424 10.6943L25.3623 10.3438L24.5889 9.99414L23.8799 9.73926L23.0742 9.5166L22.4297 9.38867L21.7529 9.3252L20.6895 9.29297H18.7559L18.5303 9.3252Z" fill="#ffffffff"/>
            </g>
            <defs>
            <clipPath id="clip0_170_171">
            <rect width="60" height="45" fill="white"/>
            </clipPath>
            </defs>    </g>
</svg>
    
