<!-- skills -->
<svg width="70" height="70" viewBox="0 0 70 70" fill="none" xmlns="http://www.w3.org/2000/svg">
    <g id="react">
        <path d="M57.5539 22.6884C56.809 22.4011 56.0577 22.135 55.3008 21.8903C55.428 21.3063 55.545 20.7295 55.6489 20.1628C57.3546 10.8564 56.2395 3.35908 52.4308 0.890594C48.7791 -1.47586 42.8069 0.991706 36.7754 6.89156C36.181 7.47405 35.5998 8.07334 35.0323 8.68883C34.6524 8.27955 34.2657 7.87821 33.8726 7.48501C27.5513 1.17672 21.2152 -1.48201 17.4106 0.99355C13.7621 3.36738 12.6818 10.4154 14.2174 19.2352C14.3702 20.1087 14.5427 20.9777 14.7347 21.8414C13.8379 22.1278 12.9724 22.4327 12.1442 22.7573C4.73293 25.6615 0 30.2128 0 34.9337C0 39.8096 5.08102 44.7001 12.8002 47.6656C13.426 47.905 14.057 48.1269 14.6926 48.331C14.4862 49.2611 14.3029 50.1976 14.143 51.1394C12.679 59.8061 13.8223 66.6876 17.4609 69.0464C21.219 71.4823 27.5267 68.9787 33.6684 62.9443C34.1664 62.4537 34.6534 61.9492 35.1291 61.4313C35.7436 62.0978 36.3746 62.7448 37.0213 63.3718C42.9707 69.1256 48.8463 71.4491 52.4814 69.0838C56.236 66.6409 57.4563 59.2483 55.872 50.2542C55.7472 49.5496 55.6073 48.8485 55.4523 48.1515C55.8953 48.004 56.33 47.8521 56.7539 47.6942C64.7787 44.706 70 39.8747 70 34.9337C70 30.1956 65.1142 25.6136 57.5539 22.6884V22.6884ZM55.8135 44.5041C55.4307 44.6464 55.038 44.7837 54.6377 44.9174C53.7518 41.7651 52.5563 38.4134 51.0932 34.95C52.4893 31.5694 53.6389 28.2603 54.4999 25.1286C55.2161 25.3616 55.9109 25.6071 56.5808 25.8662C63.0585 28.3728 67.0097 32.0783 67.0097 34.9337C67.0097 37.9751 62.7424 41.9234 55.8135 44.5041V44.5041ZM52.9386 50.907C53.6391 54.8839 53.7389 58.4797 53.2749 61.2908C52.8582 63.8168 52.0198 65.5007 50.983 66.1753C48.7771 67.6105 44.0595 65.745 38.9717 60.824C38.3702 60.2411 37.7833 59.6395 37.2116 59.02C39.1841 56.5954 41.1554 53.7769 43.0793 50.6464C46.4633 50.3089 49.6604 49.757 52.5596 49.0037C52.6993 49.6347 52.8256 50.2693 52.9386 50.907V50.907ZM23.8645 65.9272C21.7093 66.7825 19.9927 66.8071 18.955 66.1347C16.747 64.7034 15.829 59.1779 17.0811 51.7663C17.2299 50.8905 17.4003 50.0195 17.5921 49.1543C20.4594 49.8673 23.6332 50.3799 27.0252 50.6891C28.9622 53.7523 30.9903 56.5678 33.0343 59.0332C32.5999 59.5056 32.1552 59.9659 31.7007 60.4137C28.9846 63.082 26.2631 64.9751 23.8645 65.9272V65.9272ZM13.7676 44.4853C10.3543 43.1739 7.53539 41.4698 5.60328 39.6101C3.86695 37.9391 2.99059 36.2799 2.99059 34.9337C2.99059 32.0688 6.79055 28.4146 13.1286 25.9311C13.8977 25.6299 14.7027 25.3456 15.5381 25.0788C16.4142 28.2812 17.5632 31.6296 18.9498 35.0155C17.5451 38.4515 16.3797 41.8533 15.4952 45.0935C14.915 44.9067 14.3389 44.7039 13.7676 44.4853V44.4853ZM17.1522 18.5895C15.8367 11.0332 16.7103 5.33308 18.909 3.90245C21.2507 2.37869 26.4291 4.55122 31.8872 9.99837C32.2431 10.3544 32.5933 10.7176 32.9375 11.0879C30.9036 13.5425 28.8941 16.3371 26.9743 19.3821C23.6822 19.7251 20.5308 20.2759 17.6334 21.0138C17.4549 20.2105 17.2945 19.4022 17.1522 18.5898V18.5895ZM47.3471 26.9699C46.6627 25.6412 45.953 24.3293 45.2184 23.0351C47.4518 23.3526 49.5917 23.7739 51.6012 24.289C50.998 26.4624 50.2461 28.7346 49.3609 31.0641C48.714 29.6844 48.0425 28.3194 47.3471 26.9699V26.9699ZM35.0336 13.49C36.4129 15.1695 37.7943 17.0446 39.153 19.0791C36.3967 18.9328 33.6359 18.9322 30.8796 19.0773C32.2396 17.0615 33.6328 15.1889 35.0336 13.49ZM22.6412 26.9929C21.9544 28.3316 21.2955 29.6881 20.665 31.0614C19.7944 28.7401 19.0493 26.4575 18.4409 24.2533C20.4381 23.7512 22.5679 23.3406 24.7871 23.0289C24.0443 24.3311 23.3288 25.6527 22.6412 26.9926V26.9929ZM24.8508 47.0777C22.558 46.79 20.3963 46.4006 18.3996 45.912C19.0176 43.6684 19.7791 41.3373 20.6686 38.9662C21.3016 40.3405 21.9632 41.6979 22.6529 43.0372C23.3622 44.414 24.0967 45.7626 24.8508 47.0777ZM35.1162 56.6142C33.6987 54.8956 32.285 52.9941 30.9045 50.9491C32.2448 51.0081 33.6112 51.0382 35 51.0382C36.4268 51.0382 37.8372 51.0023 39.2254 50.9328C37.8623 53.0147 36.4861 54.9189 35.1162 56.6142ZM49.3891 38.8452C50.3248 41.2423 51.1134 43.5612 51.7396 45.7663C49.7101 46.2869 47.5188 46.7061 45.2099 47.0174C45.9497 45.6991 46.6662 44.3644 47.3588 43.0141C48.063 41.6416 48.74 40.2516 49.3891 38.8452V38.8452ZM44.7686 41.3349C43.7082 43.4052 42.5883 45.4362 41.4105 47.4246C39.277 47.5945 37.1388 47.6788 35 47.6776C32.8215 47.6776 30.7027 47.6013 28.6623 47.4526C27.4537 45.4687 26.3124 43.4342 25.2407 41.3533H25.241C24.1744 39.2834 23.1781 37.1688 22.2543 35.014C23.1757 32.8586 24.169 30.743 25.232 28.6716L25.2317 28.6719C26.2943 26.5999 27.4265 24.574 28.6259 22.5987C30.7076 22.4216 32.8423 22.3294 34.9997 22.3294H35C37.1673 22.3294 39.3047 22.4226 41.3859 22.6008C42.5731 24.5732 43.6981 26.5921 44.7587 28.6537C45.8252 30.7206 46.8317 32.8259 47.7764 34.9663C46.8414 37.1286 45.8381 39.2528 44.7686 41.3349V41.3349ZM50.9373 3.80226C53.2812 5.3217 54.1929 11.449 52.7201 19.4842C52.6261 19.9968 52.5205 20.519 52.4057 21.0485C49.5012 20.2949 46.3477 19.7346 43.0459 19.3864C41.1225 16.3079 39.1295 13.509 37.1287 11.086C37.6531 10.5179 38.1899 9.96455 38.7387 9.42643C43.9067 4.37174 48.7367 2.37593 50.9373 3.80226V3.80226ZM35 27.9081C38.4521 27.9081 41.2508 31.0537 41.2508 34.9337C41.2508 38.8138 38.4521 41.9594 35 41.9594C31.5479 41.9594 28.7492 38.8138 28.7492 34.9337C28.7492 31.0537 31.5479 27.9081 35 27.9081V27.9081Z" fill="#00D8FF"/>
    </g>
    <g id="redux">
        <path d="M48.5026 48.8874C51.0858 48.6058 53.0455 46.2601 52.9564 43.4449C52.8675 40.63 50.6403 38.378 47.968 38.378H47.79C45.0283 38.4719 42.8906 40.9114 42.9797 43.8202C43.0689 45.2278 43.6032 46.4476 44.4049 47.2921C41.3763 53.5791 36.7443 58.1768 29.7962 62.024C25.075 64.6514 20.1759 65.5898 15.2767 64.9331C11.2681 64.37 8.15035 62.4935 6.19035 59.3966C3.34004 54.7989 3.07289 49.8255 5.47804 44.8525C7.17062 41.2867 9.84265 38.6594 11.5352 37.3457C11.1789 36.1259 10.6444 34.0616 10.3772 32.5604C-2.53914 42.4129 -1.20285 55.7373 2.7166 62.024C5.65605 66.7159 11.6244 69.6247 18.2161 69.6247C19.9976 69.6247 21.779 69.4369 23.5607 68.968C34.9628 66.622 43.6034 59.4905 48.5026 48.8874V48.8874ZM64.1804 37.2521C57.4104 28.9008 47.4337 24.303 36.0317 24.303H34.6065C33.8048 22.614 32.1122 21.4879 30.2416 21.4879H30.0634C27.3022 21.5818 25.1644 24.0213 25.2533 26.9304C25.3425 29.7453 27.5693 31.9973 30.2416 31.9973H30.4196C32.3794 31.9034 34.0719 30.5898 34.7845 28.8069H36.388C43.158 28.8069 49.5715 30.8712 55.3618 34.9061C59.8155 38.0027 63.0224 42.0376 64.8039 46.9168C66.3182 50.8578 66.229 54.705 64.6256 57.9893C62.1316 62.9624 57.9449 65.6837 52.4221 65.6837C48.8589 65.6837 45.474 64.5575 43.6923 63.713C42.7126 64.6514 40.9309 66.1526 39.6837 67.0912C43.5143 68.9677 47.4337 70 51.1749 70C59.7264 70 66.051 65.0267 68.4562 60.0536C71.0393 54.6111 70.861 45.2278 64.1804 37.2521V37.2521ZM18.9287 50.4822C19.0178 53.2974 21.2447 55.5492 23.917 55.5492H24.0953C26.8568 55.4556 28.9945 53.0157 28.9053 50.1069C28.8165 47.2918 26.5893 45.04 23.917 45.04H23.739C23.5607 45.04 23.2933 45.04 23.1156 45.1336C19.4633 38.753 17.949 31.8095 18.4835 24.3027C18.8396 18.6727 20.6213 13.7933 23.739 9.75831C26.3222 6.28645 31.3105 4.59746 34.6957 4.50386C44.1377 4.31606 48.146 16.702 48.4135 21.6754C49.5715 21.9568 51.5312 22.6138 52.8675 23.0829C51.7983 7.88211 42.8906 0 34.3394 0C26.3222 0 18.9287 6.09923 15.989 15.1072C11.8915 27.1179 14.5638 38.6594 19.5521 47.7613C19.107 48.418 18.8396 49.4502 18.9287 50.4825V50.4822Z" fill="#764ABC"/>
    </g>
    <g id="js">
        <g clip-path="url(#clip0_114356_4590)">
        <path d="M0 0H70V70H0V0Z" fill="#F5DE19"/>
        <path d="M47.0224 54.6875C47.6188 55.899 48.5455 56.9173 49.6955 57.625C50.8455 58.3327 52.1722 58.701 53.5224 58.6875C56.2474 58.6875 57.9899 57.325 57.9899 55.4375C57.9899 53.1875 56.1999 52.3825 53.1999 51.07L51.5549 50.365C46.8049 48.3425 43.6549 45.81 43.6549 40.455C43.6549 35.5225 47.4049 31.765 53.2874 31.765C55.1917 31.6275 57.0943 32.0537 58.7579 32.9904C60.4215 33.9271 61.7726 35.333 62.6424 37.0325L57.4999 40.32C57.165 39.4773 56.5818 38.7563 55.8277 38.2527C55.0735 37.7491 54.1842 37.4866 53.2774 37.5C52.8818 37.4604 52.4823 37.5036 52.1044 37.627C51.7264 37.7503 51.3783 37.951 51.0822 38.2163C50.786 38.4816 50.5484 38.8057 50.3845 39.1679C50.2206 39.5301 50.1339 39.9224 50.1299 40.32C50.1299 42.2925 51.3524 43.0925 54.1749 44.32L55.8199 45.025C61.4099 47.4225 64.5699 49.865 64.5699 55.3575C64.5699 61.28 59.9174 64.525 53.6699 64.525C51.2357 64.6801 48.8086 64.1274 46.6815 62.9337C44.5544 61.7399 42.8182 59.9561 41.6824 57.7975L47.0224 54.6875ZM23.7849 55.2575C24.8174 57.09 25.7574 58.64 28.0174 58.64C30.1774 58.64 31.5424 57.795 31.5424 54.5075V32.14H38.1199V54.595C38.1199 61.405 34.1199 64.505 28.2974 64.505C26.2393 64.6175 24.1953 64.1046 22.4341 63.0337C20.673 61.9628 19.2771 60.3841 18.4299 58.505L23.7849 55.2575Z" fill="black"/>
        </g>
        <defs>
        <clipPath id="clip0_114356_4590">
        <rect width="70" height="70" fill="white"/>
        </clipPath>
        </defs>
    </g>
    <g id="css">
        <g clip-path="url(#clip0_114356_4683)">
        <path d="M7.77899 63.1162L1.83569 0.47168H67.1643L61.2131 63.1063L34.4603 70.074L7.77899 63.1162Z" fill="#1572B6"/>
        <path d="M34.5 64.7494L56.1192 59.1191L61.2051 5.59497H34.5V64.7494Z" fill="#33A9DC"/>
        <path d="M34.5 28.2902H45.3228L46.0691 20.4226H34.5V12.739H55.0078L54.812 14.7997L52.8036 35.9737H34.5V28.2902V28.2902Z" fill="white"/>
        <path d="M34.5502 48.2438L34.5131 48.2537L25.405 45.9419L24.8229 39.8145H16.6118L17.7576 51.878L34.5105 56.248L34.5502 56.2381V48.2438V48.2438Z" fill="#EBEBEB"/>
        <path d="M44.627 35.6479L43.6426 45.9367L34.5212 48.2484V56.2428L51.2874 51.8777L51.4117 50.5801L52.8327 35.6479H44.627V35.6479Z" fill="white"/>
        <path d="M34.5291 12.739V20.4226H14.7728L14.6087 18.695L14.2356 14.7997L14.0398 12.739H34.5291V12.739ZM34.5 28.2902V35.9737H25.5056L25.3416 34.2461L24.9711 30.3509L24.7753 28.2902H34.5V28.2902Z" fill="#EBEBEB"/>
        </g>
        <defs>
        <clipPath id="clip0_114356_4683">
        <rect width="70" height="70" fill="white"/>
        </clipPath>
        </defs>
    </g>
    <g id="html">
        <path d="M10.4109 62.276L4.93945 0.908447H65.0607L59.5832 62.2667L34.9634 69.0917L10.4109 62.276Z" fill="#E44D26"/>
        <path d="M35 63.8751L54.8942 58.3593L59.5749 5.92603H35V63.8751Z" fill="#F16529"/>
        <path d="M35.0002 28.6864H25.0405L24.3525 20.9787H35.0002V13.4526H16.127L16.3074 15.4717L18.157 36.213H35.0002V28.6864ZM35.0002 48.2333L34.9668 48.2426L26.5848 45.9786L26.0495 39.9766H18.4933L19.5477 51.794L34.9657 56.0739L35.0002 56.0646V48.2333Z" fill="#EBEBEB"/>
        <path d="M34.9736 28.6864V36.213H44.2415L43.3682 45.9742L34.9736 48.2399V56.0706L50.4037 51.794L50.5169 50.5226L52.2855 30.7076L52.4687 28.6864H50.4409H34.9736ZM34.9736 13.4526V20.9787H53.1539L53.3049 19.2878L53.6483 15.4717L53.8282 13.4526H34.9736Z" fill="white"/>
    </g>
    <g id="sass">
        <path fill-rule="evenodd" clip-rule="evenodd" d="M0.666992 35.7103C0.666992 36.0948 0.780195 36.3485 0.843633 36.5952C1.25707 38.1991 2.14574 39.5756 3.20012 40.8312C4.70184 42.6206 6.54098 44.0611 8.42496 45.4157C10.059 46.5904 11.7264 47.7388 13.3671 48.9048C13.6487 49.1049 13.915 49.3352 14.2207 49.5807C13.9577 49.7229 13.7389 49.8481 13.5114 49.9635C11.3464 51.0616 9.26332 52.2927 7.34324 53.784C6.18605 54.683 5.06715 55.6384 4.27691 56.887C3.00543 58.8951 2.55535 61.0345 3.50309 63.3187C3.7798 63.9859 4.20199 64.5623 4.79754 64.9884C4.99059 65.1262 5.20715 65.2629 5.43301 65.3165C6.0116 65.4527 6.60113 65.5418 7.18684 65.6495L8.84551 65.6484C10.6797 65.4849 12.3493 64.8566 13.8582 63.8153C16.2163 62.1878 17.805 60.0058 18.488 57.2052C18.9846 55.1698 19.0048 53.1321 18.4196 51.1059C18.3634 50.9183 18.2988 50.7333 18.2261 50.5514C18.155 50.3693 18.0713 50.1921 17.9729 49.9652L21.7332 47.8028L21.7895 47.8509C21.7211 48.0746 21.6484 48.2977 21.5866 48.5236C21.1398 50.1555 20.8429 51.8158 20.9495 53.5095C21.0632 55.3141 21.5669 57.0034 22.6235 58.5112C23.4777 59.7307 25.5132 59.7761 26.421 58.5522C26.7431 58.1174 27.0554 57.663 27.29 57.1779C27.903 55.9119 28.4707 54.6234 29.0564 53.3438L29.1586 53.1097C29.1165 53.7156 29.0673 54.2477 29.0449 54.7804C29.0099 55.6122 29.0586 56.4391 29.3429 57.2304C29.5863 57.9074 30.0003 58.4133 30.7757 58.5024C31.3062 58.5631 31.7289 58.3203 32.1189 58.0124C32.7228 57.5349 33.2234 56.9397 33.5905 56.263C34.6301 54.3538 35.6976 52.4562 36.6399 50.4989C37.6593 48.382 38.5507 46.2032 39.4973 44.0502L39.6537 43.6684C39.8774 44.5473 40.0332 45.408 40.3203 46.2229C40.6539 47.1684 41.0668 48.0916 41.5164 48.989C41.7291 49.4128 41.7045 49.6879 41.4097 50.0434C40.176 51.5309 38.9636 53.0364 37.75 54.5403C37.4815 54.8723 37.2141 55.2102 36.9904 55.5728C36.8547 55.8018 36.7655 56.0553 36.7279 56.3187C36.6903 56.5613 36.748 56.8091 36.889 57.01C37.03 57.211 37.2433 57.3495 37.4843 57.3966C37.9705 57.5011 38.469 57.5366 38.9652 57.5022C40.6589 57.3775 42.1967 56.783 43.5562 55.7757C45.3177 54.4709 45.8832 52.6902 45.4566 50.5798C45.3412 50.0073 45.1372 49.4505 44.9387 48.8988C44.8496 48.6499 44.8436 48.4755 45.006 48.2436C46.4142 46.2327 47.6173 44.0994 48.7362 41.9168C48.7805 41.8309 48.8259 41.7451 48.9036 41.6532C49.2661 43.5399 49.8119 45.3583 50.7897 47.0082C50.291 47.4889 49.7971 47.9248 49.3503 48.4049C48.3665 49.4626 47.5134 50.611 47.0682 52.0116C46.8768 52.6153 46.7297 53.2289 46.815 53.8737C46.9474 54.875 47.7677 55.5258 48.7526 55.2977C50.8603 54.8099 52.6797 53.8168 54.0092 52.0575C54.9039 50.873 54.9854 49.5517 54.6107 48.1676C54.5079 47.7913 54.386 47.4211 54.2547 46.9896C54.7748 46.8283 55.2818 46.6347 55.8062 46.5149C58.5291 45.8937 61.2225 46.002 63.8464 46.9852C65.3782 47.5595 66.6157 48.5203 67.3496 50.0319C68.246 51.8798 67.7505 53.633 66.0087 54.8012C65.8463 54.91 65.6604 54.9959 65.5258 55.132C65.4828 55.182 65.4505 55.2404 65.4312 55.3035C65.412 55.3665 65.406 55.4329 65.4137 55.4984C65.4252 55.5657 65.6029 55.6499 65.7052 55.6488C66.2778 55.6445 66.7421 55.3442 67.1878 55.0358C68.3045 54.263 69.1193 53.2234 69.2949 51.8546L69.3293 51.7518L69.2872 50.8604C69.2703 50.809 69.2998 50.7581 69.296 50.7193C69.0586 48.7259 67.9939 47.1799 66.4451 45.968C64.6514 44.5653 62.5333 43.9878 60.2933 43.8965C58.4766 43.8183 56.6622 44.0976 54.9531 44.7184C54.4625 44.8962 53.9764 45.1067 53.4831 45.3052C53.4169 45.1855 53.3458 45.0706 53.2873 44.952C52.7809 43.9151 52.1673 42.9241 52.0317 41.7352C51.9354 40.8909 51.8173 40.0476 52.018 39.2125C52.2111 38.4091 52.4626 37.6195 52.6994 36.827C52.8214 36.4191 52.7355 36.1905 52.3461 36.0067C52.2101 35.9401 52.0654 35.8926 51.9163 35.8656C50.9593 35.7267 50.0154 35.806 49.0884 36.0756C48.7603 36.1713 48.5218 36.3551 48.4491 36.7182C48.4075 36.9266 48.3228 37.1262 48.2637 37.3318C48.0214 38.1866 47.8497 39.0577 47.4582 39.872C46.4771 41.9146 45.3571 43.8801 44.2108 45.8313C44.0867 46.0419 43.956 46.2486 43.7996 46.504C43.3971 45.6618 42.9678 44.906 42.8376 44.0201C42.6905 43.0182 42.5746 42.018 42.8239 41.0238C43.0093 40.2822 43.2516 39.5543 43.4747 38.8226C43.5803 38.4748 43.5316 38.2921 43.2166 38.1089C43.0575 38.0165 42.8775 37.9345 42.6982 37.9077C41.7168 37.7581 40.7142 37.8401 39.7702 38.1472C39.4732 38.2434 39.3174 38.4354 39.2266 38.7416C38.9597 39.6451 38.7322 40.5704 38.3576 41.4295C36.8406 44.9077 35.2798 48.3677 33.7207 51.8273C33.3953 52.5497 33.0141 53.247 32.6471 53.9502C32.5542 54.1285 32.4186 54.2855 32.3026 54.4528C32.2096 54.3429 32.1736 54.2674 32.1741 54.192C32.1768 53.7473 32.1238 53.2896 32.2086 52.8598C32.4688 51.5597 32.7565 50.2654 33.0715 48.9775C33.3286 47.9133 33.6277 46.8589 33.9126 45.8018C34.0083 45.448 34.01 45.1171 33.7557 44.8196C33.3286 44.3214 32.4361 44.212 31.9067 44.5959L31.6726 44.7283L31.718 44.3509C31.8296 43.5421 31.852 42.736 31.63 41.9392C31.3532 40.9461 30.6445 40.3746 29.6142 40.4063C29.134 40.4211 28.6298 40.5031 28.1852 40.6781C26.3154 41.4109 24.8777 42.7087 23.6538 44.27C23.5402 44.4149 23.3996 44.5364 23.2398 44.6277C21.6577 45.5048 20.0707 46.3711 18.4842 47.2406L16.7183 48.208C16.2447 47.7563 15.8143 47.2877 15.326 46.8901C13.8346 45.6738 12.3193 44.4877 10.8175 43.2851C9.48645 42.2192 8.19691 41.1091 7.21035 39.6976C6.47645 38.6476 6.0034 37.4986 5.95801 36.2003C5.90059 34.546 6.3698 33.0345 7.21199 31.6273C8.28934 29.827 9.75879 28.3822 11.3743 27.0735C13.0832 25.6899 14.9317 24.5152 16.8474 23.4428C19.5276 21.9427 22.2844 20.6149 25.2403 19.7383C28.2711 18.8392 31.3461 18.3246 34.518 18.6834C35.7649 18.8245 36.9757 19.1099 38.0875 19.7197C38.9389 20.1862 39.6373 20.797 39.9621 21.7519C40.2826 22.6914 40.2728 23.6435 40.0507 24.5978C39.5996 26.5305 38.5414 28.1235 37.2097 29.547C35.0255 31.8805 32.3611 33.4692 29.3615 34.5187C27.6368 35.1227 25.8424 35.5055 24.0213 35.6578C22.5289 35.783 21.0676 35.6507 19.6545 35.1317C18.7188 34.7877 17.9039 34.2616 17.2488 33.4982C17.1318 33.3615 16.9819 33.2133 16.7637 33.3413C16.5499 33.467 16.5121 33.6705 16.5838 33.8766C16.7036 34.219 16.814 34.5755 17.0005 34.8818C17.4692 35.6502 18.1528 36.2074 18.9053 36.6854C20.3507 37.6047 21.9661 37.9137 23.6412 37.9853C26.1831 38.0952 28.6632 37.7157 31.1082 37.0338C34.5989 36.0603 37.6341 34.3409 40.0682 31.6284C42.095 29.3698 43.5425 26.8209 43.8526 23.743C44.0041 22.2408 43.8428 20.7691 43.1395 19.3987C42.3766 17.9139 41.1636 16.8098 39.7133 16.0491C37.6013 14.9416 35.3219 14.2969 32.9693 14.2969H30.6122C27.763 14.2969 25.0084 15.1134 22.3309 16.0873C20.3042 16.8251 18.3168 17.6957 16.3875 18.6593C12.1858 20.7587 8.27293 23.2902 5.05895 26.7711C3.4577 28.5052 2.10199 30.4187 1.32215 32.6719C1.08718 33.3447 0.884424 34.0283 0.71457 34.7205M15.939 54.4151C15.7569 56.8536 14.6517 58.8305 12.8454 60.4318C11.8293 61.332 10.6639 61.9729 9.30652 62.1982C8.81434 62.2797 8.31066 62.2994 7.83324 62.0954C7.15238 61.8045 6.9998 61.2002 6.98668 60.5565C6.96645 59.5305 7.32574 58.603 7.81848 57.7204C8.4616 56.5698 9.40441 55.6926 10.4112 54.8734C11.9971 53.5822 13.7176 52.4895 15.4796 51.4581L15.6125 51.4034C15.8849 52.4097 16.0145 53.4034 15.939 54.4151ZM29.6973 43.8172C29.5688 44.5959 29.408 45.3752 29.1805 46.1299C28.3941 48.7423 27.384 51.2738 26.2919 53.7714C26.0901 54.2335 25.7964 54.6552 25.5411 55.0932C25.4976 55.1605 25.4455 55.2219 25.3863 55.2759C25.0702 55.5881 24.7705 55.5717 24.6108 55.1632C24.4249 54.6885 24.3106 54.1805 24.2121 53.6779C24.146 53.3405 24.1618 52.9861 24.1411 52.6405C24.1624 50.1828 24.9121 47.9494 26.1842 45.8702C26.7086 45.0127 27.2796 44.1956 28.1518 43.6531C28.4233 43.4846 28.7168 43.3547 29.0241 43.267C29.4889 43.1363 29.7744 43.3513 29.6973 43.8172ZM39.0839 55.7762L42.4575 51.8371C42.5981 53.3 40.1114 56.2203 39.0839 55.7762ZM49.8589 53.1255C49.6205 53.2623 49.3607 53.3607 49.1163 53.487C48.8926 53.603 48.8188 53.4859 48.8122 53.2934C48.8091 53.1602 48.8262 53.0272 48.8631 52.8991C49.3186 51.2924 50.157 49.9209 51.4044 48.8052L51.4919 48.7604C52.0853 50.4202 51.3995 52.2429 49.8589 53.1255Z" fill="#CB6699"/>
    </g>
    <g id="ts">
        <g clip-path="url(#clip0_114357_4858)">
        <path d="M12.3977 25.7031H66.9047V65.9914H12.3977V25.7031Z" fill="white"/>
        <path d="M1 36V71H71V1H1V36ZM57.4088 33.2C59.0854 33.5891 60.6092 34.4659 61.788 35.72C62.4369 36.3957 63.001 37.1479 63.468 37.96C63.468 38.0496 60.444 40.0936 58.6016 41.236C58.5344 41.2808 58.2656 40.9896 57.9688 40.5472C57.6325 39.9669 57.1546 39.4812 56.5798 39.1355C56.0049 38.7898 55.3519 38.5954 54.6816 38.5704C52.5592 38.4248 51.1928 39.5392 51.204 41.3704C51.187 41.8263 51.2913 42.2785 51.5064 42.6808C51.9712 43.6496 52.8392 44.2264 55.5608 45.4024C60.5728 47.5584 62.7176 48.9808 64.0504 51.0024C65.54 53.2424 65.8704 56.86 64.8624 59.5368C63.7424 62.4488 60.9984 64.4256 57.1176 65.0808C55.3451 65.2839 53.5542 65.2651 51.7864 65.0248C49.0769 64.5782 46.5811 63.2773 44.6632 61.312C44.0192 60.6008 42.7648 58.7472 42.8432 58.6128C43.0472 58.4605 43.2625 58.3238 43.4872 58.204L46.08 56.7704L48.0904 55.6056L48.5104 56.2272C49.2194 57.2409 50.1215 58.1049 51.1648 58.7696C53.4048 59.9456 56.4624 59.7832 57.9744 58.4224C58.4821 57.9237 58.7988 57.2629 58.8694 56.5548C58.94 55.8467 58.76 55.1363 58.3608 54.5472C57.8008 53.7688 56.6808 53.1136 53.5504 51.7472C49.9384 50.1904 48.3816 49.2272 46.9592 47.6928C46.0715 46.68 45.416 45.4855 45.0384 44.1928C44.757 42.7158 44.7154 41.2031 44.9152 39.7128C45.66 36.224 48.2752 33.788 52.0944 33.0656C53.8631 32.8471 55.6547 32.8962 57.4088 33.2112V33.2ZM40.9784 36.1344V39.0016H31.8896V64.8904H25.444V38.996H16.3328V36.196C16.3042 35.2304 16.3267 34.264 16.4 33.3008C16.4448 33.2504 22 33.2504 28.72 33.2504H40.9448L40.9784 36.1344Z" fill="#007ACC"/>
        </g>
        <defs>
        <clipPath id="clip0_114357_4858">
        <rect width="70" height="70" fill="white"/>
        </clipPath>
        </defs>
    </g>
    <g id="router">
        <path d="M54.1624 27.5161C52.1685 26.8883 51.1393 27.0999 49.0486 26.8708C45.8165 26.5181 44.5286 25.2526 43.9823 21.9965C43.6766 20.1787 44.0376 17.517 43.2572 15.8693C41.7647 12.727 38.2724 11.3177 34.7642 12.1221C31.8018 12.8024 29.337 15.7676 29.2003 18.8115C29.0444 22.2869 31.0214 25.2526 34.4158 26.2763C36.0291 26.7631 37.7425 27.0081 39.4268 27.1322C42.5161 27.3581 42.7535 29.078 43.5886 30.4938C44.1158 31.3863 44.626 32.2657 44.626 34.9274C44.626 37.589 44.1125 38.4678 43.5891 39.3603C42.7535 40.7729 41.7226 41.6982 38.6333 41.9268C36.949 42.0515 35.2318 42.2965 33.6229 42.7838C30.2279 43.8102 28.2509 46.7721 28.4068 50.2481C28.5435 53.292 31.0083 56.2571 33.9707 56.9374C37.4789 57.7446 40.9712 56.3326 42.4636 53.1902C43.2473 51.5425 43.6766 49.6755 43.9823 47.8582C44.5319 44.6016 45.8198 43.3361 49.0486 42.9828C51.1393 42.7542 53.3033 42.9828 55.2627 41.8683C57.3326 40.3534 59.1827 38.0785 59.1827 34.9274C59.1827 31.7752 57.1894 28.4709 54.1624 27.5161Z" fill="#F44250"/>
        <path d="M21 42.3134C16.9258 42.3134 13.6019 38.9786 13.6019 34.8896C13.6019 30.8006 16.9253 27.4663 20.9995 27.4663C25.0737 27.4663 28.3976 30.8012 28.3976 34.8896C28.3976 38.9747 25.071 42.3134 20.9995 42.3134H21ZM7.3719 57.4001C3.30315 57.3902 -0.00982187 54.0422 2.18798e-05 49.95C0.00986563 45.8648 3.34635 42.5398 7.42385 42.5529C11.4948 42.5628 14.8083 45.9108 14.7957 50.0025C14.7859 54.0844 11.4488 57.4099 7.3719 57.4001ZM62.3394 57.4001C58.2586 57.4225 54.9096 54.1106 54.886 50.032C54.8636 45.937 58.164 42.5759 62.2284 42.5529C66.3092 42.53 69.6588 45.8419 69.6817 49.9204C69.7042 54.0122 66.4038 57.3771 62.3394 57.4001Z" fill="#121212"/>
    </g>
    <g id="git">
        <g clip-path="url(#clip0_114357_4888)">
        <path d="M68.2154 31.9255L38.0739 1.78499C36.3392 0.049209 33.5239 0.049209 31.7864 1.78499L25.528 8.04452L33.4675 15.9841C35.3132 15.3612 37.4286 15.779 38.8991 17.2495C40.3773 18.7294 40.7918 20.8627 40.1536 22.7144L47.8055 30.3669C49.6567 29.7287 51.7933 30.141 53.271 31.6219C55.3382 33.6875 55.3382 37.036 53.271 39.1026C52.7797 39.5941 52.1965 39.984 51.5545 40.25C50.9125 40.516 50.2244 40.6529 49.5295 40.6529C48.8346 40.6529 48.1465 40.516 47.5046 40.25C46.8626 39.984 46.2793 39.5941 45.7881 39.1026C45.0502 38.364 44.5472 37.4237 44.3424 36.3999C44.1376 35.3761 44.24 34.3147 44.6369 33.349L37.5013 26.2133L37.5002 44.9936C38.018 45.2485 38.4906 45.5861 38.8997 45.9933C40.9657 48.0588 40.9657 51.4062 38.8997 53.4762C36.833 55.5417 33.4834 55.5417 31.4189 53.4762C29.3529 51.4068 29.3529 48.0594 31.4189 45.9933C31.9144 45.4981 32.5031 45.1059 33.1509 44.8394V25.8852C32.5023 25.6199 31.9134 25.2273 31.4189 24.7308C29.8538 23.1667 29.477 20.8698 30.2798 18.947L22.4524 11.1196L1.78489 31.786C0.951074 32.6201 0.482666 33.7512 0.482666 34.9305C0.482666 36.1099 0.951074 37.241 1.78489 38.0751L31.927 68.2155C33.6628 69.9513 36.477 69.9513 38.2155 68.2155L68.216 38.2151C69.0496 37.3808 69.5178 36.2496 69.5177 35.0702C69.5176 33.8907 69.0492 32.7596 68.2154 31.9255Z" fill="#F34F29"/>
        </g>
        <defs>
        <clipPath id="clip0_114357_4888">
        <rect width="70" height="70" fill="white"/>
        </clipPath>
    </defs>
    </g>
    <g id="vite">
        <path d="M68.2313 10.6749L36.8177 66.8488C36.1686 68.0087 34.5022 68.0153 33.8444 66.8619L1.80733 10.6815C1.08928 9.42257 2.16389 7.89952 3.59068 8.15382L35.0382 13.7741C35.2389 13.8106 35.4445 13.8106 35.6452 13.7741L66.4343 8.16257C67.8551 7.9039 68.9362 9.41437 68.2313 10.6749Z" fill="url(#paint0_linear_114357_4890)"/>
        <path d="M50.0172 0.782079L26.7717 5.33645C26.5862 5.37271 26.4179 5.46956 26.2934 5.6118C26.1689 5.75404 26.0951 5.93361 26.0837 6.12231L24.6526 30.2767C24.6449 30.4091 24.6681 30.5416 24.7205 30.6635C24.7728 30.7854 24.8528 30.8935 24.9542 30.9791C25.0555 31.0648 25.1754 31.1256 25.3044 31.1569C25.4333 31.1882 25.5678 31.189 25.6971 31.1593L32.1699 29.6636C32.3093 29.6316 32.4545 29.6351 32.5922 29.6738C32.7299 29.7125 32.8557 29.7851 32.958 29.885C33.0604 29.985 33.136 30.109 33.1779 30.2457C33.2198 30.3825 33.2268 30.5276 33.198 30.6677L31.2747 40.0843C31.2453 40.2293 31.254 40.3794 31.3 40.5199C31.346 40.6605 31.4277 40.7866 31.5372 40.8861C31.6466 40.9856 31.7799 41.055 31.9242 41.0875C32.0685 41.12 32.2187 41.1145 32.3602 41.0715L36.3568 39.8558C36.9764 39.6676 37.5725 40.2123 37.4423 40.8467L34.3853 55.638C34.195 56.5633 35.4255 57.0675 35.9384 56.2746L36.2802 55.7452L55.224 17.9397C55.5423 17.3054 54.9937 16.5835 54.2997 16.718L47.6361 18.0043C47.4927 18.0321 47.3445 18.0226 47.2059 17.9768C47.0672 17.9309 46.9426 17.8501 46.8442 17.7422C46.7457 17.6343 46.6767 17.5029 46.6436 17.3606C46.6106 17.2183 46.6147 17.0699 46.6555 16.9297L51.0032 1.85669C51.0441 1.71595 51.048 1.56705 51.0146 1.42435C50.9812 1.28165 50.9116 1.14996 50.8125 1.04197C50.7134 0.933981 50.5882 0.853341 50.4489 0.80782C50.3096 0.7623 50.1609 0.753434 50.0172 0.782079Z" fill="url(#paint1_linear_114357_4890)"/>
        <defs>
        <linearGradient id="paint0_linear_114357_4890" x1="1.02431" y1="6.14657" x2="40.1225" y2="59.245" gradientUnits="userSpaceOnUse">
        <stop stop-color="#41D1FF"/>
        <stop offset="1" stop-color="#BD34FE"/>
        </linearGradient>
        <linearGradient id="paint1_linear_114357_4890" x1="33.2336" y1="2.01801" x2="40.3063" y2="50.5358" gradientUnits="userSpaceOnUse">
        <stop stop-color="#FFEA83"/>
        <stop offset="0.083" stop-color="#FFDD35"/>
        <stop offset="1" stop-color="#FFA800"/>
        </linearGradient>
        </defs>
    </g>
    <g id="shadcn">
        <g clip-path="url(#clip0_114358_5001)">
        <path d="M62.5232 33.2331L33.2331 62.5232C31.4271 64.3293 31.4271 67.1955 33.2331 69.0016C34.0872 69.8551 35.2452 70.3346 36.4527 70.3346C37.6602 70.3346 38.8182 69.8551 39.6722 69.0016L68.9623 39.7115C70.7684 37.9054 70.7684 35.0392 68.9623 33.2331C67.1562 31.4271 64.29 31.4271 62.4839 33.2331H62.5232ZM63.1514 0.998366C61.3453 -0.807724 58.4791 -0.807724 56.673 0.998366L0.998366 56.673C-0.807724 58.4791 -0.807724 61.3453 0.998366 63.1514C1.85242 64.005 3.01046 64.4844 4.21792 64.4844C5.42537 64.4844 6.58342 64.005 7.43747 63.1514L63.1121 7.47673C64.9182 5.67064 64.9182 2.80446 63.1121 0.998366H63.1514Z" fill="white"/>
        </g>
        <defs>
        <clipPath id="clip0_114358_5001">
        <rect width="70" height="70" fill="white"/>
        </clipPath>
        </defs>
    </g>
    <g id="formik">
        <path d="M59.9229 30.0271L51.8933 25.41L51.8962 15.785L59.9258 20.3992L59.9229 30.0271ZM59.92 40.4979L51.8933 35.8808V26.6875L59.9229 31.3017L59.92 40.4979ZM59.9958 51.0854L51.87 46.4188L51.8729 37.2225L59.9987 41.8921L59.9958 51.0854ZM39.1358 32.1096L50.7966 25.4071V16.2167L39.1387 22.9192L39.1358 32.1096ZM31.9171 46.6433L50.75 35.8196V26.6233L31.9171 37.45V46.6433ZM19.25 64.5604L50.8171 46.4158V37.2225L19.2529 55.3642L19.25 64.5604ZM27.9708 70L19.8916 65.3538L51.345 47.2675L59.4241 51.9138L27.9708 70ZM10.0771 40.1858L18.1066 44.8L18.1037 54.6L10.0741 49.9858L10.0771 40.1858ZM10.08 29.715L18.1066 34.3292V43.5254L10.0741 38.9083L10.08 29.715ZM10.0041 19.18L18.13 23.8525L18.1271 33.0488L10.0012 28.3763L10.0041 19.18ZM30.8612 38.0975L19.2033 44.8V53.9933L30.8612 47.2908V38.0975ZM38.0829 23.5638L19.2471 34.3875V43.5838L38.08 32.7571L38.0829 23.5638ZM50.7937 5.62042L19.1829 23.7912V32.9846L50.7937 14.8138V5.62042ZM42.3908 0L50.47 4.64625L18.655 22.9396L10.5758 18.2933L42.3908 0Z" fill="#0D99FF"/>
    </g>
    <g id="styled">
        <g clip-path="url(#clip0_114358_5011)">
            <path d="M0 64.1868V47.727L19.0291 32.3773C23.2652 28.9604 27.3984 27.8841 31.8057 30.3248C33.5251 31.2764 34.137 34.4259 33.0334 36.8523L0 64.1868Z" fill="url(#paint0_linear_114358_5011)"/>
            <path d="M17.9784 33.5076C21.5315 29.1878 26.3117 25.3105 31.9276 21.9166C35.648 19.6689 38.6394 24.2829 35.4243 28.9089C32.0938 33.2965 27.5602 37.0727 23.8655 39.6627C21.3849 41.4012 16.3608 35.4752 17.9784 33.5076Z" fill="url(#paint1_linear_114358_5011)"/>
            <path d="M17.9784 33.5076C21.5315 29.1878 26.3117 25.3105 31.9276 21.9166C35.648 19.6689 38.6394 24.2829 35.4243 28.9089C32.0938 33.2965 27.5602 37.0727 23.8655 39.6627C21.3849 41.4012 16.3608 35.4752 17.9784 33.5076Z" fill="url(#paint2_radial_114358_5011)"/>
            <path d="M0 64.1868V69.6627H16.0929L45.5826 45.7019C48.5521 42.8581 48.2152 38.1331 46.7425 35.5486C43.6548 30.1241 37.3253 35.0176 33.0334 36.8523L0 64.1868Z" fill="url(#paint3_linear_114358_5011)"/>
            <path d="M32.1196 37.2257C34.9704 34.1003 47.5721 23.1305 49.8996 25.4941C52.016 27.6445 50.855 32.3837 45.809 37.952C41.8118 42.3603 36.7762 45.3288 34.1578 43.2539C31.9845 41.5345 30.4565 39.049 32.1196 37.2257Z" fill="url(#paint4_linear_114358_5011)"/>
            <path d="M32.1196 37.2257C34.9704 34.1003 47.5721 23.1305 49.8996 25.4941C52.016 27.6445 50.855 32.3837 45.809 37.952C41.8118 42.3603 36.7762 45.3288 34.1578 43.2539C31.9845 41.5345 30.4565 39.049 32.1196 37.2257Z" fill="url(#paint5_radial_114358_5011)"/>
            <path d="M16.0928 69.6625H40.8203C47.4254 63.2761 55.7139 55.6811 52.2647 49.7343C50.2325 46.2349 47.8788 45.5961 45.5825 45.7011L16.0928 69.6625Z" fill="url(#paint6_linear_114358_5011)"/>
            <path d="M55.1185 40.3956C54.4032 36.1004 39.3187 48.9153 38.4093 50.609C37.5299 52.2464 39.7825 58.5179 43.3514 56.9156C47.9205 54.7565 56.303 47.506 55.1185 40.3956Z" fill="url(#paint7_linear_114358_5011)"/>
            <path d="M55.1185 40.3956C54.4032 36.1004 39.3187 48.9153 38.4093 50.609C37.5299 52.2464 39.7825 58.5179 43.3514 56.9156C47.9205 54.7565 56.303 47.506 55.1185 40.3956Z" fill="url(#paint8_radial_114358_5011)"/>
            <path d="M56.0843 31.2593C51.1586 34.966 54.3518 41.0073 48.6533 44.3088C56.0968 45.8483 60.6846 35.4522 59.4765 31.6388L56.0843 31.2593Z" fill="url(#paint9_linear_114358_5011)"/>
            <path d="M56.0843 31.2593C51.1586 34.966 54.3518 41.0073 48.6533 44.3088C56.0968 45.8483 60.6846 35.4522 59.4765 31.6388L56.0843 31.2593Z" fill="url(#paint10_radial_114358_5011)"/>
            <path d="M65.818 11.2147L59.4852 32.0507C58.2843 32.533 56.8876 32.201 56.0957 31.226L61.1111 9.73706L65.818 11.2147Z" fill="url(#paint11_linear_114358_5011)"/>
            <path d="M70 0.337402V13.4077C65.6458 15.1435 54.6274 10.8019 55.9103 6.70576L57.9037 0.337402H70Z" fill="url(#paint12_linear_114358_5011)"/>
            </g>
            <defs>
            <linearGradient id="paint0_linear_114358_5011" x1="8.23068" y1="39.8891" x2="16.4276" y2="50.1548" gradientUnits="userSpaceOnUse">
            <stop offset="0.085" stop-color="#CC7F12"/>
            <stop offset="0.127" stop-color="#FFC22F"/>
            <stop offset="0.5" stop-color="#FFD468"/>
            <stop offset="1" stop-color="#FFD255"/>
            </linearGradient>
            <linearGradient id="paint1_linear_114358_5011" x1="22.7973" y1="26.9009" x2="30.0763" y2="35.5741" gradientUnits="userSpaceOnUse">
            <stop stop-color="#BF4F95"/>
            <stop offset="0.284" stop-color="#D26AAA"/>
            <stop offset="0.588" stop-color="#DC81BB"/>
            <stop offset="0.711" stop-color="#D76CAD"/>
            <stop offset="0.825" stop-color="#D26CAB"/>
            <stop offset="0.957" stop-color="#CA629D"/>
            <stop offset="1" stop-color="#C96499"/>
            </linearGradient>
            <radialGradient id="paint2_radial_114358_5011" cx="0" cy="0" r="1" gradientUnits="userSpaceOnUse" gradientTransform="translate(27.6936 30.4489) rotate(44.195) scale(6.83442 12.9445)">
            <stop stop-color="#B94481" stop-opacity="0"/>
            <stop offset="0.694" stop-color="#B94481" stop-opacity="0.186"/>
            <stop offset="1" stop-color="#B94481"/>
            </radialGradient>
            <linearGradient id="paint3_linear_114358_5011" x1="19.2109" y1="46.5544" x2="30.1129" y2="59.6695" gradientUnits="userSpaceOnUse">
            <stop offset="0.027" stop-color="#CC7F12"/>
            <stop offset="0.157" stop-color="#FFC22F"/>
            <stop offset="0.5" stop-color="#FFD468"/>
            <stop offset="1" stop-color="#FFD255"/>
            </linearGradient>
            <linearGradient id="paint4_linear_114358_5011" x1="38.7201" y1="31.7372" x2="44.3371" y2="38.3035" gradientUnits="userSpaceOnUse">
            <stop stop-color="#BF4F95"/>
            <stop offset="0.284" stop-color="#D26AAA"/>
            <stop offset="0.588" stop-color="#DC81BA"/>
            <stop offset="0.711" stop-color="#D76CAD"/>
            <stop offset="0.825" stop-color="#D26CAB"/>
            <stop offset="0.957" stop-color="#CA629D"/>
            <stop offset="1" stop-color="#C96499"/>
            </linearGradient>
            <radialGradient id="paint5_radial_114358_5011" cx="0" cy="0" r="1" gradientUnits="userSpaceOnUse" gradientTransform="translate(41.1587 34.5467) rotate(42.07) scale(7.40322 13.0428)">
            <stop stop-color="#B94481" stop-opacity="0"/>
            <stop offset="0.694" stop-color="#B94481" stop-opacity="0.186"/>
            <stop offset="1" stop-color="#B94481"/>
            </radialGradient>
            <linearGradient id="paint6_linear_114358_5011" x1="30.676" y1="56.168" x2="41.6006" y2="69.7351" gradientUnits="userSpaceOnUse">
            <stop offset="0.027" stop-color="#CC7F12"/>
            <stop offset="0.157" stop-color="#FFC22F"/>
            <stop offset="0.5" stop-color="#FFD468"/>
            <stop offset="1" stop-color="#FFD255"/>
            </linearGradient>
            <linearGradient id="paint7_linear_114358_5011" x1="43.3905" y1="44.5793" x2="49.1501" y2="51.4985" gradientUnits="userSpaceOnUse">
            <stop stop-color="#BF4F95"/>
            <stop offset="0.284" stop-color="#D26AAA"/>
            <stop offset="0.588" stop-color="#DC81BB"/>
            <stop offset="0.711" stop-color="#D76CAD"/>
            <stop offset="0.825" stop-color="#D26CAB"/>
            <stop offset="0.957" stop-color="#CA629D"/>
            <stop offset="1" stop-color="#C96499"/>
            </linearGradient>
            <radialGradient id="paint8_radial_114358_5011" cx="0" cy="0" r="1" gradientUnits="userSpaceOnUse" gradientTransform="translate(46.7122 48.7579) rotate(-40.472) scale(13.4496 5.0638)">
            <stop stop-color="#B94481" stop-opacity="0"/>
            <stop offset="0.644" stop-color="#B94481" stop-opacity="0.186"/>
            <stop offset="1" stop-color="#B94481"/>
            </radialGradient>
            <linearGradient id="paint9_linear_114358_5011" x1="57.3337" y1="34.5023" x2="51.6055" y2="43.1547" gradientUnits="userSpaceOnUse">
            <stop stop-color="#DC83B9"/>
            <stop offset="0.159" stop-color="#DE77B5"/>
            <stop offset="0.56" stop-color="#DD74B3"/>
            <stop offset="0.797" stop-color="#D65FA3"/>
            <stop offset="1" stop-color="#C95195" stop-opacity="0.992"/>
            </linearGradient>
            <radialGradient id="paint10_radial_114358_5011" cx="0" cy="0" r="1" gradientUnits="userSpaceOnUse" gradientTransform="translate(55.2813 38.4039) rotate(20.482) scale(3.65429 7.96119)">
            <stop stop-color="#B94481" stop-opacity="0"/>
            <stop offset="0.644" stop-color="#B94481" stop-opacity="0.186"/>
            <stop offset="1" stop-color="#B94481"/>
            </radialGradient>
            <linearGradient id="paint11_linear_114358_5011" x1="56.0935" y1="21.0045" x2="66.2636" y2="23.5861" gradientUnits="userSpaceOnUse">
            <stop offset="0.195" stop-color="#974377"/>
            <stop offset="0.247" stop-color="#CC76AC"/>
            <stop offset="0.33" stop-color="#F5A3D4"/>
            <stop offset="0.39" stop-color="#FCA6DA"/>
            <stop offset="0.476" stop-color="#E980C1"/>
            <stop offset="0.62" stop-color="#A34D81"/>
            </linearGradient>
            <linearGradient id="paint12_linear_114358_5011" x1="55.8054" y1="7.06821" x2="70.7737" y2="11.3275" gradientUnits="userSpaceOnUse">
            <stop offset="0.021" stop-color="#A65486"/>
            <stop offset="0.095" stop-color="#DB77B4"/>
            <stop offset="0.146" stop-color="#F188C8"/>
            <stop offset="0.255" stop-color="#FFADDF"/>
            <stop offset="0.372" stop-color="#FFADDF"/>
            <stop offset="0.576" stop-color="#EE84C5"/>
            <stop offset="0.747" stop-color="#DA6FB0"/>
            <stop offset="1" stop-color="#A63D7B"/>
            </linearGradient>
            <clipPath id="clip0_114358_5011">
            <rect width="70" height="70" fill="white"/>
            </clipPath>
            </defs>
    </g>
    <g id="material">
        <path d="M0.109375 37.5156V7.32812L26.25 22.4219V32.4844L8.80469 22.4219V42.5469L0.109375 37.5156Z" fill="#1FA6CA"/>
        <path d="M26.25 22.4219L52.4453 7.32812V37.5703L35 47.5781L26.25 42.5469L43.75 32.4844V22.4219L26.25 32.4844V22.4219Z" fill="#1C7FB6"/>
        <path d="M26.25 42.5469V52.6094L43.75 62.6719V52.6094L26.25 42.5469Z" fill="#1FA6CA"/>
        <path d="M43.75 62.6719L69.8906 47.5781V27.4531L61.1406 32.4844V42.5469L43.75 52.6094V62.6719ZM61.1953 22.4219V12.3594L69.9453 7.32812V17.3906L61.1953 22.4219Z" fill="#1C7FB6"/>
    </g>

    <g id="bun">
        <g clip-path="url(#clip0_114357_4898)">
        <path d="M70.1139 32.6252C70.1139 47.4565 54.7486 59.479 35.7928 59.479C16.837 59.479 1.47168 47.3515 1.47168 32.6252C1.47168 23.4377 7.38547 15.3002 16.4146 10.4702C25.4437 5.64022 31.067 0.626465 35.7928 0.626465C40.5186 0.626465 44.5579 4.66897 55.171 10.3652C64.2001 15.1952 70.1139 23.3327 70.1139 32.6252Z" fill="#FBF0DF"/>
        <path d="M35.5356 60.5812C54.861 60.5812 71.0711 48.375 71.0711 32.625C71.0711 22.86 64.8141 14.25 55.521 9.3937C51.8513 7.42495 49.0264 5.69245 46.6239 4.1437L43.6406 2.33245C41.2529 0.651802 38.4522 -0.355037 35.5356 -0.581299C32.3995 -0.272466 29.3976 0.840021 26.8233 2.64745C25.7144 3.27745 24.5528 3.9862 23.3384 4.74745C21.0415 6.16495 18.507 7.7137 15.4181 9.2887C6.257 14.25 0 22.755 0 32.625C0 48.375 16.2101 60.5812 35.5356 60.5812Z" stroke="black" stroke-width="0.5"/>
        <path d="M50.7095 40.2373C53.8735 40.2373 56.4384 38.733 56.4384 36.8773C56.4384 35.0217 53.8735 33.5173 50.7095 33.5173C47.5454 33.5173 44.9805 35.0217 44.9805 36.8773C44.9805 38.733 47.5454 40.2373 50.7095 40.2373Z" fill="#FEBBD0"/>
        <path d="M21.0347 40.2373C24.1987 40.2373 26.7636 38.733 26.7636 36.8773C26.7636 35.0217 24.1987 33.5173 21.0347 33.5173C17.8706 33.5173 15.3057 35.0217 15.3057 36.8773C15.3057 38.733 17.8706 40.2373 21.0347 40.2373Z" fill="#FEBBD0"/>
        <path fill-rule="evenodd" clip-rule="evenodd" d="M23.7279 35.5388C24.7666 35.5385 25.782 35.2336 26.6472 34.6623C27.5125 34.0911 28.189 33.2787 28.5923 32.3271C28.9955 31.3754 29.1075 30.3266 28.9142 29.3119C28.721 28.2973 28.231 27.3618 27.5057 26.6226C26.7804 25.8834 25.852 25.3734 24.8366 25.1562C23.8212 24.939 22.7639 25.0245 21.7971 25.4018C20.8303 25.7791 19.9968 26.4315 19.4011 27.2775C18.8053 28.1234 18.4737 29.1252 18.4478 30.1576C18.4473 31.5623 18.9994 32.9115 19.986 33.917C20.9726 34.9225 22.3155 35.5046 23.7279 35.5388ZM48.0167 35.5388C49.0553 35.5385 50.0708 35.2336 50.936 34.6623C51.8013 34.0911 52.4778 33.2787 52.8811 32.3271C53.2843 31.3754 53.3963 30.3266 53.203 29.3119C53.0098 28.2973 52.5198 27.3618 51.7945 26.6226C51.0692 25.8834 50.1408 25.3734 49.1254 25.1562C48.11 24.939 47.0527 25.0245 46.0859 25.4018C45.1191 25.7791 44.2856 26.4315 43.6899 27.2775C43.0941 28.1234 42.7625 29.1252 42.7365 30.1576C42.7189 30.858 42.8425 31.5548 43.0999 32.207C43.3574 32.8592 43.7435 33.4535 44.2356 33.955C44.7277 34.4565 45.3157 34.855 45.9651 35.127C46.6145 35.399 47.3121 35.539 48.0167 35.5388Z" fill="black"/>
        <path fill-rule="evenodd" clip-rule="evenodd" d="M22.0379 30.4989C22.441 30.5041 22.8366 30.39 23.1744 30.1711C23.5121 29.9522 23.7768 29.6383 23.9347 29.2695C24.0927 28.9006 24.1367 28.4934 24.0613 28.0996C23.9858 27.7058 23.7943 27.3432 23.5111 27.0579C23.2279 26.7726 22.8657 26.5775 22.4707 26.4973C22.0757 26.4172 21.6656 26.4557 21.2926 26.6079C20.9196 26.76 20.6005 27.0191 20.3759 27.352C20.1514 27.6849 20.0315 28.0767 20.0314 28.4776C20.0279 28.7418 20.0772 29.0041 20.1765 29.2491C20.2758 29.4942 20.423 29.7173 20.6097 29.9053C20.7964 30.0933 21.0187 30.2426 21.2639 30.3445C21.5091 30.4464 21.7722 30.4989 22.0379 30.4989ZM46.3267 30.4989C46.6113 30.5313 46.8996 30.5035 47.1727 30.4174C47.4457 30.3313 47.6974 30.1887 47.9112 29.9991C48.125 29.8095 48.296 29.5771 48.4132 29.3172C48.5303 29.0572 48.5908 28.7756 48.5908 28.4907C48.5908 28.2059 48.5303 27.9243 48.4132 27.6643C48.296 27.4044 48.125 27.172 47.9112 26.9824C47.6974 26.7928 47.4457 26.6502 47.1727 26.5641C46.8996 26.478 46.6113 26.4502 46.3267 26.4826C45.8308 26.5391 45.3732 26.7749 45.0409 27.1453C44.7087 27.5156 44.5251 27.9945 44.5251 28.4907C44.5251 28.987 44.7087 29.4659 45.0409 29.8362C45.3732 30.2066 45.8308 30.4424 46.3267 30.4989Z" fill="white"/>
        <path d="M42.7101 39.6337C42.2689 41.4313 41.2604 43.0411 39.8324 44.2275C38.7592 45.2633 37.3616 45.9024 35.8723 46.0387C34.3857 45.8923 32.9913 45.2546 31.9121 44.2275C30.491 43.0397 29.4914 41.4293 29.0608 39.6337C29.0435 39.5287 29.0511 39.4211 29.083 39.3196C29.1149 39.218 29.1703 39.1252 29.2446 39.0487C29.319 38.9722 29.4104 38.9141 29.5114 38.8789C29.6124 38.8437 29.7203 38.8326 29.8265 38.8462H41.9181C42.0251 38.8336 42.1337 38.8452 42.2356 38.8803C42.3375 38.9154 42.43 38.9731 42.5063 39.0489C42.5825 39.1247 42.6405 39.2167 42.6758 39.318C42.7111 39.4193 42.7228 39.5273 42.7101 39.6337Z" fill="#B71422" stroke="black" stroke-width="0.375"/>
        <path fill-rule="evenodd" clip-rule="evenodd" d="M32.9683 3.09368C32.9771 5.39033 32.4889 7.66199 31.5368 9.7545C30.5848 11.847 29.1911 13.7114 27.4505 15.2212C27.1865 15.4574 27.4505 15.9299 27.7409 15.7987C31.041 14.5124 35.5028 10.7062 33.6283 2.98868C33.5491 2.59493 32.9683 2.69993 32.9683 3.09368ZM35.2123 3.09368C36.404 5.04258 37.1558 7.22558 37.4156 9.49173C37.6754 11.7579 37.4371 14.0531 36.7172 16.2187C36.7172 16.5599 37.034 16.8487 37.2716 16.5599C39.4629 13.9349 41.3373 8.39618 35.714 2.62118C35.45 2.33243 35.0011 2.72617 35.2123 3.06742V3.09368ZM37.8524 2.93618C39.7281 4.26611 41.2949 5.98067 42.4472 7.96411C43.5995 9.94756 44.3104 12.1537 44.5318 14.4337C44.5318 14.8012 45.0863 14.8799 45.1655 14.4337C46.0631 11.0212 45.5615 5.21993 38.1428 2.20118C37.826 2.14868 37.5884 2.67368 37.9052 2.90993L37.8524 2.93618ZM19.7942 13.0687C22.0283 12.4122 24.0979 11.2943 25.8676 9.78798C27.6373 8.28169 29.0673 6.42094 30.0642 4.32743C30.249 3.98618 30.8034 4.11743 30.7242 4.51118C29.0345 12.3862 23.3584 13.9349 19.8206 13.7249C19.451 13.6987 19.451 13.1737 19.7942 13.0687Z" fill="#CCBEA7"/>
        </g>
        <defs>
        <clipPath id="clip0_114357_4898">
        <rect width="72" height="60" fill="white"/>
        </clipPath>
        </defs>
        </g>
    <g id="docker">
        <g clip-path="url(#clip0_114357_4871)">
        <path fill-rule="evenodd" clip-rule="evenodd" d="M57.6564 17.7131H66.4845V26.675H70.9376C72.9689 26.675 75.0782 26.2854 77.0313 25.662C77.9688 25.3502 79.0626 24.8827 80.0001 24.3372C78.7501 22.7006 78.1251 20.6745 77.9689 18.6483C77.7345 15.9208 78.2813 12.336 80.1563 10.2319L81.0939 9.14087L82.1876 9.9981C85.0001 12.2581 87.2657 15.2973 87.7345 18.8821C91.0939 17.869 95.0001 18.1028 97.9689 19.8172L99.1407 20.5186L98.5157 21.7655C96.0157 26.5971 90.7813 28.1557 85.7032 27.844C78.047 46.7809 61.4845 55.7428 41.3282 55.7428C30.9376 55.7428 21.4063 51.8463 15.9376 42.6506L15.8595 42.4948L15.0782 40.8582C13.2032 36.8059 12.6563 32.3639 13.047 27.9219L13.2032 26.5971H20.7032V17.7131H29.5313V8.98501H47.1095V0.178955H57.6564V17.7131Z" fill="#3A4D54"/>
        <path d="M86.2499 21.0643C86.8749 16.4665 83.4374 12.8817 81.2499 11.1672C78.828 13.9727 78.4374 21.454 82.2655 24.5711C80.078 26.4415 75.6249 28.2338 70.9374 28.2338H14.5312C14.0624 33.0655 14.9218 37.5075 16.8749 41.326L17.4999 42.495C17.8905 43.1963 18.3593 43.8198 18.828 44.5211C21.1718 44.677 23.2812 44.7549 25.2343 44.677C29.0624 44.5991 32.1874 44.1315 34.6093 43.3522C34.9999 43.1963 35.3124 43.4301 35.4687 43.7418C35.6249 44.1315 35.3905 44.4432 35.078 44.5991C34.7655 44.677 34.453 44.8329 34.0624 44.9108C32.1874 45.4563 30.1562 45.768 27.578 45.9239H27.1093C26.0937 46.0018 24.9999 46.0018 23.828 46.0018C22.578 46.0018 21.4062 46.0018 19.9999 45.9239C24.6874 51.2231 32.0312 54.3403 41.2499 54.3403C60.7812 54.3403 77.3437 45.6901 84.6093 26.3635C89.8437 26.909 94.8437 25.5842 97.1093 21.1422C93.5937 19.0381 88.9062 19.7395 86.2499 21.0643Z" fill="#00AADA"/>
        <path d="M86.25 21.0643C86.875 16.4665 83.4375 12.8817 81.25 11.1672C78.8281 13.9727 78.4375 21.454 82.2656 24.5711C80.0781 26.4415 75.625 28.2338 70.9375 28.2338H17.8125C17.5781 35.6372 20.3125 41.2481 25.2344 44.5991C29.0625 44.5211 32.1875 44.0536 34.6094 43.2743C35 43.1184 35.3125 43.3522 35.4688 43.6639C35.625 44.0536 35.3906 44.3653 35.0781 44.5211C34.7656 44.5991 34.4531 44.7549 34.0625 44.8329C32.1875 45.3784 30 45.768 27.4219 45.9239L27.3438 45.8459C33.9844 49.2749 43.5938 49.1969 54.6875 44.9887C67.0313 40.235 78.5938 31.1952 86.6406 20.9084C86.4844 20.9864 86.3281 20.9864 86.25 21.0643Z" fill="#28B8EB"/>
        <path d="M14.6094 34.0784C14.9219 36.65 15.7031 39.0659 16.875 41.3258L17.5 42.4948C17.8906 43.1961 18.3594 43.8196 18.8281 44.5209C21.1719 44.6768 23.2812 44.7547 25.2344 44.6768C29.0625 44.5989 32.1875 44.1313 34.6094 43.352C35 43.1961 35.3125 43.4299 35.4688 43.7416C35.625 44.1313 35.3906 44.443 35.0781 44.5989C34.7656 44.6768 34.4531 44.8327 34.0625 44.9106C32.1875 45.4561 30 45.8457 27.4219 46.0016H27.1094C26.0938 46.0795 25 46.0795 23.9063 46.0795C22.6563 46.0795 21.4063 46.0795 20.0781 46.0016C24.7656 51.3008 32.1875 54.418 41.4063 54.418C58.125 54.418 72.6563 48.1057 81.0938 34.1563H14.6094V34.0784Z" fill="#028BB8"/>
        <path d="M18.3594 34.0784C19.375 38.5983 21.7187 42.1831 25.2344 44.5989C29.0625 44.5209 32.1875 44.0534 34.6094 43.2741C35 43.1182 35.3125 43.352 35.4688 43.6637C35.625 44.0534 35.3906 44.3651 35.0781 44.5209C34.7656 44.5989 34.4531 44.7547 34.0625 44.8327C32.1875 45.3782 30 45.7678 27.3438 45.9237C33.9844 49.3526 43.5938 49.2747 54.6094 45.0665C61.25 42.4948 67.7344 38.6762 73.5156 34.0784H18.3594Z" fill="#019BC6"/>
        <path fill-rule="evenodd" clip-rule="evenodd" d="M22.1875 19.1939H29.8438V26.8311H22.1875V19.1939ZM22.8125 19.8174H23.4375V26.1297H22.8125V19.8174ZM23.9063 19.8174H24.5312V26.1297H23.9063V19.8174ZM25.0781 19.8174H25.7031V26.1297H25.0781V19.8174ZM26.25 19.8174H26.875V26.1297H26.25V19.8174ZM27.4219 19.8174H28.0469V26.1297H27.4219V19.8174ZM28.5937 19.8174H29.2188V26.1297H28.5937V19.8174ZM30.9375 10.4658H38.5938V18.1029H30.9375V10.4658ZM31.6406 11.0893H32.2656V17.4016H31.6406V11.0893ZM32.7344 11.0893H33.3594V17.4016H32.7344V11.0893ZM33.9063 11.0893H34.5313V17.4016H33.9063V11.0893ZM35.0781 11.0893H35.7031V17.4016H35.0781V11.0893ZM36.1719 11.0893H36.7969V17.4016H36.1719V11.0893ZM37.3437 11.0893H37.9687V17.4016H37.3437V11.0893Z" fill="#00ACD3"/>
        <path fill-rule="evenodd" clip-rule="evenodd" d="M30.9375 19.1941H38.5938V26.8312H30.9375V19.1941ZM31.6406 19.8175H32.2656V26.1298H31.6406V19.8175ZM32.7344 19.8175H33.3594V26.1298H32.7344V19.8175ZM33.9063 19.8175H34.5313V26.1298H33.9063V19.8175ZM35.0781 19.8175H35.7031V26.1298H35.0781V19.8175ZM36.1719 19.8175H36.7969V26.1298H36.1719V19.8175ZM37.3438 19.8175H37.9688V26.1298H37.3438V19.8175Z" fill="#23C2EE"/>
        <path fill-rule="evenodd" clip-rule="evenodd" d="M39.7656 19.1941H47.4219V26.8312H39.7656V19.1941ZM40.3906 19.8175H41.0156V26.1298H40.3906V19.8175ZM41.5625 19.8175H42.1875V26.1298H41.5625V19.8175ZM42.7344 19.8175H43.3594V26.1298H42.7344V19.8175ZM43.8281 19.8175H44.4531V26.1298H43.8281V19.8175ZM45 19.8175H45.625V26.1298H45V19.8175ZM46.1719 19.8175H46.7969V26.1298H46.1719V19.8175Z" fill="#00ACD3"/>
        <path fill-rule="evenodd" clip-rule="evenodd" d="M39.7656 10.4658H47.4219V18.1029H39.7656V10.4658ZM40.3906 11.0893H41.0156V17.4016H40.3906V11.0893ZM41.5625 11.0893H42.1875V17.4016H41.5625V11.0893ZM42.7344 11.0893H43.3594V17.4016H42.7344V11.0893ZM43.8281 11.0893H44.4531V17.4016H43.8281V11.0893ZM45 11.0893H45.625V17.4016H45V11.0893ZM46.1719 11.0893H46.7969V17.4016H46.1719V11.0893ZM48.5937 19.1939H56.25V26.8311H48.5937V19.1939ZM49.2187 19.8174H49.8437V26.1297H49.2187V19.8174ZM50.3906 19.8174H51.0156V26.1297H50.3906V19.8174ZM51.4844 19.8174H52.1094V26.1297H51.4844V19.8174ZM52.6562 19.8174H53.2812V26.1297H52.6562V19.8174ZM53.8281 19.8174H54.4531V26.1297H53.8281V19.8174ZM55 19.8174H55.625V26.1297H55V19.8174Z" fill="#23C2EE"/>
        <path fill-rule="evenodd" clip-rule="evenodd" d="M48.5938 10.4658H56.25V18.1029H48.5938V10.4658ZM49.2187 11.0893H49.8437V17.4016H49.2187V11.0893ZM50.3906 11.0893H51.0156V17.4016H50.3906V11.0893ZM51.4844 11.0893H52.1094V17.4016H51.4844V11.0893ZM52.6563 11.0893H53.2812V17.4016H52.6563V11.0893ZM53.8281 11.0893H54.4531V17.4016H53.8281V11.0893ZM55 11.0893H55.625V17.4016H55V11.0893Z" fill="#00ACD3"/>
        <path fill-rule="evenodd" clip-rule="evenodd" d="M48.5938 1.65991H56.25V9.29702H48.5938V1.65991ZM49.2187 2.28335H49.8437V8.59565H49.2187V2.28335ZM50.3906 2.28335H51.0156V8.59565H50.3906V2.28335ZM51.4844 2.28335H52.1094V8.59565H51.4844V2.28335ZM52.6563 2.28335H53.2812V8.59565H52.6563V2.28335ZM53.8281 2.28335H54.4531V8.59565H53.8281V2.28335ZM55 2.28335H55.625V8.59565H55V2.28335Z" fill="#23C2EE"/>
        <path fill-rule="evenodd" clip-rule="evenodd" d="M57.4219 19.1941H65.0781V26.8312H57.4219V19.1941ZM58.0469 19.8175H58.6719V26.1298H58.0469V19.8175ZM59.1406 19.8175H59.7656V26.1298H59.1406V19.8175ZM60.3125 19.8175H60.9375V26.1298H60.3125V19.8175ZM61.4844 19.8175H62.1094V26.1298H61.4844V19.8175ZM62.6562 19.8175H63.2813V26.1298H62.6562V19.8175ZM63.8281 19.8175H64.4531V26.1298H63.8281V19.8175Z" fill="#00ACD3"/>
        <path fill-rule="evenodd" clip-rule="evenodd" d="M38.125 39.1438C39.2969 39.1438 40.2344 40.079 40.2344 41.2479C40.2344 42.4168 39.2969 43.352 38.125 43.352C36.9531 43.352 36.0156 42.4168 36.0156 41.2479C36.0156 40.079 36.9531 39.1438 38.125 39.1438Z" fill="#D4EEF1"/>
        <path fill-rule="evenodd" clip-rule="evenodd" d="M38.125 39.7673C38.2813 39.7673 38.5156 39.7673 38.6719 39.8453C38.5156 39.9232 38.3594 40.157 38.3594 40.3908C38.3594 40.7025 38.6719 41.0142 38.9844 41.0142C39.2188 41.0142 39.4531 40.8584 39.5312 40.7025C39.6094 40.8584 39.6094 41.0921 39.6094 41.248C39.6094 42.1052 38.9063 42.7287 38.125 42.7287C37.2656 42.7287 36.6406 42.0273 36.6406 41.248C36.6406 40.4687 37.2656 39.7673 38.125 39.7673ZM0.859375 34.8578H98.8281C96.7188 34.3123 92.1094 33.6109 92.8125 30.8054C88.9063 35.2474 79.6094 33.9226 77.1875 31.7406C74.5313 35.5591 59.2188 34.0785 58.2031 31.1171C54.9219 35.0136 44.6875 35.0136 41.4063 31.1171C40.3125 34.0785 25 35.5591 22.4219 31.7406C20.0781 33.9226 10.7031 35.2474 6.79687 30.8054C7.65625 33.533 2.96875 34.3123 0.859375 34.8578Z" fill="#3A4D54"/>
        <path d="M43.75 54.3402C38.5156 51.8464 35.7031 48.4955 34.0625 44.8328C32.1094 45.3783 29.7656 45.7679 27.1094 45.9238C26.0938 46.0017 25 46.0017 23.9063 46.0017C22.5781 46.0017 21.25 46.0017 19.8438 45.9238C24.5312 50.5996 30.4688 54.2623 41.3281 54.3402H43.75Z" fill="#BFDBE0"/>
        <path d="M36.0156 48.1837C35.3125 47.1707 34.6094 46.0017 34.0625 44.8328C32.1094 45.3783 29.7656 45.7679 27.1094 45.9238C28.9062 46.8589 31.5625 47.7941 36.0156 48.1837Z" fill="#D4EEF1"/>
        </g>
        <defs>
        <clipPath id="clip0_114357_4871">
        <rect width="100" height="56" fill="white"/>
        </clipPath>
        </defs>
    </g>
    <g id="zod">
        <g clip-path="url(#clip0_114358_5071)">
        <path d="M16.6294 3.87085H53.8929L64.8121 15.3718L33.9167 50.283L5.18359 15.3718L16.6294 3.87085Z" fill="#18253F"/>
        <path d="M41.4059 42.0371H26.8005L20.2041 33.8898L38.8974 33.8893L38.8979 32.7334H49.5833L41.4059 42.0371Z" fill="#274D82"/>
        <path d="M61.6765 12.0918L21.3767 35.5651L16.1196 28.9301L47.3186 10.7571L46.7454 9.75548L55.0555 4.9152L61.6765 12.0918ZM40.0848 3.88237L9.82454 21.508L5.11841 15.5811L25.3788 3.78003L40.0848 3.88237Z" fill="#274D82"/>
        <g filter="url(#filter0_d_114358_5071)">
        <path d="M55.3492 0.416504H15.2113L0.546875 15.1351L33.8406 55.5831L36.4968 52.5762L69.4531 15.2736L55.3492 0.416504ZM53.883 3.88188L64.7768 15.3577L33.933 50.2703L5.19531 15.3577L16.6291 3.88188H53.883Z" fill="black"/>
        </g>
        <path d="M55.3492 0.416504H15.2113L0.546875 15.1351L33.8406 55.5831L36.4968 52.5762L69.4531 15.2736L55.3492 0.416504ZM53.883 3.88188L64.7768 15.3577L33.933 50.2703L5.19531 15.3577L16.6291 3.88188H53.883Z" fill="black"/>
        </g>
        <defs>
        <filter id="filter0_d_114358_5071" x="-2.45312" y="-2.5835" width="76.9062" height="63.1665" filterUnits="userSpaceOnUse" color-interpolation-filters="sRGB">
        <feFlood flood-opacity="0" result="BackgroundImageFix"/>
        <feColorMatrix in="SourceAlpha" type="matrix" values="0 0 0 0 0 0 0 0 0 0 0 0 0 0 0 0 0 0 127 0" result="hardAlpha"/>
        <feOffset dx="1" dy="1"/>
        <feGaussianBlur stdDeviation="2"/>
        <feColorMatrix type="matrix" values="0 0 0 0 0 0 0 0 0 0 0 0 0 0 0 0 0 0 0.36 0"/>
        <feBlend mode="normal" in2="BackgroundImageFix" result="effect1_dropShadow_114358_5071"/>
        <feBlend mode="normal" in="SourceGraphic" in2="effect1_dropShadow_114358_5071" result="shape"/>
        </filter>
        <clipPath id="clip0_114358_5071">
        <rect width="70" height="56" fill="white"/>
        </clipPath>
        </defs>
    </g>
    <g id="logo">
        <path fill-rule="evenodd" clip-rule="evenodd" d="M18.3125 42.0645L27.2623 6.6875L31.4375 7.87241L22.4878 43.3125L18.3125 42.0645Z" fill="#7572D5"/>
        <path fill-rule="evenodd" clip-rule="evenodd" d="M13.5025 12.6875L16.5625 15.9278L7.99501 25.0001L16.5625 34.0721L13.5025 37.3125L1.875 25.0001L13.5025 12.6875Z" fill="#7572D5"/>
        <path fill-rule="evenodd" clip-rule="evenodd" d="M36.4976 12.6875L33.4375 15.9278L42.0051 25.0001L33.4375 34.0721L36.4976 37.3125L48.125 25.0001L36.4976 12.6875Z" fill="#7572D5"/>
    </g>
    <g id="moon">
        <rect width="49" height="56" rx="19" fill="url(#pattern0_114179_2514)"/>
        <defs>
        <pattern id="pattern0_114179_2514" patternContentUnits="objectBoundingBox" width="1" height="1">
        </pattern>
        </defs>
    </g>
</svg>
