<svg width="34" height="34" viewBox="0 0 34 34" fill="none" xmlns="http://www.w3.org/2000/svg">
<path d="M8.99712 17.0872C8.99678 15.5042 9.46594 13.9567 10.3452 12.6405C11.2246 11.3242 12.4745 10.2983 13.9369 9.69258C15.3994 9.08682 17.0087 8.92842 18.5612 9.23742C20.1137 9.54642 21.5396 10.3089 22.6587 11.4285C24.1594 12.9293 25.0025 14.9648 25.0025 17.0872C25.0025 19.2096 24.1594 21.245 22.6587 22.7459C21.1579 24.2466 19.1224 25.0896 17 25.0896C14.8776 25.0896 12.8421 24.2466 11.3413 22.7459C9.84046 21.2451 8.99723 19.2096 8.99712 17.0872ZM19.9902 29.2048C19.9902 29.2048 20.1035 29.8325 19.0312 31.7591C18.6497 32.4786 18.178 33.1465 17.6277 33.7468C17.4574 33.9093 17.231 34 16.9956 34C16.7602 34 16.5339 33.9093 16.3636 33.7468C15.8205 33.1653 15.3523 32.5176 14.9688 31.8202C14.4891 31.0148 14.1612 30.1284 14.0011 29.2048C13.9883 28.9941 14.0455 28.785 14.1637 28.61C14.2819 28.435 14.4546 28.304 14.6549 28.2372C15.4221 28.0558 16.211 27.9765 17 28.0018C17.7876 27.9919 18.5732 28.0857 19.3364 28.2807C19.53 28.3443 19.6982 28.4684 19.8159 28.6348C19.9336 28.8012 19.9947 29.001 19.9902 29.2048ZM14.0098 4.75158C14.0098 4.75158 13.8965 4.12391 14.9688 2.19729C15.3534 1.4931 15.825 0.839977 16.3723 0.253232C16.5426 0.0906926 16.769 2.38419e-07 17.0044 2.38419e-07C17.2398 2.38419e-07 17.4661 0.0906926 17.6364 0.253232C18.1786 0.835577 18.6477 1.48243 19.0312 2.17985C19.5023 2.96736 19.8299 3.83219 19.9989 4.73415C20.0117 4.94493 19.9545 5.15402 19.8363 5.32899C19.7181 5.50396 19.5454 5.63501 19.3451 5.70182C18.5799 5.90352 17.7913 6.00319 17 5.99822C16.2094 6.00888 15.4209 5.91508 14.6549 5.71925C14.4553 5.65411 14.2829 5.52469 14.1646 5.3512C14.0463 5.17771 13.9888 4.96992 14.0011 4.7603L14.0098 4.75158ZM10.453 27.7751C10.453 27.7751 10.0868 28.3331 7.96843 28.8997C7.19642 29.1243 6.40039 29.256 5.5972 29.292C5.37007 29.2795 5.15554 29.1836 4.99468 29.0228C4.83383 28.8619 4.73796 28.6474 4.72543 28.4202C4.75768 27.6165 4.88932 26.8205 5.11773 26.049C5.33021 25.153 5.70229 24.3025 6.21616 23.5383C6.35838 23.3683 6.55508 23.2529 6.77282 23.2115C6.99056 23.1702 7.21589 23.2056 7.41049 23.3116C8.08656 23.7189 8.70767 24.2111 9.25865 24.7762C9.81044 25.3151 10.2883 25.9249 10.6796 26.5895C10.7727 26.7761 10.8018 26.9882 10.7624 27.193C10.723 27.3978 10.6174 27.584 10.4617 27.7228L10.453 27.7751ZM23.547 6.22488C23.547 6.22488 23.9132 5.6931 26.0316 5.10029C26.804 4.87537 27.5999 4.74374 28.4028 4.708C28.6299 4.72053 28.8445 4.8164 29.0053 4.97725C29.1662 5.1381 29.262 5.35263 29.2746 5.57977C29.242 6.38332 29.1102 7.17976 28.8823 7.95099C28.6615 8.8391 28.2836 9.68055 27.7664 10.4355C27.6267 10.5953 27.438 10.7043 27.2297 10.7453C27.0215 10.7863 26.8055 10.7571 26.6157 10.6622C25.9396 10.2549 25.3185 9.76274 24.7675 9.19763C24.1972 8.64807 23.7045 8.02336 23.3029 7.34075C23.2098 7.15411 23.1808 6.94203 23.2201 6.73722C23.2595 6.53241 23.3652 6.34625 23.5209 6.20744L23.547 6.22488ZM4.79517 19.9902C4.79517 19.9902 4.16749 20.1035 2.24087 19.0312C1.52142 18.6497 0.853493 18.178 0.25323 17.6277C0.0906905 17.4574 0 17.231 0 16.9956C0 16.7602 0.0906905 16.5339 0.25323 16.3636C0.834703 15.8205 1.48243 15.3523 2.17985 14.9688C2.98519 14.4891 3.8716 14.1612 4.79517 14.0011C5.00595 13.9883 5.21505 14.0455 5.39001 14.1637C5.56498 14.2819 5.69604 14.4546 5.76284 14.6549C5.94417 15.4221 6.0235 16.211 5.99822 17C6.00811 17.7876 5.91432 18.5732 5.71925 19.3364C5.65572 19.53 5.53159 19.6982 5.3652 19.8159C5.1988 19.9336 4.99896 19.9947 4.79517 19.9902ZM29.2484 14.0098C29.2484 14.0098 29.8761 13.8965 31.8027 14.9688C32.5069 15.3534 33.16 15.825 33.7468 16.3723C33.9093 16.5426 34 16.769 34 17.0044C34 17.2398 33.9093 17.4661 33.7468 17.6364C33.1638 18.1781 32.5168 18.6465 31.8201 19.0312C31.0326 19.5023 30.1678 19.8299 29.2659 19.9989C29.0551 20.0117 28.846 19.9545 28.671 19.8363C28.496 19.7181 28.365 19.5454 28.2982 19.3451C28.0965 18.5799 27.9968 17.7913 28.0018 17C27.9904 16.2093 28.0846 15.4212 28.2807 14.6549C28.3459 14.4553 28.4753 14.2829 28.6488 14.1646C28.8223 14.0463 29.0301 13.9888 29.2397 14.0011L29.2484 14.0098ZM6.22488 10.453C6.22488 10.453 5.6931 10.0868 5.10029 7.96843C4.87573 7.19642 4.74403 6.40039 4.70799 5.5972C4.72052 5.37007 4.81639 5.15554 4.97725 4.99468C5.1381 4.83383 5.35263 4.73796 5.57977 4.72543C6.38331 4.75804 7.17975 4.8898 7.95099 5.11773C8.8391 5.33851 9.68055 5.71643 10.4355 6.2336C10.5953 6.37328 10.7043 6.56203 10.7453 6.77028C10.7863 6.97852 10.7571 7.19449 10.6622 7.38434C10.2549 8.06041 9.76274 8.68152 9.19763 9.2325C8.66843 9.79168 8.06749 10.2783 7.41049 10.6796C7.22385 10.7727 7.01177 10.8018 6.80696 10.7624C6.60215 10.723 6.41599 10.6174 6.27719 10.4617L6.22488 10.453ZM27.7751 23.547C27.7751 23.547 28.3069 23.9132 28.8997 26.0316C29.1246 26.804 29.2563 27.5999 29.292 28.4028C29.2795 28.6299 29.1836 28.8445 29.0228 29.0053C28.8619 29.1662 28.6474 29.262 28.4202 29.2746C27.6167 29.242 26.8202 29.1102 26.049 28.8823C25.153 28.6698 24.3025 28.2977 23.5383 27.7838C23.3683 27.6416 23.2529 27.4449 23.2115 27.2272C23.1702 27.0094 23.2056 26.7841 23.3116 26.5895C23.7189 25.9134 24.2111 25.2923 24.7762 24.7413C25.3258 24.1711 25.9505 23.6784 26.6331 23.2768C26.8197 23.1837 27.0318 23.1546 27.2366 23.194C27.4414 23.2334 27.6276 23.339 27.7664 23.4947L27.7751 23.547Z" fill="#F7C100"/>
</svg>
