<svg width="60" height="45" viewBox="0 0 60 45" fill="none" xmlns="http://www.w3.org/2000/svg">
<g clip-path="url(#clip0_170_171)">
<path d="M19.3359 0.375977L20.8184 0.535156L22.0752 0.694336L23.3965 0.949219L25.6846 1.45898L27.7793 2.03223L28.6816 2.35059L29.2939 2.60547L29.6162 2.79688L29.7451 2.95605H29.584L29.165 2.76465L28.166 2.41406L27.1992 2.16016L26.2646 1.93652L24.0088 1.52246L22.6875 1.33203L21.4307 1.2041L19.8516 1.1084H18.1113L16.7578 1.2041L15.501 1.36328L14.4053 1.58691L13.2451 1.87305L12.0205 2.28711L11.4404 2.54199L10.7637 2.89258L9.99023 3.37012L9.37793 3.81543L9.02344 4.10254L8.57227 4.48438L7.92773 5.12109L7.57324 5.56738L7.2832 5.94922L7.02539 6.36328L6.70312 6.93652L6.44531 7.50977L6.1875 8.27441L5.96191 9.13379L5.86523 9.70703L5.80078 10.3438V11.7139L5.89746 12.5098L6.05859 13.2744L6.44531 14.6748L6.76758 15.6309L7.12207 16.5225L7.66992 17.6367L8.05664 18.3379L8.60449 19.2295L8.89453 19.707L9.41016 20.4717L9.79688 21.0127L10.2158 21.5225L10.5059 21.8721L10.9248 22.3818L11.2793 22.8281L11.6338 23.2422L11.8594 23.5283L12.2461 23.9746L12.6006 24.3252L12.5361 23.6875L12.5039 22.9238L12.4717 4.58008L12.5039 4.35742L12.5361 4.3252H21.7852L23.4287 4.38867L24.7178 4.5166L25.6846 4.67578L26.5225 4.86621L27.1348 5.05762L27.7471 5.28027L28.4883 5.59863L29.2295 5.98145L29.9707 6.39551L30.6475 6.84082L31.0342 7.12793L31.4531 7.47754L31.7109 7.70117L31.9688 7.9873L32.0332 8.14648L32.001 8.37012L31.6465 9.3252L31.4854 9.99414L31.3887 10.6943L31.3564 11.1406V12L31.4209 12.8604L31.5498 13.6885L31.7432 14.3564L32.0654 15.1846L32.3232 15.6943L32.71 16.3311L33.0322 16.7773L33.29 17.0957L33.6768 17.541L34.2568 18.1143L34.4824 18.3057V18.3691L34.6113 18.4336L34.8691 18.6875L35.127 18.9111L35.5137 19.2295L35.7715 19.4521L35.8359 19.5801L35.7393 20.79L35.6104 21.7129L35.3848 22.8916L35.127 23.9111L34.8047 24.9297L34.5146 25.6309L34.0635 26.5537L33.6123 27.3506L33.3545 27.8594L34.1602 27.3184L34.4824 27.0312L34.8047 26.7773L35.1592 26.458L35.6104 26.1084L35.9648 25.79L36.3193 25.5029L36.5771 25.2803L36.8027 25.0254L37.0605 24.8027L37.1895 24.834L37.4473 25.0254L37.9307 25.376L38.7041 25.8213L39.542 26.2676L40.4443 26.7129L41.2178 27.0635L42.0234 27.4141L42.5068 27.6045L43.5703 27.8916L44.6982 28.1143L45.4395 28.1777H45.8262L46.2773 28.1143L46.9219 27.8916L47.4053 27.6367L47.6953 27.4141L47.8887 27.2549L48.2109 26.8086L48.4365 26.2041L48.5332 25.7256V25.248L48.4043 24.707L48.2109 24.1973L47.9209 23.6875L47.6953 23.4648V23.4014L47.5664 23.3379L47.2764 23.083L46.7285 22.7002L46.1807 22.3818L45.2139 21.9043L44.7627 21.7129L44.376 21.5225L43.5703 21.1719L42.1846 20.5664L41.3467 20.2168L40.2832 19.7705L39.2197 19.293L38.2852 18.8154L37.5762 18.4014L37.0283 18.0508L36.416 17.6367L35.8682 17.1914L35.2236 16.5547L34.9336 16.2041L34.4824 15.6309L34.1279 15.0254L33.8701 14.5156L33.5156 13.4648L33.3545 12.6689L33.3223 12.3828V11.0762L33.4189 10.376L33.6123 9.61133L33.8379 9.00684L34.0957 8.49707L34.3535 8.01953L34.5791 7.70117L34.8691 7.31836L35.2236 6.9043L35.5137 6.61816L35.8682 6.33203L36.3193 5.98145L36.9316 5.56738L37.6084 5.18555L38.3496 4.83496L39.123 4.54785L39.7998 4.35742L41.0889 4.10254L41.9268 4.00684L42.9258 3.94336H45.0527L46.4385 4.07031L47.5986 4.29297L48.4688 4.5166L49.2744 4.80273L50.0479 5.15332L50.8213 5.53516L51.4014 5.88574L51.917 6.2041L53.0771 7.03223L53.4961 7.38281L53.8184 7.6377L54.2373 8.05078L54.3662 8.27441L54.334 8.46484L54.0762 8.68848L53.5283 9.07031L52.9482 9.48438L52.626 9.70703L52.0137 10.1533L51.2725 10.6631L50.8857 10.917L50.5312 11.2041L50.3379 11.3633L50.1445 11.4268L49.8545 11.3633L49.1133 11.1084L48.2754 10.79L46.5996 10.249L45.1172 9.86621L43.957 9.64355L43.4736 9.58008L43.0225 9.54785H42.3135L41.7012 9.64355L41.2178 9.83496L40.8633 10.0254L40.4766 10.376L40.2832 10.6631L40.0254 11.1406L39.9609 11.3955V11.9365L40.0898 12.3506L40.4121 12.9238L40.7021 13.2744L40.9922 13.5605L41.4434 13.9111L41.7656 14.1338L42.3779 14.4844L43.248 14.8984L44.0859 15.248L45.2461 15.7578L46.1484 16.1719L46.8252 16.459L47.7275 16.873L48.6943 17.2871L49.21 17.541L49.9512 17.9238L50.5957 18.2734L51.3369 18.752L51.8203 19.1016L52.4004 19.5479L52.8193 19.8984L53.3027 20.3438L53.6572 20.7266L54.0762 21.2988L54.3662 21.7451L54.6562 22.2549L55.1396 23.1465L55.5264 23.9424L55.8809 24.8027L56.2676 25.9492L56.5576 26.9365L56.751 27.8916L56.9443 29.165L57.041 30.3115V31.2676L56.9766 32.127L56.7832 33.2734L56.5576 34.2285L56.2354 35.1846L55.9131 35.917L55.623 36.458L54.9785 37.4131L54.6562 37.8271L54.3662 38.1465L54.1406 38.4004L53.6572 38.8789H53.5928V38.9424L53.335 39.165L52.916 39.5156L52.3359 39.9297L51.5303 40.4385L50.7246 40.8848L49.9512 41.2354L49.0488 41.585L47.9209 41.9355L46.5029 42.2861L45.5361 42.4775L44.1826 42.668L43.2158 42.7637L42.668 42.7959H40.7988L39.3809 42.7002L37.834 42.5088L36.3193 42.2861L35.2236 42.0635L33.5801 41.7129L31.9688 41.2666L31.1631 41.0117L29.9385 40.5986L29.0039 40.248L27.3926 39.6113L26.4258 39.1973L25.3301 38.6875L24.5566 38.3057L23.8154 37.8916L23.1709 37.5732L22.4297 37.1592L21.8818 36.8398L21.1406 36.3945L19.0137 34.9932L18.4658 34.6113L17.8857 34.1973L17.5312 33.9102L17.0801 33.5605L16.6934 33.2734L16.5 33.1777L15.7588 33.21L13.6963 33.2412H12.7295L12.5684 33.1777L12.5039 32.8594V31.0127L12.5684 29.8975L12.4717 29.5791L12.2461 29.293L11.6982 28.751L11.4727 28.4961L11.0859 28.083L10.8604 27.8281L10.5381 27.4775L10.248 27.127L9.8291 26.6494L9.41016 26.1084L9.05566 25.6621L8.7334 25.248L8.31445 24.6748L7.70215 23.7832L7.2832 23.1465L6.99316 22.6689L6.54199 21.8721L6.05859 20.9805L5.76855 20.4395L5.51074 19.9297L5.12402 19.0703L4.86621 18.4336L4.51172 17.4775L4.15723 16.3311L3.86719 15.1846L3.67383 14.0703L3.5127 12.7012L3.48047 12.2549V11.1084L3.60938 9.86621L3.73828 9.10254L3.99609 8.14648L4.25391 7.38281L4.64062 6.52246L4.96289 5.91797L5.31738 5.34473L5.7041 4.83496L5.99414 4.48438L6.44531 4.00684L6.92871 3.56055L7.2832 3.27441L7.70215 2.95605L8.21777 2.60547L8.79785 2.25488L9.66797 1.80957L10.3125 1.52246L11.1826 1.2041L12.3428 0.885742L13.1807 0.694336L14.373 0.503906L15.5654 0.375977L16.6289 0.3125H18.1113L19.3359 0.375977ZM54.7207 26.2676L54.6562 26.3945L54.4629 27.127L54.2373 27.7959L53.9795 28.3691L53.5928 29.0693L53.2705 29.5479L52.9482 29.9619L52.4648 30.4707L51.8203 31.0439L51.4658 31.3311L51.0469 31.6494L50.5635 31.9678L49.8223 32.3496L49.0811 32.668L48.2109 32.9551L47.2441 33.21L46.4062 33.3691L45.5039 33.4961L44.2793 33.5918H42.6035L42.0557 33.5605L40.8311 33.4326L40.0898 33.3057L39.0908 33.082L38.3174 32.8594L37.4473 32.541L36.7705 32.2549L36.0293 31.8721L35.3525 31.4902L34.6113 31.0127L34.0312 30.5664L33.6768 30.2803L33.4189 30.0254L33.1289 29.707L32.9033 29.4199L32.5811 29.1016H32.4199L32.1299 29.293L31.7432 29.6426L31.3242 30.0254L30.9697 30.3115L30.3574 30.7578L29.8096 31.1084L29.0684 31.5225L28.5527 31.7764L27.7471 32.127L26.7803 32.4453L25.8135 32.7002L25.0078 32.8281L24.5889 32.9229L24.1699 33.0508V33.1143L24.6211 33.4326L25.3623 33.7832L25.9102 34.0693L26.4258 34.3242L27.0059 34.5791L27.4893 34.8018L28.0693 35.0566L28.7461 35.3438L29.6807 35.7256L30.5508 36.1074L31.4531 36.458L32.6133 36.8721L33.5156 37.127L34.4824 37.4131L35.4492 37.668L36.6738 37.9551L38.124 38.2412L39.7676 38.5283L40.96 38.6875L42.4102 38.8145L43.377 38.8467H43.957L44.666 38.8145L45.8262 38.6875L46.8574 38.5283L48.0176 38.2734L48.9844 37.9863L50.1123 37.5732L50.7246 37.2861L51.4658 36.8721L51.9492 36.5537L52.4971 36.1396L52.9482 35.7256L53.1738 35.4707L53.4961 35.1211L53.7861 34.7705L54.2695 34.0381L54.624 33.2734L54.8496 32.668L55.1074 31.8086L55.2686 30.917L55.3652 29.8975V28.7197L55.333 28.21L55.2686 27.7324L55.1719 27.1904L55.0107 26.6172L54.8174 26.2676H54.7207ZM18.5303 9.3252V28.21L18.5625 28.2422H20.1094L21.5918 28.21L22.0752 28.1777L22.8164 28.083L23.6865 27.8916L24.46 27.6367L25.1367 27.3184L25.8135 26.9365L26.2969 26.5859L26.6514 26.2988L26.877 26.0439L27.167 25.7256L27.5537 25.2168L27.9404 24.5791L28.2305 23.9424L28.4883 23.2734L28.7139 22.4775L28.9395 21.3945L29.0361 20.5029L29.1006 19.0703V18.6562L29.0684 17.7646L29.0039 16.7451L28.875 15.79L28.7461 15.1211L28.4883 14.2617L28.1338 13.4648L27.6826 12.6055L27.2959 12L26.877 11.4902L26.3613 11.0127L25.9424 10.6943L25.3623 10.3438L24.5889 9.99414L23.8799 9.73926L23.0742 9.5166L22.4297 9.38867L21.7529 9.3252L20.6895 9.29297H18.7559L18.5303 9.3252Z" fill="#2157F2"/>
</g>
<defs>
<clipPath id="clip0_170_171">
<rect width="60" height="45" fill="white"/>
</clipPath>
</defs>
</svg>
